<?xml version="1.0" encoding="UTF-8"?>
<!DOCTYPE svg PUBLIC "-//W3C//DTD SVG 1.1//EN" "http://www.w3.org/Graphics/SVG/1.1/DTD/svg11.dtd">
<!-- Creator: CorelDRAW X7 -->
<svg xmlns="http://www.w3.org/2000/svg" xml:space="preserve" width="575px" height="635px" version="1.1" style="shape-rendering:geometricPrecision; text-rendering:geometricPrecision; image-rendering:optimizeQuality; fill-rule:evenodd; clip-rule:evenodd"
viewBox="0 0 9703913 10714744"
 xmlns:xlink="http://www.w3.org/1999/xlink">
 <defs>
  <style type="text/css">
   <![CDATA[
    .fil0 {fill:#424A60}
    .fil1 {fill:#556080}
    .fil3 {fill:#7383BF}
    .fil2 {fill:#7FABDA}
   ]]>
  </style>
 </defs>
 <g id="Capa_x0020_1">
  <metadata id="CorelCorpID_0Corel-Layer"/>
  <g id="_2246027496240">
   <path class="fil0" d="M9694824 1617326l0 0c-147782,-902058 -2259001,-1617326 -4842867,-1617326 -2583866,0 -4695086,715268 -4842868,1617326l0 0 -9089 0 0 101079 0 2324899 0 101079 0 101079 0 2223820 0 101079 0 101079 0 2425979 9089 0c147782,901858 2259201,1617325 4842868,1617325 2583666,0 4695085,-715467 4842867,-1617325l9089 0 0 -2425979 0 -101079 0 -101079 0 -2223820 0 -101079 0 -101079 0 -2324899 0 -101079 -9089 0z"/>
   <g>
    <path class="fil0" d="M4851957 8288766c-2679703,0 -4851957,-769445 -4851957,-1718405l0 2527058 9089 0c147782,901858 2259201,1617325 4842868,1617325 2583666,0 4695085,-715467 4842867,-1617325l9089 0 0 -2527058c0,948960 -2172254,1718405 -4851956,1718405z"/>
    <path class="fil0" d="M0 6469282l0 101079c0,-33965 3648,-67512 9089,-101079l-9089 0z"/>
    <path class="fil0" d="M9694824 6469282c5442,33567 9089,67114 9089,101079l0 -101079 -9089 0z"/>
   </g>
   <g>
    <path class="fil1" d="M4851957 5862788c-2679703,0 -4851957,-769445 -4851957,-1718405l0 2527057 9089 0c147782,901859 2259201,1617326 4842868,1617326 2583666,0 4695085,-715467 4842867,-1617326l9089 0 0 -2527057c0,948960 -2172254,1718405 -4851956,1718405z"/>
    <path class="fil1" d="M0 4043304l0 101079c0,-33965 3648,-67532 9089,-101079l-9089 0z"/>
    <path class="fil1" d="M9694824 4043304c5442,33547 9089,67114 9089,101079l0 -101079 -9089 0z"/>
   </g>
   <ellipse class="fil2" cx="4851957" cy="1718401" rx="4851957" ry="1718400"/>
   <g>
    <path class="fil3" d="M4851957 3436809c-2679703,0 -4851957,-769445 -4851957,-1718404l0 2527057 9089 0c147782,901859 2259201,1617326 4842868,1617326 2583666,0 4695085,-715467 4842867,-1617326l9089 0 0 -2527057c0,948959 -2172254,1718404 -4851956,1718404z"/>
    <path class="fil3" d="M0 1617326l0 101079c0,-33966 3648,-67533 9089,-101079l-9089 0z"/>
    <path class="fil3" d="M9694824 1617326c5442,33546 9089,67113 9089,101079l0 -101079 -9089 0z"/>
   </g>
   <g>
   </g>
   <g>
   </g>
   <g>
   </g>
   <g>
   </g>
   <g>
   </g>
   <g>
   </g>
   <g>
   </g>
   <g>
   </g>
   <g>
   </g>
   <g>
   </g>
   <g>
   </g>
   <g>
   </g>
   <g>
   </g>
   <g>
   </g>
   <g>
   </g>
  </g>
 </g>
</svg>
