<?xml version="1.0" encoding="UTF-8"?>
<!DOCTYPE svg PUBLIC "-//W3C//DTD SVG 1.1//EN" "http://www.w3.org/Graphics/SVG/1.1/DTD/svg11.dtd">
<!-- Creator: CorelDRAW X7 -->
<svg xmlns="http://www.w3.org/2000/svg" xml:space="preserve" width="726px" height="442px" version="1.1" style="shape-rendering:geometricPrecision; text-rendering:geometricPrecision; image-rendering:optimizeQuality; fill-rule:evenodd; clip-rule:evenodd"
viewBox="0 0 14956475 9101102"
 xmlns:xlink="http://www.w3.org/1999/xlink">
 <defs>
  <style type="text/css">
   <![CDATA[
    .fil0 {fill:#F9B234}
   ]]>
  </style>
 </defs>
 <g id="Capa_x0020_1">
  <metadata id="CorelCorpID_0Corel-Layer"/>
  <path class="fil0" d="M267384 1438770c2094620,-81330 5115029,21957 7210939,-73126 530970,-24076 887011,-265485 923745,-907727 12414,-268504 3529,-456700 253167,-456773l4472471 -1120c151097,-48 286736,102728 313660,253703l1275282 7152930c2312,12756 3603,25317 4114,37610l230699 1293880c31183,174686 -86369,318115 -261152,318699l-12870863 44231c-174783,585 -338830,-142650 -374420,-316556l-1438819 -7027076c-35589,-173834 86516,-311908 261177,-318675z"/>
 </g>
</svg>
