<?xml version="1.0" encoding="UTF-8"?>
<!DOCTYPE svg PUBLIC "-//W3C//DTD SVG 1.1//EN" "http://www.w3.org/Graphics/SVG/1.1/DTD/svg11.dtd">
<!-- Creator: CorelDRAW X7 -->
<svg xmlns="http://www.w3.org/2000/svg" xml:space="preserve" width="715px" height="469px" version="1.1" style="shape-rendering:geometricPrecision; text-rendering:geometricPrecision; image-rendering:optimizeQuality; fill-rule:evenodd; clip-rule:evenodd"
viewBox="0 0 35417752 23235580"
 xmlns:xlink="http://www.w3.org/1999/xlink">
 <defs>
  <style type="text/css">
   <![CDATA[
    .fil0 {fill:#FFA300}
   ]]>
  </style>
 </defs>
 <g id="Capa_x0020_1">
  <metadata id="CorelCorpID_0Corel-Layer"/>
  <path class="fil0" d="M2811842 3677327c5100461,-207780 12284921,56145 17399198,-186879 1295445,-61532 2338089,-678488 2922377,-2319998 237170,-686334 361111,-1167347 961675,-1167464l10757341 -2927c329203,-59 562860,215624 565260,543305 293,33899 -1932,68968 -6791,105149l-2456176 18282245c-4332,32493 -10831,64576 -19203,96015l-444246 3307024c-59951,446588 -453263,813086 -874149,814608l-30863115 87116c-420828,1581 -798391,-400103 -749739,-844349l1933361 -17899238c48652,-444363 448930,-797278 874207,-814607z"/>
 </g>
</svg>
