<!-- Generated by IcoMoon.io -->
<svg version="1.1" xmlns="http://www.w3.org/2000/svg" width="424" height="1024" viewBox="0 0 424 1024">
<title></title>
<g id="icomoon-ignore">
</g>
<path fill="#000" d="M381.51 365.165c24.284 7.492 42.045 30.161 42.045 56.835v542.581c0 32.68-26.738 59.418-59.418 59.418h-304.713c-32.68 0-59.418-26.738-59.418-59.418v-542.581c0-26.609 17.696-49.214 41.916-56.77v8.461c-19.44 9.107-33.003 28.87-33.003 51.604v534.314c0 31.324 25.64 56.9 56.9 56.9h291.926c31.259 0 56.9-25.576 56.9-56.9v-534.314c0-22.863-13.627-42.626-33.132-51.668v-8.461z"></path>
<path fill="#000" d="M60.327 347.469c-14.144 0-25.705 11.496-25.705 25.64v299.417c0 14.144 11.561 25.64 25.705 25.64h302.324c14.080 0 25.64-11.496 25.64-25.64v-299.417c0-14.144-11.561-25.64-25.64-25.64h-302.324zM68.206 352.959h286.565c13.498 0 24.542 11.044 24.542 24.542v290.634c0 13.498-11.044 24.542-24.542 24.542h-286.565c-13.498 0-24.607-11.044-24.607-24.542v-290.634c0-13.498 11.109-24.542 24.607-24.542z"></path>
<path fill="#000" d="M53.61 412.636v255.112h314.272v-255.112h-314.272zM61.748 421.096h297.997v238.255h-297.997v-238.255z"></path>
<path fill="#000" d="M63.75 375.047c-5.49 0-9.946 4.521-9.946 10.011v0c0 5.49 4.456 10.011 9.946 10.011h295.413c5.49 0 10.011-4.521 10.011-10.011v0c0-5.49-4.521-10.011-10.011-10.011h-295.413zM65.817 383.185h291.344c1.033 0 1.873 0.84 1.873 1.873v0c0 1.033-0.84 1.873-1.873 1.873h-291.344c-1.033 0-1.873-0.84-1.873-1.873v0c0-1.033 0.84-1.873 1.873-1.873z"></path>
<path fill="#000" d="M71.888 728.070c-11.561 0-20.99 9.429-20.99 20.99v4.908c0 11.561 9.429 21.055 20.99 21.055h55.35c11.561 0 21.055-9.494 21.055-21.055v-4.908c0-11.561-9.494-20.99-21.055-20.99h-55.35zM74.342 734.852h50.441c8.202 0 14.919 6.717 14.919 14.919v3.488c0 8.202-6.717 14.919-14.919 14.919h-50.441c-8.202 0-14.919-6.717-14.919-14.919v-3.488c0-8.202 6.717-14.919 14.919-14.919z"></path>
<path fill="#000" d="M71.888 780.643c-11.561 0-20.99 9.494-20.99 21.055v4.908c0 11.561 9.429 20.99 20.99 20.99h55.35c11.561 0 21.055-9.429 21.055-20.99v-4.908c0-11.561-9.494-21.055-21.055-21.055h-55.35zM74.342 787.489h50.441c8.202 0 14.919 6.717 14.919 14.919v3.488c0 8.202-6.717 14.919-14.919 14.919h-50.441c-8.202 0-14.919-6.717-14.919-14.919v-3.488c0-8.202 6.717-14.919 14.919-14.919z"></path>
<path fill="#000" d="M71.888 837.736c-11.561 0-20.99 9.494-20.99 21.055v4.908c0 11.561 9.429 21.055 20.99 21.055h55.35c11.561 0 21.055-9.494 21.055-21.055v-4.908c0-11.561-9.494-21.055-21.055-21.055h-55.35zM74.342 844.582h50.441c8.202 0 14.919 6.717 14.919 14.919v3.488c0 8.202-6.717 14.919-14.919 14.919h-50.441c-8.202 0-14.919-6.717-14.919-14.919v-3.488c0-8.202 6.717-14.919 14.919-14.919z"></path>
<path fill="#000" d="M71.888 896.186c-11.561 0-20.99 9.429-20.99 20.99v4.973c0 11.561 9.429 20.99 20.99 20.99h55.35c11.561 0 21.055-9.429 21.055-20.99v-4.973c0-11.561-9.494-20.99-21.055-20.99h-55.35zM74.342 902.967h50.441c8.202 0 14.919 6.717 14.919 14.919v3.552c0 8.202-6.717 14.919-14.919 14.919h-50.441c-8.202 0-14.919-6.717-14.919-14.919v-3.552c0-8.202 6.717-14.919 14.919-14.919z"></path>
<path fill="#000" d="M183.685 728.070c-11.561 0-20.99 9.429-20.99 20.99v4.908c0 11.561 9.429 21.055 20.99 21.055h55.414c11.561 0 20.99-9.494 20.99-21.055v-4.908c0-11.561-9.429-20.99-20.99-20.99h-55.414zM186.139 734.852h50.506c8.202 0 14.919 6.717 14.919 14.919v3.488c0 8.202-6.717 14.919-14.919 14.919h-50.506c-8.202 0-14.919-6.717-14.919-14.919v-3.488c0-8.202 6.717-14.919 14.919-14.919z"></path>
<path fill="#000" d="M183.685 780.643c-11.561 0-20.99 9.494-20.99 21.055v4.908c0 11.561 9.429 20.99 20.99 20.99h55.414c11.561 0 20.99-9.429 20.99-20.99v-4.908c0-11.561-9.429-21.055-20.99-21.055h-55.414zM186.139 787.489h50.506c8.202 0 14.919 6.717 14.919 14.919v3.488c0 8.202-6.717 14.919-14.919 14.919h-50.506c-8.202 0-14.919-6.717-14.919-14.919v-3.488c0-8.202 6.717-14.919 14.919-14.919z"></path>
<path fill="#000" d="M183.685 837.736c-11.561 0-20.99 9.494-20.99 21.055v4.908c0 11.561 9.429 21.055 20.99 21.055h55.414c11.561 0 20.99-9.494 20.99-21.055v-4.908c0-11.561-9.429-21.055-20.99-21.055h-55.414zM186.139 844.582h50.506c8.202 0 14.919 6.717 14.919 14.919v3.488c0 8.202-6.717 14.919-14.919 14.919h-50.506c-8.202 0-14.919-6.717-14.919-14.919v-3.488c0-8.202 6.717-14.919 14.919-14.919z"></path>
<path fill="#000" d="M183.685 896.186c-11.561 0-20.99 9.429-20.99 20.99v4.973c0 11.561 9.429 20.99 20.99 20.99h55.414c11.561 0 20.99-9.429 20.99-20.99v-4.973c0-11.561-9.429-20.99-20.99-20.99h-55.414zM186.139 902.967h50.506c8.202 0 14.919 6.717 14.919 14.919v3.552c0 8.202-6.717 14.919-14.919 14.919h-50.506c-8.202 0-14.919-6.717-14.919-14.919v-3.552c0-8.202 6.717-14.919 14.919-14.919z"></path>
<path fill="#000" d="M295.547 728.070c-11.561 0-21.055 9.429-21.055 20.99v4.908c0 11.561 9.494 21.055 21.055 21.055h55.35c11.561 0 20.99-9.494 20.99-21.055v-4.908c0-11.561-9.429-20.99-20.99-20.99h-55.35zM298.001 734.852h50.441c8.202 0 14.919 6.717 14.919 14.919v3.488c0 8.202-6.717 14.919-14.919 14.919h-50.441c-8.202 0-14.919-6.717-14.919-14.919v-3.488c0-8.202 6.717-14.919 14.919-14.919z"></path>
<path fill="#000" d="M295.547 780.643c-11.561 0-21.055 9.494-21.055 21.055v4.908c0 11.561 9.494 20.99 21.055 20.99h55.35c11.561 0 20.99-9.429 20.99-20.99v-4.908c0-11.561-9.429-21.055-20.99-21.055h-55.35zM298.001 787.489h50.441c8.202 0 14.919 6.717 14.919 14.919v3.488c0 8.202-6.717 14.919-14.919 14.919h-50.441c-8.202 0-14.919-6.717-14.919-14.919v-3.488c0-8.202 6.717-14.919 14.919-14.919z"></path>
<path fill="#000" d="M295.547 837.736c-11.561 0-21.055 9.494-21.055 21.055v4.908c0 11.561 9.494 21.055 21.055 21.055h55.35c11.561 0 20.99-9.494 20.99-21.055v-4.908c0-11.561-9.429-21.055-20.99-21.055h-55.35zM298.001 844.582h50.441c8.202 0 14.919 6.717 14.919 14.919v3.488c0 8.202-6.717 14.919-14.919 14.919h-50.441c-8.202 0-14.919-6.717-14.919-14.919v-3.488c0-8.202 6.717-14.919 14.919-14.919z"></path>
<path fill="#000" d="M295.547 896.186c-11.561 0-21.055 9.429-21.055 20.99v4.973c0 11.561 9.494 20.99 21.055 20.99h55.35c11.561 0 20.99-9.429 20.99-20.99v-4.973c0-11.561-9.429-20.99-20.99-20.99h-55.35zM298.001 902.967h50.441c8.202 0 14.919 6.717 14.919 14.919v3.552c0 8.202-6.717 14.919-14.919 14.919h-50.441c-8.202 0-14.919-6.717-14.919-14.919v-3.552c0-8.202 6.717-14.919 14.919-14.919z"></path>
<path fill="#000" d="M128.077 957.929c-11.561 0-21.055 9.429-21.055 20.99v4.973c0 11.561 9.494 20.99 21.055 20.99h55.35c11.561 0 20.99-9.429 20.99-20.99v-4.973c0-11.561-9.429-20.99-20.99-20.99h-55.35zM130.531 964.711h50.441c8.202 0 14.919 6.717 14.919 14.919v3.552c0 8.202-6.717 14.919-14.919 14.919h-50.441c-8.202 0-14.919-6.717-14.919-14.919v-3.552c0-8.202 6.717-14.919 14.919-14.919z"></path>
<path fill="#000" d="M239.357 957.929c-11.561 0-20.99 9.429-20.99 20.99v4.973c0 11.561 9.429 20.99 20.99 20.99h55.35c11.561 0 21.055-9.429 21.055-20.99v-4.973c0-11.561-9.494-20.99-21.055-20.99h-55.35zM241.812 964.711h50.441c8.267 0 14.919 6.717 14.919 14.919v3.552c0 8.202-6.652 14.919-14.919 14.919h-50.441c-8.202 0-14.919-6.717-14.919-14.919v-3.552c0-8.202 6.717-14.919 14.919-14.919z"></path>
<path fill="#000" d="M68.142 388.287h288.115v-351.279l0.323 0.065c1.615-5.361 3.811-14.661 5.49-19.957-26.674-23.509-20.926-22.734-44.37 1.744-24.284-23.574-18.471-23.897-42.045 0-23.251-25.317-17.826-23.961-41.722 0.323-24.736-24.349-19.053-25.124-42.626 0-23.251-25.124-17.503-24.478-42.303 0-23.638-23.638-18.019-24.349-41.464-0.904-18.988-34.295-35.457-15.048-39.397 18.536v351.473zM347.538 36.814v344.24h-270.742v-344.24c7.234-48.568 16.469-22.605 27.255-7.492 1.744-0.129 3.488-0.194 5.231-0.323 22.153-23.186 14.919-23.509 37.653-1.421 1.356 0.194 2.713 0.388 4.069 0.581 23.057-23.057 15.63-22.734 38.557 0.84 1.163-0.194 2.325-0.388 3.488-0.581 23.832-22.799 16.405-22.992 38.816 1.163 1.098-0.065 2.131-0.194 3.229-0.258 23.638-23.961 16.146-24.478 38.816 0 1.292-0.129 2.519-0.194 3.811-0.323 22.54-23.574 15.307-23.961 37.653-0.581 1.55 0 3.1 0 4.65 0 18.342-18.601 19.634-25.447 32.745-8.654-1.227 4.198-3.94 12.852-5.231 17.051zM72.469 36.814h-4.327c1.356 0 2.842 0 4.327 0z"></path>
<path fill="#000" d="M99.918 52.508c-1.615 0-2.906 1.292-2.906 2.906v53.154c0 1.615 1.292 2.906 2.906 2.906h21.765c0.452 0 0.84-0.129 1.227-0.323 0.194 0.194 0.452 0.323 0.646 0.323h31.195c0.581 0 1.163-0.194 1.679-0.517 0.452 0.323 1.033 0.517 1.679 0.517h22.153c0.71 0 1.292-0.258 1.808-0.581 0.581 0.323 1.356 0.581 2.196 0.581h27.449c0.194 0 0.323 0 0.452-0.065 0.065 0.065 0.129 0.065 0.194 0.065h11.819c0.065 0 0.065 0 0.129 0s0.194 0 0.258 0h25.382c0.775 0 1.55-0.258 2.131-0.71 0.323 0.452 0.646 0.71 1.033 0.71h12.207c0.452 0 0.775-0.258 1.098-0.71 0.517 0.452 1.163 0.71 1.873 0.71h40.43c1.615 0 2.906-1.292 2.906-2.906v-53.154c0-1.615-1.292-2.906-2.906-2.906h-40.43c-0.71 0-1.356 0.258-1.873 0.71-0.323-0.452-0.646-0.71-1.098-0.71h-12.207c-0.388 0-0.71 0.258-1.033 0.71-0.581-0.452-1.356-0.71-2.131-0.71h-25.382c-0.065 0-0.194 0-0.258 0s-0.065 0-0.129 0h-11.819c-0.065 0-0.129 0-0.194 0-0.129 0-0.258 0-0.452 0h-27.449c-0.84 0-1.615 0.194-2.196 0.581-0.517-0.388-1.098-0.581-1.808-0.581h-22.153c-0.646 0-1.227 0.194-1.679 0.517-0.517-0.323-1.098-0.517-1.679-0.517h-31.195c-0.194 0-0.452 0.129-0.646 0.323-0.388-0.194-0.775-0.323-1.227-0.323h-21.765zM215.396 60.516h5.748v42.949h-5.748v-42.949zM191.306 60.516h13.434v42.949h-13.434v-42.949zM284.115 103.466h-10.269v-42.949h10.269v42.949zM292.899 60.516h10.269v42.949h-10.269v-42.949zM256.279 60.516h5.942v42.949h-5.942v-42.949zM231.026 60.516h12.4v42.949h-12.4v-42.949zM163.728 60.516h10.915v42.949h-10.915v-42.949zM130.079 103.466h-3.811v-42.949h3.811v42.949zM138.54 60.516h10.657v42.949h-10.657v-42.949zM105.472 60.516h10.657v42.949h-10.657v-42.949z"></path>
<path fill="#000" d="M98.562 131.754h211.37v4.348h-211.37v-4.348z"></path>
<path fill="#000" d="M98.562 141.894h211.37v4.348h-211.37v-4.348z"></path>
<path fill="#000" d="M98.562 154.23h211.37v4.348h-211.37v-4.348z"></path>
<path fill="#000" d="M98.562 166.501h211.37v4.348h-211.37v-4.348z"></path>
<path fill="#000" d="M98.562 176.124h211.37v4.348h-211.37v-4.348z"></path>
<path fill="#000" d="M98.562 186.264h211.37v4.348h-211.37v-4.348z"></path>
<path fill="#000" d="M98.562 199.633h211.37v4.348h-211.37v-4.348z"></path>
<path fill="#000" d="M98.562 210.354h211.37v4.348h-211.37v-4.348z"></path>
<path fill="#000" d="M98.562 257.179h211.37v4.348h-211.37v-4.348z"></path>
<path fill="#000" d="M98.562 267.254h211.37v4.348h-211.37v-4.348z"></path>
<path fill="#000" d="M98.562 281.269h211.37v4.348h-211.37v-4.348z"></path>
<path fill="#000" d="M98.562 292.442h211.37v4.348h-211.37v-4.348z"></path>
<path fill="#000" d="M98.562 302.065h211.37v4.348h-211.37v-4.348z"></path>
<path fill="#000" d="M98.562 311.107h211.37v4.348h-211.37v-4.348z"></path>
<path fill="#000" d="M98.562 324.477h211.37v4.348h-211.37v-4.348z"></path>
<path fill="#000" d="M98.562 335.714h211.37v4.348h-211.37v-4.348z"></path>
</svg>
