<?xml version="1.0" encoding="UTF-8"?>
<!DOCTYPE svg PUBLIC "-//W3C//DTD SVG 1.1//EN" "http://www.w3.org/Graphics/SVG/1.1/DTD/svg11.dtd">
<!-- Creator: CorelDRAW X7 -->
<svg xmlns="http://www.w3.org/2000/svg" xml:space="preserve" width="244px" height="306px" version="1.1" style="shape-rendering:geometricPrecision; text-rendering:geometricPrecision; image-rendering:optimizeQuality; fill-rule:evenodd; clip-rule:evenodd"
viewBox="0 0 50282193 62985662"
 xmlns:xlink="http://www.w3.org/1999/xlink">
 <defs>
  <style type="text/css">
   <![CDATA[
    .str1 {stroke:#D2D3D5;stroke-width:24322.2}
    .str0 {stroke:#E6E7E8;stroke-width:486443}
    .fil0 {fill:#FEFEFE}
    .fil2 {fill:#009700}
    .fil3 {fill:#4E5C62}
    .fil4 {fill:#7B5637}
    .fil1 {fill:#A0B2A0}
   ]]>
  </style>
 </defs>
 <g id="Capa_x0020_1">
  <metadata id="CorelCorpID_0Corel-Layer"/>
  <polygon class="fil0 str0" points="243222,243222 50038971,243222 50038971,62742440 243222,62742440 "/>
  <polygon class="fil1" points="6647249,22181575 44303561,22181575 44303561,20176212 6647249,20176212 "/>
  <polygon class="fil1" points="6647249,25385778 44303561,25385778 44303561,23379685 6647249,23379685 "/>
  <polygon class="fil1" points="6647249,28588278 26711579,28588278 26711579,26582428 6647249,26582428 "/>
  <polygon class="fil1" points="6647249,51401256 44303561,51401256 44303561,49394677 6647249,49394677 "/>
  <polygon class="fil1" points="6647249,54604242 44303561,54604242 44303561,52598150 6647249,52598150 "/>
  <polygon class="fil1" points="6647249,57807472 26711579,57807472 26711579,55802109 6647249,55802109 "/>
  <polygon class="fil1" points="20074545,9074601 44303317,9074601 44303317,6755239 20074545,6755239 "/>
  <polygon class="fil1" points="20074545,12779841 44303317,12779841 44303317,10459992 20074545,10459992 "/>
  <polygon class="fil1" points="20074545,16484593 34700682,16484593 34700682,14164502 20074545,14164502 "/>
  <polygon class="fil2 str1" points="6647249,34732301 44303561,34732301 44303561,30160949 6647249,30160949 "/>
  <path class="fil3 str1" d="M44303317 30160949l-37656068 0 0 16888828 37656068 0 0 -16888828zm-165877 166364l0 16555614 -37323584 0 0 -16555614 37323584 0z"/>
  <polygon class="fil3 str1" points="6647249,36785335 44303561,36785335 44303561,36618485 6647249,36618485 "/>
  <polygon class="fil3 str1" points="6647249,38823776 44303561,38823776 44303561,38657412 6647249,38657412 "/>
  <polygon class="fil3 str1" points="6647249,40863433 44303561,40863433 44303561,40696583 6647249,40696583 "/>
  <polygon class="fil3 str1" points="6647249,42901874 44303561,42901874 44303561,42735267 6647249,42735267 "/>
  <polygon class="fil3 str1" points="6647249,44941288 44303561,44941288 44303561,44774924 6647249,44774924 "/>
  <polygon class="fil3 str1" points="10259577,47049777 10426184,47049777 10426184,30160706 10259577,30160706 "/>
  <polygon class="fil3 str1" points="32646918,47049777 32813281,47049777 32813281,30160706 32646918,30160706 "/>
  <polygon class="fil3 str1" points="38556962,47049777 38723082,47049777 38723082,30160706 38556962,30160706 "/>
  <path class="fil4" d="M3060702 2274852c0,-486 0,-486 0,-486 0,0 0,0 0,486zm-487 -7296c0,-487 0,-973 0,-973 0,486 0,486 0,973zm0 -7783c0,0 0,0 0,-487 0,487 0,487 0,487z"/>
  <polygon class="fil2" points="18615459,6755726 6647249,6755726 6647249,18599406 18615459,18599406 "/>
 </g>
</svg>
