<?xml version="1.0" encoding="UTF-8"?>
<!DOCTYPE svg PUBLIC "-//W3C//DTD SVG 1.1//EN" "http://www.w3.org/Graphics/SVG/1.1/DTD/svg11.dtd">
<!-- Creator: CorelDRAW X7 -->
<svg xmlns="http://www.w3.org/2000/svg" xml:space="preserve" width="1412px" height="1915px" version="1.1" style="shape-rendering:geometricPrecision; text-rendering:geometricPrecision; image-rendering:optimizeQuality; fill-rule:evenodd; clip-rule:evenodd"
viewBox="0 0 1635 2218"
 xmlns:xlink="http://www.w3.org/1999/xlink">
 <defs>
  <style type="text/css">
   <![CDATA[
    .fil1 {fill:#444444}
    .fil2 {fill:#ED3237}
    .fil0 {fill:#FEFEFE}
   ]]>
  </style>
 </defs>
 <g id="Capa_x0020_1">
  <metadata id="CorelCorpID_0Corel-Layer"/>
  <g id="_1450952325264">
   <polygon class="fil0" points="1635,0 0,0 0,2218 1635,2218 "/>
   <g>
    <path class="fil1" d="M1223 260l-899 0c-21,0 -37,-17 -37,-37l0 -7c0,-21 16,-37 37,-37l899 0c20,0 36,16 36,37l0 7c0,20 -16,37 -36,37z"/>
    <path class="fil1" d="M1043 478l-821 0c-13,0 -23,-10 -23,-23 0,-12 10,-23 23,-23l821 0c13,0 23,11 23,23 0,13 -10,23 -23,23z"/>
    <path class="fil1" d="M1043 558l-821 0c-13,0 -23,-11 -23,-23 0,-13 10,-23 23,-23l821 0c13,0 23,10 23,23 0,12 -10,23 -23,23z"/>
    <path class="fil1" d="M1440 623l-226 0c-18,0 -32,-14 -32,-32l0 -226c0,-18 14,-32 32,-32l226 0c18,0 32,14 32,32l0 226c0,18 -14,32 -32,32zm-226 -265c-4,0 -7,3 -7,7l0 226c0,4 3,7 7,7l226 0c4,0 7,-3 7,-7l0 -226c0,-4 -3,-7 -7,-7l-226 0z"/>
    <path class="fil2" d="M1299 556l-2 0c-7,-1 -13,-5 -16,-11 -21,-37 -52,-70 -52,-70 -8,-9 -8,-22 1,-30 8,-8 21,-7 29,1 1,1 23,24 43,54 32,-33 98,-99 170,-141l0 49c-83,55 -156,139 -157,140 -4,5 -10,8 -16,8l0 0z"/>
    <path class="fil1" d="M1043 956l-821 0c-13,0 -23,-10 -23,-22 0,-13 10,-23 23,-23l821 0c13,0 23,10 23,23 0,12 -10,22 -23,22z"/>
    <path class="fil1" d="M1043 1036l-821 0c-13,0 -23,-10 -23,-23 0,-12 10,-23 23,-23l821 0c13,0 23,11 23,23 0,13 -10,23 -23,23z"/>
    <path class="fil1" d="M1440 1101l-226 0c-18,0 -32,-14 -32,-31l0 -227c0,-17 14,-31 32,-31l226 0c18,0 32,14 32,31l0 227c0,17 -14,31 -32,31zm-226 -264c-4,0 -7,2 -7,6l0 227c0,3 3,6 7,6l226 0c4,0 7,-3 7,-6l0 -227c0,-4 -3,-6 -7,-6l-226 0z"/>
    <path class="fil2" d="M1299 1032l-2 0c-7,-1 -13,-4 -16,-10 -21,-38 -52,-71 -52,-71 -8,-8 -8,-22 1,-29 8,-8 21,-8 29,1 1,1 23,24 43,54 32,-34 98,-100 170,-142l0 50c-83,54 -156,139 -157,140 -4,4 -10,7 -16,7l0 0z"/>
    <path class="fil1" d="M1043 1435l-821 0c-13,0 -23,-10 -23,-23 0,-13 10,-23 23,-23l821 0c13,0 23,10 23,23 0,13 -10,23 -23,23z"/>
    <path class="fil1" d="M1043 1514l-821 0c-13,0 -23,-10 -23,-23 0,-12 10,-22 23,-22l821 0c13,0 23,10 23,22 0,13 -10,23 -23,23z"/>
    <path class="fil1" d="M1440 1579l-226 0c-18,0 -32,-14 -32,-31l0 -226c0,-18 14,-32 32,-32l226 0c18,0 32,14 32,32l0 226c0,17 -14,31 -32,31zm-226 -264c-4,0 -7,3 -7,7l0 226c0,4 3,7 7,7l226 0c4,0 7,-3 7,-7l0 -226c0,-4 -3,-7 -7,-7l-226 0z"/>
    <path class="fil2" d="M1299 1521l-2 0c-7,-1 -13,-4 -16,-10 -21,-38 -52,-70 -52,-71 -8,-8 -8,-21 1,-29 8,-8 21,-8 29,1 1,1 23,24 43,54 32,-34 98,-100 170,-142l0 50c-83,54 -156,139 -157,140 -4,5 -10,7 -16,7l0 0z"/>
    <path class="fil1" d="M1043 1913l-821 0c-13,0 -23,-10 -23,-23 0,-12 10,-22 23,-22l821 0c13,0 23,10 23,22 0,13 -10,23 -23,23z"/>
    <path class="fil1" d="M1043 1993l-821 0c-13,0 -23,-11 -23,-23 0,-13 10,-23 23,-23l821 0c13,0 23,10 23,23 0,12 -10,23 -23,23z"/>
    <path class="fil1" d="M1440 2058l-226 0c-18,0 -32,-14 -32,-32l0 -226c0,-17 14,-31 32,-31l226 0c18,0 32,14 32,31l0 226c0,18 -14,32 -32,32zm-226 -265c-4,0 -7,3 -7,7l0 226c0,4 3,7 7,7l226 0c4,0 7,-3 7,-7l0 -226c0,-4 -3,-7 -7,-7l-226 0z"/>
    <path class="fil2" d="M1299 2000l-2 -1c-7,0 -13,-4 -16,-10 -21,-37 -52,-70 -52,-70 -8,-9 -8,-22 1,-30 8,-8 21,-7 29,1 1,1 23,24 43,54 32,-33 98,-99 170,-141l0 49c-83,55 -156,139 -157,140 -4,5 -10,8 -16,8l0 0z"/>
   </g>
  </g>
 </g>
</svg>
