<svg width="31" height="43" viewBox="0 0 31 43" fill="none" xmlns="http://www.w3.org/2000/svg">
<path d="M29.6114 10.7023C29.4583 10.1286 29.1475 9.51738 28.9175 8.98222C26.1661 2.36977 20.1542 0 15.2998 0C8.80147 0 1.64427 4.35744 0.688721 13.3392V15.1742C0.688721 15.2508 0.715114 15.9387 0.752604 16.2828C1.28826 20.5632 4.66587 25.1124 7.1884 29.3929C9.90228 33.979 12.7183 38.4904 15.5083 42.9999C17.2286 40.0571 18.9428 37.0756 20.6239 34.2089C21.0821 33.3677 21.614 32.5269 22.0727 31.7239C22.3784 31.1892 22.9624 30.6546 23.2292 30.1571C25.943 25.1885 30.3112 20.1815 30.3112 15.2507V13.225C30.3113 12.6904 29.6486 10.8175 29.6114 10.7023ZM15.4188 19.914C13.5086 19.914 11.4178 18.9589 10.3857 16.3211C10.232 15.9012 10.2444 15.0597 10.2444 14.9826V13.7977C10.2444 10.435 13.0996 8.90584 15.5836 8.90584C18.6416 8.90584 21.0066 11.3524 21.0066 14.4104C21.0066 17.4683 18.4768 19.914 15.4188 19.914Z" fill="#EA4335"/>
</svg>
