<?xml version="1.0" encoding="UTF-8"?>
<!DOCTYPE svg PUBLIC "-//W3C//DTD SVG 1.1//EN" "http://www.w3.org/Graphics/SVG/1.1/DTD/svg11.dtd">
<!-- Creator: CorelDRAW X7 -->
<svg xmlns="http://www.w3.org/2000/svg" xml:space="preserve" width="46.0375mm" height="59.2667mm" version="1.1" style="shape-rendering:geometricPrecision; text-rendering:geometricPrecision; image-rendering:optimizeQuality; fill-rule:evenodd; clip-rule:evenodd"
viewBox="0 0 4119 5303"
 xmlns:xlink="http://www.w3.org/1999/xlink">
 <defs>
  <style type="text/css">
   <![CDATA[
    .fil1 {fill:#EBEBEB}
    .fil0 {fill:#EBEBEB}
   ]]>
  </style>
 </defs>
 <g id="Capa_x0020_1">
  <metadata id="CorelCorpID_0Corel-Layer"/>
  <path class="fil0" d="M0 0l4119 0 0 5303 -4119 0 0 -5303zm98 126l3923 0 0 5051 -3923 0 0 -5051z"/>
  <polygon class="fil1" points="1752,502 2680,502 2680,625 1752,625 "/>
  <polygon class="fil1" points="1752,814 3598,814 3598,937 1752,937 "/>
  <polygon class="fil1" points="1752,1122 3598,1122 3598,1245 1752,1245 "/>
  <polygon class="fil1" points="1752,1368 3598,1368 3598,1491 1752,1491 "/>
  <polygon class="fil1" points="1752,1615 3598,1615 3598,1738 1752,1738 "/>
  <polygon class="fil1" points="1752,1861 3598,1861 3598,1984 1752,1984 "/>
  <polygon class="fil1" points="1752,2107 3598,2107 3598,2230 1752,2230 "/>
  <polygon class="fil1" points="1752,2353 3598,2353 3598,2476 1752,2476 "/>
  <polygon class="fil1" points="1752,2599 3598,2599 3598,2723 1752,2723 "/>
  <polygon class="fil1" points="1752,2846 3598,2846 3598,2969 1752,2969 "/>
  <polygon class="fil1" points="1752,3092 3598,3092 3598,3215 1752,3215 "/>
  <polygon class="fil1" points="1752,3338 3598,3338 3598,3461 1752,3461 "/>
  <polygon class="fil1" points="1752,3584 3598,3584 3598,3707 1752,3707 "/>
  <polygon class="fil1" points="1752,3830 3598,3830 3598,3954 1752,3954 "/>
  <polygon class="fil1" points="1752,4077 3598,4077 3598,4200 1752,4200 "/>
  <polygon class="fil1" points="1752,4323 3598,4323 3598,4446 1752,4446 "/>
  <polygon class="fil1" points="1752,4569 3598,4569 3598,4692 1752,4692 "/>
  <polygon class="fil1" points="1752,4815 3598,4815 3598,4938 1752,4938 "/>
  <path class="fil1" d="M540 549l800 0c34,0 62,28 62,62l0 786c0,34 -28,61 -62,61l-800 0c-34,0 -62,-27 -62,-61l0 -786c0,-34 28,-62 62,-62zm54 114l692 0 0 682 -692 0 0 -682z"/>
  <path class="fil1" d="M540 1648l800 0c34,0 62,27 62,61l0 786c0,34 -28,62 -62,62l-800 0c-34,0 -62,-28 -62,-62l0 -786c0,-34 28,-61 62,-61zm54 113l692 0 0 682 -692 0 0 -682z"/>
  <path class="fil1" d="M540 2746l800 0c34,0 62,28 62,62l0 786c0,34 -28,61 -62,61l-800 0c-34,0 -62,-27 -62,-61l0 -786c0,-34 28,-62 62,-62zm54 114l692 0 0 682 -692 0 0 -682z"/>
  <path class="fil1" d="M540 3845l800 0c34,0 62,27 62,61l0 786c0,34 -28,62 -62,62l-800 0c-34,0 -62,-28 -62,-62l0 -786c0,-34 28,-61 62,-61zm54 113l692 0 0 682 -692 0 0 -682z"/>
 </g>
</svg>
