<svg width="362" height="239" viewBox="0 0 362 239" fill="none" xmlns="http://www.w3.org/2000/svg">
<path fill-rule="evenodd" clip-rule="evenodd" d="M234.437 105.569C246.592 105.569 256.446 115.423 256.446 127.578C256.446 139.732 246.592 149.586 234.437 149.586C222.283 149.586 212.429 139.732 212.429 127.578C212.429 115.423 222.283 105.569 234.437 105.569ZM125.339 105.569C137.494 105.569 147.346 115.423 147.346 127.578C147.346 139.732 137.494 149.586 125.339 149.586C113.183 149.586 103.33 139.732 103.33 127.578C103.33 115.423 113.183 105.569 125.339 105.569ZM125.339 54.6352C137.494 54.6352 147.346 64.4892 147.346 76.6439C147.346 88.7986 137.494 98.6525 125.339 98.6525C113.183 98.6525 103.33 88.7986 103.33 76.6439C103.33 64.4892 113.183 54.6352 125.339 54.6352ZM125.339 0.243103C137.494 0.243103 147.346 10.097 147.346 22.2518C147.346 34.4065 137.494 44.2604 125.339 44.2604C113.183 44.2604 103.33 34.4065 103.33 22.2518C103.33 10.097 113.183 0.243103 125.339 0.243103ZM234.437 54.9506C246.592 54.9506 256.446 64.8045 256.446 76.9593C256.446 89.114 246.592 98.9679 234.437 98.9679C222.283 98.9679 212.429 89.114 212.429 76.9593C212.429 64.8045 222.283 54.9506 234.437 54.9506Z" fill="#003764"/>
<path fill-rule="evenodd" clip-rule="evenodd" d="M201.414 80.1258L201.413 80.1246C199.614 90.471 190.591 98.3384 179.731 98.3384C167.576 98.3384 157.722 88.4856 157.722 76.3297C157.722 64.3013 167.373 54.5266 179.355 54.3258L179.353 54.3246C196.877 53.2368 212.429 41.7695 212.429 22.8813C212.429 10.7266 222.283 0.87262 234.437 0.87262C246.592 0.87262 256.446 10.7266 256.446 22.8813C256.446 35.036 246.592 44.8899 234.437 44.8899C212.48 45.725 204.507 60.3718 201.414 80.1258Z" fill="#FF9E1B"/>
<path fill-rule="evenodd" clip-rule="evenodd" d="M0.11499 238.325L0.30395 172.3H8.41579L30.5744 208.402L52.5583 172.489H60.6701L60.8579 238.325H52.7461V187.58L31.2134 221.335L29.9662 221.336L8.60355 187.769L8.41579 238.514L0.11499 238.325Z" fill="#003764"/>
<path fill-rule="evenodd" clip-rule="evenodd" d="M157.663 165.981H149.928V187.032C134.861 187.789 115.287 184.261 115.38 212.997C115.474 241.734 139.232 238.613 149.928 238.232H157.663V165.981ZM149.928 192.655V232.197C126.821 232.704 123.587 229.201 123.115 212.641C122.645 196.182 128.097 192.581 149.928 192.655Z" fill="#003764"/>
<path fill-rule="evenodd" clip-rule="evenodd" d="M361.693 228.583V238.514L347.567 238.505C339.298 238.821 332.444 231.214 332.382 225.588V174.315H342.987V187.409H361.693V198.026H342.987V221.201C343.004 226.87 345.285 228.528 349.406 228.583H361.693Z" fill="#003764"/>
<path fill-rule="evenodd" clip-rule="evenodd" d="M281.398 219.053C278.813 195.469 290.47 188.187 302.839 187.575C316.197 186.915 328.896 193.251 326.202 214.301L295.255 224.366C296.793 227.076 300.194 228.26 304.499 228.705H321.665V238.514H299.972C284.443 236.649 282.119 225.068 281.398 219.053ZM304.625 197.408C310.024 197.408 314.024 198.595 315.491 208.053L292.606 215.135C291.845 198.082 298.107 197.408 304.625 197.408Z" fill="#003764"/>
<path fill-rule="evenodd" clip-rule="evenodd" d="M230.377 238.514V187.251H252.119C263.17 186.668 273.278 190.284 273.859 201.776V238.373H263.532L263.484 208.662C263.516 200.172 258.43 197.885 255.938 198.003H241.224V238.373C241.224 238.373 230.377 238.373 230.377 238.514Z" fill="#003764"/>
<path fill-rule="evenodd" clip-rule="evenodd" d="M66.4304 218.288C64.7875 196.683 74.0958 187.995 86.4666 187.457C98.4111 186.939 110.191 190.939 109.855 213.406L75.8898 224.318C77.2387 227.406 80.593 230.948 87.7268 232.336L107.535 232.288L107.582 238.467L85.7461 238.514C70.217 236.649 67.1509 224.302 66.4304 218.288ZM87.8934 194.301C97.6434 193.957 102.302 199.346 102.445 209.043L74.0308 217.952C72.4977 197.964 78.1434 194.646 87.8934 194.301Z" fill="#003764"/>
<path fill-rule="evenodd" clip-rule="evenodd" d="M167.82 187.58H175.554V238.514H167.82V187.58ZM171.687 164.927C174.591 164.927 176.945 167.28 176.945 170.185C176.945 173.089 174.591 175.443 171.687 175.443C168.782 175.443 166.428 173.089 166.428 170.185C166.428 167.28 168.782 164.927 171.687 164.927Z" fill="#003764"/>
<path fill-rule="evenodd" clip-rule="evenodd" d="M212.275 208.697C213.016 208.697 213.75 208.711 214.479 208.737V203.503H214.48C214.386 192.81 198.473 193.642 187.725 196.599L186.142 189.354C216.669 181.855 222.813 194.307 221.978 203.503V238.473H214.479C213.752 238.5 213.016 238.514 212.275 238.514C195.813 238.514 182.846 238.631 182.469 223.605C182.091 208.58 195.813 208.697 212.275 208.697ZM214.479 214.254C200.84 214.079 190.36 213.003 190.151 223.329C189.942 233.654 200.79 232.575 214.479 232.402V214.254Z" fill="#003764"/>
</svg>
