<?xml version="1.0" encoding="UTF-8"?>
<!DOCTYPE svg PUBLIC "-//W3C//DTD SVG 1.1//EN" "http://www.w3.org/Graphics/SVG/1.1/DTD/svg11.dtd">
<!-- Creator: CorelDRAW X7 -->
<svg xmlns="http://www.w3.org/2000/svg" xml:space="preserve" width="147.509mm" height="147.446mm" version="1.1" style="shape-rendering:geometricPrecision; text-rendering:geometricPrecision; image-rendering:optimizeQuality; fill-rule:evenodd; clip-rule:evenodd"
viewBox="0 0 17213 17206"
 xmlns:xlink="http://www.w3.org/1999/xlink">
 <defs>
  <style type="text/css">
   <![CDATA[
    .fil0 {fill:black}
    .fil1 {fill:#008893}
   ]]>
  </style>
 </defs>
 <g id="Capa_x0020_1">
  <metadata id="CorelCorpID_0Corel-Layer"/>
  <g id="_2296514636464">
   <path class="fil0" d="M16722 6164c-319,-746 -770,-1405 -1353,-1978 -585,-580 -1253,-1023 -2004,-1331 -746,-307 -1530,-461 -2353,-461 -349,0 -722,34 -1119,101 865,523 1585,1198 2160,2026 855,1232 1283,2590 1283,4074 0,1497 -428,2856 -1283,4075 -830,1195 -1923,2055 -3279,2580 -833,320 -1690,480 -2573,480 -1303,0 -2510,-332 -3621,-997l0 12 86 78 0 7 78 71 11 0 0 7 52 45 0 7 104 78 0 11 59 53 12 0 7 18 7 0 56 52 15 8 52 48 11 0 0 7 52 41 0 8 8 0 41 29 7 8 212 163 15 19 15 7 56 38 14 15 34 26 7 0 45 29 15 15 104 71 7 7 101 63 41 34 70 37 63 48 53 0 104 93 44 23 86 55 7 0 71 49 807 398 7 0 368 148 8 0 70 30 8 0 319 112 11 0 60 22 7 0 1019 249 7 0 93 19 8 0 104 14 7 0 101 15c416,57 818,86 1204,86 387,0 788,-29 1205,-86l7 0 93 -15 11 0 7194 -7193 0 -26 8 -38 0 -7 7 -48 0 -23 8 -18 0 -52 7 -34 33 -271 0 -34 8 -44 22 -814c-10,-818 -173,-1598 -491,-2339z"/>
   <path class="fil1" d="M13633 1606l-48 -33 -8 -8 -7 0 -156 -108 -19 -7 0 -11 -67 -45 -11 0 -15 -15 -52 -33 -11 0 -78 -56 -8 0 -122 -78 -19 -15 -108 -56 -7 -14 -22 -8 -56 -30 -8 0 -368 -204 -15 0 -156 -78 -11 -8 -7 0 -242 -111 -7 0 -56 -22 -8 -8 -7 0 -335 -134 -7 -7 -41 -8 -320 -107 -7 -8 -134 -41 -41 -7 -130 -41 -7 0 0 -8 -19 0 -30 -7 -15 -7 -922 -197 -48 0 -63 -15 -298 -30c-218,-27 -413,-41 -587,-41l-922 7 -710 79 -7198 7197 0 22 -7 41 0 15 -7 22 0 41 -8 8 0 15 -15 163 -7 34 -15 163 0 23 -8 29 0 64 -11 33 -7 249 -8 0 -7 483c15,821 182,1603 502,2346 317,746 768,1407 1353,1982 583,572 1249,1012 2000,1320 746,307 1528,461 2346,461 268,0 526,-15 773,-45l354 -56c-860,-510 -1583,-1186 -2168,-2026 -218,-317 -400,-627 -546,-929l-101 -227 -15 -26c-406,-917 -609,-1881 -609,-2893 0,-1479 424,-2837 1271,-4074 199,-270 410,-528 636,-773 751,-808 1632,-1408 2643,-1800 350,-129 665,-225 945,-290 532,-124 1075,-186 1628,-186 1304,0 2513,329 3629,985l-71 -70 -15 -8 0 -7 -7 0 -134 -134 -8 0 -290 -256 -15 -12 -7 -7 -56 -45 -7 0 0 -7 -49 -34 0 -7 -211 -164 -8 0 -7 -7 -30 -22 -7 -11 -41 -23 -8 -7 -22 -15 -15 -7 0 -8z"/>
  </g>
 </g>
</svg>
