<?xml version="1.0" encoding="UTF-8"?>
<!DOCTYPE svg PUBLIC "-//W3C//DTD SVG 1.1//EN" "http://www.w3.org/Graphics/SVG/1.1/DTD/svg11.dtd">
<!-- Creator: CorelDRAW X7 -->
<svg xmlns="http://www.w3.org/2000/svg" xml:space="preserve" width="382px" height="246px" version="1.1" style="shape-rendering:geometricPrecision; text-rendering:geometricPrecision; image-rendering:optimizeQuality; fill-rule:evenodd; clip-rule:evenodd"
viewBox="0 0 99764143 64416788"
 xmlns:xlink="http://www.w3.org/1999/xlink">
 <defs>
  <style type="text/css">
   <![CDATA[
    .fil1 {fill:black}
    .fil2 {fill:#008893}
    .fil0 {fill:#028D9E}
   ]]>
  </style>
 </defs>
 <g id="Capa_x0020_1">
  <metadata id="CorelCorpID_0Corel-Layer"/>
  <g id="_2669084072752">
   <g>
    <path class="fil0" d="M8291698 58899285c0,458969 -84628,917628 -211570,1292895 -126633,375267 -338513,708837 -592088,959015 -296198,291874 -592396,500356 -973223,625445 -380517,166785 -845972,250178 -1311117,250178l-3257563 0 0 2126820 -1946137 0 0 -4295029 5372647 0c296198,0 550083,-83392 719339,-250178 169256,-167094 253884,-417272 253884,-709146 0,-291874 -84628,-542052 -253884,-708837 -169256,-166785 -423141,-250178 -719339,-250178l-5372647 0 1269112 -2209905 3934588 0c507459,0 930600,83393 1311117,250178 380827,166786 677025,375267 973223,625445 253575,291874 465455,625445 592088,1000712 126942,416963 211570,833926 211570,1292585z"/>
    <path class="fil0" d="M13490456 55598482c1513731,0 2648797,337585 3405508,1055071 757020,717176 1135375,1814253 1135375,3332925 0,1518981 -378355,2658372 -1135375,3375548 -714706,675172 -1891777,1054762 -3405508,1054762 -1513422,0 -2648797,-379590 -3405508,-1054762 -756711,-717176 -1135066,-1856567 -1135066,-3375548 0,-1518672 378355,-2615749 1135066,-3332925 756711,-717486 1892086,-1055071 3405508,-1055071zm0 6582149c504680,0 925040,0 1261391,-84320 294345,-42314 588690,-168947 799025,-295580 210025,-168639 336041,-421905 462365,-674863 84011,-295580 126016,-675171 126016,-1139390 0,-463910 -42005,-801496 -126016,-1096767 -126324,-295581 -252340,-506533 -462365,-675172 -210335,-168638 -504680,-253266 -799025,-295272 -336351,-84628 -756711,-84628 -1261391,-84628 -462366,0 -882726,0 -1219077,84628 -336350,42006 -588690,126634 -799025,295272 -210025,168639 -378355,379591 -462365,675172 -84011,295271 -126325,632857 -126325,1096767 0,464219 42314,843810 126325,1139390 84010,252958 252340,506224 462365,674863 210335,126633 462675,253266 799025,295580 336351,84320 756711,84320 1219077,84320z"/>
    <polygon class="fil0" points="25796428,61985121 24537817,64153638 19084248,64153638 19084248,55730365 20972010,55730365 20972010,61985121 "/>
    <path class="fil0" d="M28782193 64153638l1122094 -2170061 1537822 0c207864,0 374031,0 581895,0 207864,0 374031,41696 540199,41696 -83084,-166785 -207555,-333879 -332335,-584366 -83084,-208481 -207864,-417272 -290948,-625753l-1122094 -2253454 -2868089 5591938 -2285884 0 3948486 -7595215c124780,-250486 290948,-458968 498812,-667758 207864,-208482 457115,-292183 748062,-292183 290948,0 540508,83701 706676,250486 207864,208791 374031,417272 498811,709455l3865094 7595215 -7148601 0z"/>
    <path class="fil0" d="M45538860 64153638l-2591349 0 -1337061 -2210213 -2967234 0 0 2210213 -1922663 0 0 -4295029 5391179 0c292492,0 543287,-83392 752387,-250178 208790,-167094 292492,-417272 292492,-709146 0,-291874 -83702,-542052 -250796,-708837 -208790,-166785 -459895,-250178 -794083,-250178l-5391179 0 1253669 -2209905 3970416 0c376193,0 710381,41388 1086575,125089 376193,125089 752387,250178 1044879,500356 292491,208482 543287,542052 752077,917319 209100,375267 292801,875623 292801,1501067 0,291875 0,625445 -83701,917628 -83393,291874 -209100,542052 -334497,792230 -125089,250178 -292492,416963 -501283,583748 -209099,166786 -417889,291875 -668685,375267 83393,83393 208790,250178 334188,416963 125398,166786 292492,375267 501591,667450l1170277 1626156z"/>
    <path class="fil0" d="M89629777 64153638l-2591040 0 -1337371 -2210213 -2967233 0 0 2210213 -1922663 0 0 -4295029 5391179 0c292801,0 543287,-83392 752387,-250178 208790,-167094 292491,-417272 292491,-709146 0,-291874 -83701,-542052 -250795,-708837 -208791,-166785 -459586,-250178 -794083,-250178l-5391179 0 1253978 -2209905 3970107 0c376193,0 710381,41388 1086575,125089 376193,125089 752386,250178 1044878,500356 292492,208482 543288,542052 752387,917319 208791,375267 292492,875623 292492,1501067 0,291875 0,625445 -83701,917628 -83393,291874 -208791,542052 -334497,792230 -125089,250178 -292184,416963 -501283,583748 -209099,166786 -417890,291875 -668685,375267 83393,83393 208790,250178 334497,416963 125089,166786 292183,375267 501282,667450l1170277 1626156z"/>
    <polygon class="fil0" points="48039403,64153638 46196735,64153638 46196735,55730365 48039403,55730365 "/>
    <path class="fil0" d="M55048708 59107767c750842,0 1334591,208790 1709858,584057 416963,375267 625444,959015 625444,1709549 0,458659 -83392,833926 -166785,1167497 -83393,333570 -250178,625753 -458659,875931 -208482,250178 -500356,416963 -833927,542052 -333570,125089 -750533,166785 -1209193,166785l-5754709 0 1250890 -2168517 4670605 0c208481,0 375266,-41696 500355,-125089 83393,-83392 125089,-250178 125089,-458659 0,-250178 -41696,-375267 -125089,-500356 -125089,-83392 -291874,-125089 -500355,-125089l-3377711 0c-375266,0 -750533,-41696 -1042716,-166785 -291875,-125089 -500356,-291874 -708838,-500356 -166785,-208481 -333570,-458659 -416963,-750533 -83392,-292183 -125089,-625754 -125089,-1001021 0,-375267 41697,-750533 125089,-1084104 125089,-291874 291874,-583748 500356,-792230 208482,-250178 458968,-416963 792230,-542052 333879,-125089 750842,-208482 1209502,-208482l5379133 0 -1250889 2209905 -4253333 0c-250178,0 -416963,41696 -500356,125089 -125398,83393 -166785,250178 -166785,458659 0,208482 41387,375267 166785,458660 83393,83393 250178,125089 500356,125089l3335705 0z"/>
    <path class="fil0" d="M69755770 61985121l-1268186 2168517 -3128768 0c-549773,0 -1056924,-83392 -1522070,-291874 -422831,-250178 -845663,-542361 -1183866,-917319 -338203,-375575 -592088,-834235 -761035,-1376287 -211570,-500356 -296198,-1084104 -296198,-1709549 0,-584057 84628,-1167805 296198,-1668161 168947,-500356 422832,-959015 761035,-1292586 338203,-375267 761035,-667141 1183866,-875622 465146,-166786 972297,-291875 1522070,-291875l4396954 0 -1268186 2209905 -3128768 0c-253884,0 -507459,41696 -718721,166785 -211570,83393 -422831,208482 -592087,416963 -169256,166786 -295890,375267 -380518,625754 -84628,249869 -126942,542052 -126942,833926 0,291874 42314,583749 126942,833927 84628,250177 211262,458659 380518,625444 169256,166785 380517,333571 592087,416963 211262,83393 464837,125089 718721,125089l4396954 0z"/>
    <path class="fil0" d="M75349562 55598482c1513422,0 2648797,337585 3405508,1055071 756710,717176 1135066,1814253 1135066,3332925 0,1518981 -378356,2658372 -1135066,3375548 -756711,675172 -1892086,1054762 -3405508,1054762 -1513731,0 -2648797,-379590 -3405508,-1054762 -756711,-717176 -1135375,-1856567 -1135375,-3375548 0,-1518672 378664,-2615749 1135375,-3332925 756711,-717486 1891777,-1055071 3405508,-1055071zm0 6582149c462366,0 882726,0 1219076,-84320 336351,-42314 631005,-168947 799025,-295580 210335,-168639 378356,-421905 462366,-674863 84010,-295580 168330,-675171 168330,-1139390 0,-463910 -84320,-801496 -168330,-1096767 -84010,-295581 -252031,-506533 -462366,-675172 -168020,-168638 -462674,-253266 -799025,-295272 -336350,-84628 -756710,-84628 -1219076,-84628 -504371,0 -883035,0 -1219386,84628 -336350,42006 -630695,126634 -840721,295272 -210335,168639 -336350,379591 -420361,675172 -126324,295271 -168329,632857 -168329,1096767 0,464219 42005,843810 168329,1139390 84011,252958 210026,506224 420361,674863 210026,126633 504371,253266 840721,295580 336351,84320 715015,84320 1219386,84320z"/>
    <polygon class="fil0" points="99764143,62122565 98216746,64416788 90551111,64416788 90551111,55598482 99764143,55598482 98146635,57892705 93012429,57892705 93012429,58968161 99342238,58968161 97935682,60975453 93012429,60975453 93012429,62122565 "/>
   </g>
   <g>
    <g id="_2296514636464">
     <path class="fil1" d="M72815044 17418558c-901258,-2107981 -2175930,-3970416 -3823398,-5589468 -1653027,-1639129 -3540789,-2890945 -5662977,-3761317 -2107980,-867283 -4323444,-1302469 -6649172,-1302469 -986195,0 -2040031,96056 -3162125,285388 2444331,1477903 4479111,3385123 6104032,5725058 2415915,3481488 3625417,7319093 3625417,11512507 0,4230168 -1209502,8070553 -3625417,11515286 -2345495,3376784 -5434111,5807215 -9266157,7290678 -2353834,904346 -4775617,1356520 -7270910,1356520 -3681939,0 -7092697,-938322 -10232275,-2817436l0 33975 243074 220218 0 19768 220218 200760 31195 0 0 19767 147018 127251 0 19767 293728 220218 0 31195 166785 149798 33975 0 19767 50962 19767 0 158137 146709 42623 22856 146709 135590 31195 0 0 19768 147018 115823 0 22547 22547 0 115823 82157 19767 22547 599192 460512 42314 53742 42314 19767 158137 107484 39843 42314 96056 73509 19767 0 126942 81849 42623 42314 293728 200760 19767 19767 285388 177904 115823 96056 197980 104704 177905 135590 149797 0 294037 262841 124162 64861 243074 155667 19767 0 200760 138370 2280325 1124565 19767 0 1039937 418198 22547 0 197981 84937 22546 0 901567 316583 30887 0 169565 62081 19767 0 2879825 703587 19767 0 262841 53742 22547 0 293728 39534 19767 0 285388 42314c1175836,161226 2311520,243074 3402419,243074 1093679,0 2226892,-81848 3405199,-243074l19767 0 262841 -42314 31195 0 20328961 -20326489 0 -73200 22546 -107484 0 -19767 19768 -135590 0 -65170 22855 -50654 0 -147018 19767 -96056 93277 -765976 0 -96056 22547 -124163 62081 -2300401c-28107,-2311520 -488928,-4515556 -1387406,-6609637l-309 0z"/>
     <path class="fil2" d="M64085998 4538412l-135590 -93276 -22547 -22547 -19768 0 -440745 -305155 -53742 -19767 0 -31195 -189332 -127251 -31195 0 -42314 -42314 -147018 -93277 -30886 0 -220528 -158137 -22546 0 -344999 -220527 -53433 -42314 -305155 -158137 -20076 -39843 -62081 -22547 -158137 -84628 -22547 0 -1039937 -576645 -42623 0 -440746 -220218 -30886 -22856 -20076 0 -683819 -313494 -19767 0 -158138 -62082 -22546 -22855 -19768 0 -946660 -378665 -19768 -19767 -116131 -22547 -904038 -302375 -19767 -22547 -378665 -115823 -115823 -19767 -367545 -115823 -19767 0 0 -22856 -53742 0 -84628 -19767 -42314 -19767 -2605557 -556569 -135590 0 -177904 -42314 -842266 -84937c-615870,-76289 -1167187,-115823 -1658895,-115823l-2605248 19767 -2006364 223307 -20340388 20337608 0 62082 -19768 115823 0 42314 -19767 62390 0 115823 -22855 22547 0 42314 -42315 460821 -19767 96056 -42314 460513 0 64861 -22547 82157 0 180684 -31195 93276 -19767 703587 -22547 0 -19767 1364859c42314,2320168 514255,4529764 1418601,6629405 895699,2108289 2170062,3975975 3823398,5600896 1647468,1616581 3529361,2859749 5651549,3730121 2107980,867592 4317885,1302778 6629405,1302778 757329,0 1486551,-42314 2184578,-127251l1000094 -158137c-2430123,-1441148 -4473243,-3351457 -6126270,-5725058 -616179,-896007 -1130433,-1771939 -1543072,-2625323l-285388 -641506 -42314 -73509c-1147112,-2591349 -1720977,-5315199 -1720977,-8175257 0,-4179206 1198074,-8016811 3591751,-11512198 562437,-763197 1158540,-1492110 1797266,-2184578 2122188,-2283104 4611612,-3978754 7468582,-5086332 989283,-364766 1879422,-635946 2670417,-819719 1503538,-350249 3037962,-525373 4600493,-525373 3685028,0 7101345,929673 10255131,2783460l-200760 -197980 -42314 -22547 0 -19767 -19767 0 -378664 -378664 -22547 0 -819410 -723354 -42623 -33975 -19767 -19767 -158137 -127251 -19767 0 0 -19767 -138370 -96056 0 -19767 -596412 -463601 -22547 0 -19767 -19768 -84937 -62081 -19767 -31195 -115823 -64861 -22547 -19767 -62081 -42314 -42623 -19767 0 -22856 0 309z"/>
    </g>
   </g>
  </g>
 </g>
</svg>
