<?xml version="1.0" encoding="UTF-8"?>
<!DOCTYPE svg PUBLIC "-//W3C//DTD SVG 1.1//EN" "http://www.w3.org/Graphics/SVG/1.1/DTD/svg11.dtd">
<!-- Creator: CorelDRAW X7 -->
<svg xmlns="http://www.w3.org/2000/svg" xml:space="preserve" width="1128px" height="1533px" version="1.1" style="shape-rendering:geometricPrecision; text-rendering:geometricPrecision; image-rendering:optimizeQuality; fill-rule:evenodd; clip-rule:evenodd"
viewBox="0 0 486 660"
 xmlns:xlink="http://www.w3.org/1999/xlink">
 <defs>
  <style type="text/css">
   <![CDATA[
    .fil0 {fill:#00A859}
   ]]>
  </style>
 </defs>
 <g id="Capa_x0020_1">
  <metadata id="CorelCorpID_0Corel-Layer"/>
  <path class="fil0" d="M451 139c0,0 0,-1 0,-1 0,0 0,0 0,0 -2,-1 -4,0 -5,-1 -1,-1 -2,-1 -4,-1 0,1 0,0 0,0 -1,0 -1,0 -1,0 0,0 0,-1 0,-1 1,0 2,0 2,0 1,-1 2,-1 1,-2 0,-1 0,-2 0,-3 0,0 1,-1 1,0 0,0 0,0 1,0 0,1 1,3 2,4 0,1 1,2 2,2 1,0 1,0 2,0 2,0 2,0 2,-2 0,-1 0,-2 0,-3 0,-2 -1,-3 -1,-4 0,0 0,-1 0,-1 -1,-1 -2,-3 -4,-4 0,0 -1,0 -1,-1 0,0 -1,-1 -1,-1 0,-1 0,-2 0,-3 0,0 0,0 0,0 0,-1 1,0 1,0 0,0 0,0 0,1 0,1 1,2 2,3 1,1 1,2 2,2 1,0 1,0 1,-1 0,0 1,-1 1,-2 0,0 0,-1 1,-1 0,-1 0,-2 -1,-2 -1,-1 -2,-1 -2,-2 -1,0 -1,0 -1,-1 0,0 0,0 0,0 0,0 0,0 0,0 -1,0 -2,-1 -2,-1 -1,0 0,0 0,0 0,0 0,0 0,0 0,0 1,0 1,0 0,0 1,1 1,1 0,0 0,0 0,0 0,0 0,0 0,0 1,0 1,1 1,1 1,0 2,0 3,0 1,-1 2,-1 3,-1 0,0 1,-1 1,-1 0,-1 0,-1 0,-2 0,0 0,-1 0,-1 -1,0 -2,-1 -3,-1 0,0 0,-1 0,-1 0,0 0,0 0,0 2,1 3,1 4,0 0,0 1,0 1,0 2,0 2,-3 1,-3 0,-1 -1,-2 -1,-2 0,-1 0,-1 -1,-1 0,-1 0,-1 0,-1 0,0 1,0 1,0 0,0 1,0 1,0 1,-1 1,-1 1,-2 0,-1 0,-2 0,-3 0,0 0,-1 -1,-1 -1,-1 0,-2 0,-2 1,0 1,-1 0,-1 0,-1 -1,0 -2,-1 0,0 0,0 -1,0 0,0 0,-1 0,-1 0,-1 0,-1 0,-2 1,1 1,1 1,1 0,0 0,0 0,0 0,0 0,0 0,0 0,0 0,0 -1,-1l0 0c1,0 2,-1 2,-2 1,0 1,0 2,0 0,0 0,0 0,0 1,1 2,2 2,4 0,1 0,2 0,3 0,0 1,0 1,0 0,0 0,-1 0,-1 0,-2 0,-3 1,-4 1,-1 1,-3 1,-4 0,-1 -1,-1 -1,-2 -1,0 -2,0 -2,0 0,0 -1,0 -1,-1 0,0 0,0 0,0 0,0 0,0 0,0 2,-1 2,-1 1,-2 0,-1 0,-1 -1,-2 0,0 -1,0 -1,-1 0,0 0,0 0,0 0,0 0,0 0,0 2,0 2,0 3,-1 0,-2 1,-3 1,-5 0,-4 1,-7 4,-10 1,-1 1,-1 2,-2 0,-1 0,-1 0,-1 0,-2 0,-2 1,-2 1,0 2,-1 2,-2 0,0 0,-1 0,-1 -1,0 -1,0 -1,-1 -1,0 -1,0 -2,0 0,0 0,0 0,0 0,0 0,0 0,-1 1,0 2,0 2,1 1,0 2,0 3,-1 1,0 1,0 2,0 0,0 0,-1 0,-1 0,-1 0,-1 0,-1 0,-1 0,-1 0,-1 1,0 2,0 3,-1 0,0 1,-1 1,-1 2,-1 2,-2 1,-4 0,-1 -1,-1 -1,-1 -1,-2 -4,-3 -6,-3 -1,0 -3,1 -4,1 0,0 0,0 -1,1 0,0 0,1 0,1 0,0 -1,1 -1,0 -1,0 -1,0 -2,0 0,-1 -1,0 -1,0 -1,2 -3,3 -6,4 -1,1 -2,1 -3,2 0,0 0,0 0,0 -1,0 -1,0 -1,1 -1,0 -1,0 -1,0l0 1 0 -1c0,0 0,0 1,0 0,-1 0,-1 0,-1 0,0 1,0 1,0 0,-1 0,-1 0,-1 1,-1 2,-2 3,-3 2,0 3,-1 3,-3 0,0 0,-1 1,-1 1,-3 -1,-4 -3,-4 0,0 0,0 -1,0 0,0 0,1 0,1 0,0 -1,1 -1,2 0,1 -1,1 -2,1 0,0 0,0 0,0 -2,-1 -3,0 -5,0 0,0 0,0 0,0 0,0 0,-1 0,-1 1,0 2,0 3,-1 0,0 1,0 1,-1 0,-1 0,-1 -1,-1 -1,-1 -2,-1 -3,-1 -4,-1 -5,-1 -9,1 -1,0 -1,0 -2,1 -1,0 -1,0 -2,0 0,0 -1,0 -1,0 0,0 0,-1 0,-1 1,0 1,0 2,0 1,-1 3,-1 4,-2 3,-1 5,-1 8,-1 2,1 3,1 5,1 2,0 3,-1 5,-1 2,0 3,-1 5,-2 1,-1 1,-2 0,-3 -1,-1 -2,-1 -3,-2 -2,-1 -3,-2 -5,-1 -1,0 -1,0 -1,0 0,0 -1,0 -1,0 0,0 0,0 1,0 0,0 0,-1 1,-1 1,0 1,-2 0,-3 0,0 -1,-1 -1,0 -3,1 -5,0 -8,-1 0,0 -1,0 -2,0 -1,0 -2,0 -3,1 -1,0 -3,0 -4,0 -1,0 -2,0 -3,1 0,0 -1,0 -1,0 0,0 0,0 0,0 0,0 0,-1 0,-1 0,0 1,0 1,0 1,-1 2,0 3,-1 2,0 4,0 7,0 1,-1 3,-1 4,0 2,1 3,0 5,-1 0,0 0,0 0,-1 -1,-1 -2,-2 -4,-3 -3,0 -6,-1 -9,-2 -1,-1 -2,-1 -4,-1 -1,0 -3,1 -4,0 -1,1 -2,2 -3,3 0,0 0,0 0,0 0,0 0,0 0,0 0,0 0,0 0,0l0 0c0,1 0,1 0,1 0,0 0,0 0,0l0 0 0 0c0,0 0,0 0,0 -1,0 -2,0 -3,-1 0,0 0,0 0,0 0,0 0,1 0,1 0,0 0,0 0,1 0,0 0,0 0,0 0,1 -1,1 -1,1 -1,-1 -2,-1 -3,-2 -1,-1 -2,-1 -3,0 0,0 -1,1 -2,1 0,0 -1,0 -1,1 0,1 0,2 0,2 0,1 0,1 -1,2 0,0 0,1 -1,1 0,0 0,0 0,0 -1,0 -2,-1 -3,-1 0,0 -1,1 -1,1 0,0 0,1 0,1 0,2 0,3 1,5 0,1 0,3 1,5 0,1 0,1 -1,1 0,0 -1,0 -1,-1 0,-1 -1,-1 -2,-1 0,0 0,-1 1,-1 0,0 0,-1 0,-1 -1,-1 -1,-1 -2,-2 0,-2 -1,-3 -1,-4 -1,-1 -1,-1 -2,-2 -1,0 -2,0 -2,1 0,0 0,0 0,1 -1,1 -1,3 -1,4 0,1 0,2 0,2 0,1 -1,1 -2,1 0,0 0,0 0,0 -1,0 -1,0 -1,0 0,0 -1,0 -1,0 0,-1 1,-2 1,-2 -1,-2 0,-3 -1,-4 0,-1 0,-1 0,-2 0,0 0,0 0,0 0,0 -1,0 -1,0 0,1 0,2 0,2 0,1 0,2 0,2 -1,1 -1,1 -2,2 0,0 0,0 0,0 0,0 0,0 0,0 0,1 0,1 -1,1 0,0 0,1 -1,1 0,0 0,0 0,0 0,0 0,1 0,1 0,-1 0,-1 0,-1 0,0 0,0 0,0 0,0 1,-1 1,-1 0,0 1,0 1,-1 0,0 0,0 0,0 0,0 0,-1 0,-1 0,-1 1,-2 1,-3 0,-1 0,-2 0,-3 0,0 -1,-1 -1,-1 -1,1 -2,1 -2,1 -2,0 -3,1 -4,1 -2,0 -4,0 -6,0 -1,0 -1,1 -1,2 0,0 0,1 0,1 0,0 0,0 0,0 -1,0 -1,0 -1,0 0,0 0,-1 -1,-1 0,0 -1,0 -2,0 0,0 -1,1 -1,2 0,0 0,0 0,1 -1,1 0,2 -1,2 0,1 -1,2 -1,2 -1,0 -1,1 -1,1 0,0 -1,0 -1,0 -1,-1 -2,-1 -3,-1 -2,1 -3,1 -4,2 -1,1 -2,2 -3,2 -1,0 -1,1 -1,1 -2,1 -2,2 -3,3 -1,1 -1,2 0,3 1,0 2,0 3,1 0,0 0,0 0,0l1 -1 0 1c0,0 -1,0 -1,0 1,0 1,0 1,0 0,1 0,1 -1,1 0,1 -1,1 -1,2 0,1 0,1 -1,1 0,1 -1,2 -2,3 0,1 -1,1 -2,1 -1,-1 -3,-1 -5,-1 -1,0 -1,0 -2,1 -1,0 -1,0 -2,1 -2,0 -4,0 -6,1 -2,0 -3,1 -4,2 0,1 0,2 1,3 1,1 1,3 2,4 0,0 0,0 0,0 0,-1 0,-1 1,-1 -1,1 -1,1 -1,1 0,0 0,0 0,0 0,0 0,0 0,0l0 0c0,0 1,1 1,2 0,1 1,1 2,1 1,0 1,-1 2,0 1,0 2,0 2,0 1,0 1,0 1,0 0,0 1,0 1,1 0,0 -1,0 -1,0 0,0 -1,0 -1,0 -2,0 -3,-1 -5,0 -1,1 -1,1 -2,0 -1,0 -2,1 -2,1 -1,1 -2,2 -1,3 1,1 1,2 3,3 0,0 0,0 -1,0 0,1 -1,1 -1,1 0,0 0,1 0,1 0,2 1,3 3,4 1,1 2,1 2,0 1,-1 1,-1 2,-1 0,1 1,1 1,1 0,1 0,1 1,1 1,-1 3,0 5,-1 0,0 0,0 0,0 2,1 3,1 5,3 1,0 2,1 4,2 0,1 0,1 1,2 0,0 0,0 0,1 0,0 0,1 -1,2 0,1 0,2 1,3 0,0 0,1 0,1 0,1 0,2 0,2 -1,0 -1,0 0,1 0,0 0,0 1,0 0,0 0,1 0,1 0,0 0,1 0,1 -1,0 -1,1 0,1 0,1 0,1 0,1 0,1 -1,1 0,1 0,1 0,1 0,2 0,1 0,2 0,2 1,1 0,2 0,3 0,0 0,0 0,0 0,1 1,1 1,1 0,1 0,1 -1,1 0,0 -1,0 -1,1 -1,0 0,0 0,1 0,0 1,0 0,0 -1,1 -1,2 -1,3 0,0 0,0 1,0 0,0 0,0 0,0l0 0 0 0c0,0 0,0 0,0 -1,0 -1,1 -1,1 0,0 0,0 0,0 0,0 0,0 0,0l0 0c0,1 -1,2 -2,3 0,0 0,1 1,2 1,1 2,1 4,0 0,-1 0,-1 1,-1 0,-1 1,-1 1,0 0,0 0,0 1,0 0,0 0,0 0,0 0,0 0,0 0,0l0 0c0,0 0,0 0,0 0,1 0,1 0,1 -1,0 -1,1 -2,2 0,0 0,1 1,1 0,0 0,0 1,0 0,1 0,1 0,2 0,0 0,0 0,1 0,0 0,0 0,0 0,0 0,0 0,0 1,0 1,0 1,1 0,0 0,1 0,1 0,0 0,0 0,0 -1,-1 -1,-2 -1,-2 0,0 0,0 0,0 0,0 0,0 0,0 -1,0 -3,-1 -4,-1 0,0 -1,0 -2,-1 0,0 -1,1 -1,2 0,0 0,0 0,0 0,1 0,1 0,1 0,1 0,1 -1,1 0,0 -1,1 -1,1 0,1 0,2 0,3 0,1 1,3 2,4 0,0 0,0 0,0 2,0 3,0 5,-1 0,0 1,-1 0,-2 0,0 0,-1 -1,-1 0,-1 -1,-1 -1,-2 0,0 0,0 0,0l0 0 0 0c0,0 0,0 0,0 2,1 4,2 6,2 0,0 1,1 0,1 0,0 0,1 -1,1 0,0 0,0 0,0 0,0 0,0 0,0l0 0c0,0 0,1 0,1 -1,1 0,1 0,2 0,0 0,0 -1,1 0,0 -1,0 -1,0 0,2 -1,3 -3,2 -1,0 -1,1 -2,1 0,1 0,1 1,2 0,0 0,0 0,0l0 0 0 0c0,0 0,0 0,0 -1,0 -1,0 -2,0 0,0 0,0 -1,0 0,1 0,1 0,2 -1,0 -2,1 -2,1 0,1 0,2 -1,3 0,0 0,1 0,1 0,1 0,1 1,2 0,0 0,0 0,0 0,0 0,0 0,0 0,0 1,0 1,0 0,0 0,0 0,0 0,0 0,0 0,0 0,0 0,0 0,0 0,0 0,0 -1,0 0,0 0,0 0,0 0,1 -1,1 -1,2 -1,1 -1,2 -1,3 1,0 1,1 1,2 0,0 0,1 0,1 1,2 1,4 1,6 0,0 0,0 0,1 0,0 1,0 1,0 1,0 2,0 3,0 0,0 0,-1 0,-1 0,0 0,0 0,0 0,0 0,0 0,0 0,0 0,0 0,0 0,0 0,0 0,1 0,0 0,0 0,0 -1,0 -1,1 -2,1 -1,1 -1,2 -1,3 0,1 0,3 1,4l0 0 0 0c0,0 0,0 0,0l0 0c0,0 1,1 1,1 1,0 1,1 0,2 0,0 0,0 0,1 1,1 1,2 2,3 0,0 0,1 0,2 -1,0 -1,0 0,1 0,0 1,1 1,1 1,1 2,1 2,3 0,0 0,0 1,0 0,0 1,0 2,-1 0,0 1,0 1,0 1,0 2,0 2,1 0,1 0,2 1,3 0,0 0,0 1,1 0,0 0,0 1,0 1,0 2,1 2,1 1,0 2,-1 2,-1 1,-2 1,-3 2,-5 0,-1 1,-2 2,-3 0,-1 1,-2 1,-3 0,-1 0,-1 0,-2 0,0 0,0 0,0 0,0 0,0 0,0 0,0 0,0 0,0 0,-1 0,-1 0,-1 0,0 0,0 0,0 0,0 0,1 0,1 0,0 0,0 0,0 0,0 0,0 0,0 1,-1 2,-1 2,-2 1,-1 2,-2 3,-3 1,-1 2,-3 1,-4 0,-1 0,-1 0,-2 1,0 1,0 1,0 0,-1 1,-1 0,-1 0,-1 0,-1 0,-1 0,-1 0,-1 1,-1 1,0 1,-1 1,-1 1,-1 2,-2 3,-2 1,1 3,0 4,0 1,0 1,0 1,-1 1,0 1,0 1,0 2,0 4,-1 6,-3 0,0 0,0 1,0 1,0 2,-1 2,-2 1,-2 3,-3 4,-4 1,-2 3,-2 4,-4 1,0 2,0 3,0 0,0 1,0 1,-1 1,0 1,0 1,0 1,0 2,0 3,0 1,-1 3,-1 4,-1 3,-1 5,-2 7,-3 3,-2 5,-4 8,-6zm7 41c2,-1 4,-2 6,-3 0,0 1,0 1,-1 1,-1 2,-1 4,-1 0,-1 1,-1 1,-1 0,-1 1,-1 1,-2 0,0 1,0 1,-1 -1,-1 0,-2 0,-3 0,0 0,0 0,0 0,0 0,0 0,0 0,-1 -1,-1 -1,-1 -1,-1 -1,-2 -1,-2 0,-1 -1,-1 -1,-2 0,0 0,0 -1,0 0,0 -1,0 -1,-1 -1,0 -1,0 -2,0 -1,2 -3,2 -4,2 -1,-1 -1,0 -2,0 -1,-1 -2,0 -3,1 0,0 0,0 0,0 -1,0 -1,-1 -1,-1 0,0 -1,0 -1,0 0,0 0,1 0,2 0,0 -1,1 -1,1 -1,0 -1,0 -1,0 0,0 0,1 0,1 0,0 0,0 0,0 0,0 0,0 0,-1 0,0 0,0 0,0 -1,0 -1,-1 -1,-2 0,-1 0,-1 -1,-2 0,0 0,0 0,-1 -1,-1 -2,-1 -3,0l0 1 0 -1c0,0 0,0 0,0l0 0c-1,1 -2,1 -2,1 -1,1 -1,2 -2,3 0,1 0,2 1,1 0,0 1,0 1,0 1,0 2,0 3,1 0,0 0,0 0,0 0,1 -1,2 -1,2 -1,0 -2,0 -3,0 0,0 -1,1 -1,1 0,0 1,0 1,0 0,1 1,1 2,1 0,0 1,0 1,0 0,1 1,2 1,2 0,0 0,1 0,1 0,0 -1,0 -1,0 -1,0 -1,1 -1,1 0,1 0,2 1,2 1,0 1,0 2,0 1,0 2,0 3,1 2,0 3,1 4,1 1,0 2,0 2,0zm-196 -129c-1,1 -1,1 -1,2 0,1 0,2 -1,3 0,0 0,0 0,0 0,2 1,3 0,4 0,0 0,1 1,1 0,0 0,0 0,0 0,2 1,2 2,2 1,0 2,0 3,1 1,0 1,0 1,0 0,0 0,0 -1,1 0,0 -1,0 -1,0 -1,0 -1,1 -1,2 -1,0 -1,1 -1,1 0,1 1,1 1,1 1,1 2,1 3,1 1,1 3,0 3,-1 0,0 0,-1 0,-1 1,-1 2,-1 3,-1 0,-1 0,-2 1,-3 0,-1 1,-1 1,-2 0,0 0,0 0,0 1,-2 2,-3 2,-4 0,0 0,-1 0,-1 0,0 0,-1 0,-1 -1,-1 -1,-1 -1,-1 -1,1 -2,0 -3,-1 -1,0 -2,0 -3,0 0,1 -1,2 -1,2 0,1 0,2 0,3 0,0 0,1 0,1 0,0 0,0 0,-1 -1,-1 -1,-2 -2,-3 0,0 0,0 0,0 -1,0 -1,0 -1,0 -1,2 -5,7 -2,2 0,-1 0,-1 0,-1 0,-1 0,-2 0,-4 0,0 0,0 0,0 -1,-1 -1,-1 -1,-1 0,-1 -1,-1 -1,-1zm60 -20c0,1 0,2 0,3 0,1 0,2 0,3 0,1 0,2 -1,3 0,0 0,0 0,0 -1,1 -1,2 -1,2 0,0 0,0 0,0 0,1 1,1 1,1 0,0 0,1 0,1 1,0 1,0 1,0 1,0 1,0 1,0 0,0 0,0 0,0 0,0 0,0 0,0 1,1 1,1 1,1 0,0 -1,0 -1,0 0,0 0,0 0,0 0,0 0,-1 0,-1 0,0 0,0 0,0 0,0 0,0 -1,0 0,0 0,0 -1,0 0,0 0,-1 0,-1 0,0 -1,0 -1,-1 0,0 0,0 0,0 -1,0 -2,1 -2,1 -1,0 -1,0 -2,0 -1,0 -2,0 -3,0 0,2 -1,3 -2,4 -1,0 -1,1 -1,2 0,1 0,1 0,2 1,0 1,0 1,0 2,0 2,0 2,1 0,1 0,1 0,2 0,1 0,1 -1,2 0,0 0,0 0,0 0,0 -1,0 -1,0 0,-1 0,-2 0,-3 0,0 -1,-1 -1,-1 -1,-1 -2,-1 -3,0 0,0 0,0 -1,0 0,1 0,1 0,2 0,1 0,3 1,4 0,0 0,0 0,0l0 0c0,0 0,0 0,0 -1,0 -1,0 -1,0 -3,0 -5,1 -7,2 0,0 0,0 0,0 -1,0 -1,1 -1,1 -1,0 -1,0 -1,0 -1,-1 -2,-1 -2,-1 0,1 0,3 0,3 2,1 3,2 5,3 1,0 3,1 4,2 1,0 1,1 1,1 1,0 2,0 2,-1 0,0 1,0 1,0 0,0 0,0 0,0l0 -1 0 0c0,0 0,0 0,1 0,-1 1,-1 2,0 1,1 2,1 4,1 0,0 1,0 1,0 1,0 1,1 1,1 0,1 0,1 0,1 0,0 1,1 1,1 1,0 2,-1 3,-1 1,0 1,-1 2,0 1,0 2,-1 3,-2 0,-1 0,-1 1,-1 0,-1 0,-2 -1,-2 -1,-1 -1,-1 -1,-1 0,-1 0,-1 0,-2 0,0 1,0 1,0 1,-1 2,-1 3,-2 1,0 2,-1 2,-2 0,0 0,-1 0,-1 0,0 0,0 0,0 1,-1 1,-1 2,-1 1,1 2,0 4,0 0,0 1,-1 0,-1 0,-1 0,-1 0,-1 0,0 0,0 0,0 0,0 0,0 0,0 0,0 0,0 -1,0 1,0 1,0 1,0 0,0 0,0 0,0 0,0 0,0 0,0 1,0 3,0 3,-1 1,-1 1,-1 1,-2 1,0 1,-1 2,-1 0,-1 0,-2 0,-3 -1,0 -1,-1 -1,-1 0,0 0,0 0,0 0,0 0,0 0,0 0,0 0,0 0,0 0,0 0,0 0,0 1,0 1,0 2,0 1,1 1,0 1,-1 0,0 0,-1 0,-1 -1,-1 -1,-1 -2,-1 0,0 0,0 0,0 0,0 0,-1 0,-1 1,0 1,0 1,0 2,0 3,0 4,0 1,0 1,0 2,-1 0,0 0,-1 0,-1 0,0 0,0 0,1 1,0 1,0 1,0 2,1 3,1 4,-1 2,-2 3,-3 5,-4 1,-1 2,-1 3,-2 0,-1 1,-1 2,-1 2,-1 4,-2 6,-2 2,-1 4,-3 6,-4 0,0 0,0 0,-1 0,0 0,0 -1,-1 -1,0 -1,0 -2,0 0,0 0,0 0,0l0 0 0 0c0,0 0,0 0,0 1,-1 1,-1 2,-1 2,0 4,-1 6,-1 2,-1 4,-2 6,-3 0,0 0,0 0,0 1,-1 1,-1 1,-2 1,-1 1,-1 1,-2 0,-1 -1,-2 -1,-2 -1,0 -1,-1 -1,-1 0,-1 0,-2 0,-3 0,0 0,-1 -1,-1 0,0 -1,0 -2,-1 -1,0 -2,0 -3,1 0,0 0,0 -1,0 0,0 0,0 0,0 0,0 0,0 0,0 0,0 0,0 0,1 0,0 0,-1 -1,-1 1,0 1,0 1,0 0,0 0,0 0,0 0,0 0,0 0,0 1,-1 1,-1 2,-1 0,-1 0,-1 0,-2 -1,0 -1,0 -1,0 0,0 0,0 0,0 -1,0 -2,-1 -3,-2 -1,0 -2,0 -2,-1 0,0 0,-1 -1,-1 -1,0 -2,0 -3,0 -1,-1 -2,-1 -3,0 -1,0 -2,0 -2,-1 0,0 1,-1 0,-1 -1,0 -3,-1 -4,-1 -1,0 -1,0 -2,0 0,0 -1,1 -1,1 0,1 0,2 0,3 0,0 0,0 0,0 -1,0 -1,0 -1,0 0,0 0,-1 0,-1 0,0 0,-1 0,-1 0,0 -1,0 -1,0 -1,0 -2,-1 -2,-2 -1,0 -1,0 -1,0l0 0c-1,0 -1,0 -1,0 -1,0 -1,1 -1,2 0,0 0,1 0,1 0,1 0,1 0,1 0,0 -1,0 -1,0 0,-1 0,-2 -1,-3 0,0 -1,0 -2,1 0,1 0,1 -1,0 0,0 0,0 0,0 -1,0 -2,0 -2,1 1,1 0,2 0,2 -1,1 -1,1 -1,2 -1,0 -2,0 -2,0 -1,-1 -1,-3 -2,-4 0,0 -1,0 -1,0 -1,0 -1,0 -1,1 0,1 -1,1 -1,1 -1,0 -1,0 -1,0 0,1 -1,1 -1,1 1,1 1,2 2,3 0,0 0,0 0,0l0 0 0 0c0,0 0,0 0,0 -1,0 -2,0 -2,-1 0,0 -1,0 -2,0 0,0 0,0 -1,0 0,-1 0,-1 0,-1 -1,-1 -1,-1 -2,-1 0,1 -1,1 -1,1 0,1 0,1 -1,0 0,0 -1,0 -2,0 -1,0 -2,1 -4,2 0,0 0,0 -1,0 0,1 0,2 1,2 0,1 0,1 0,1 0,0 0,0 0,0 0,0 0,0 1,0 0,-1 0,-1 0,-1 0,0 0,0 0,0 1,0 1,0 0,0 0,0 0,1 0,1 0,0 -1,0 -1,0 0,0 0,0 0,0 0,0 0,1 1,1 0,1 0,1 0,1 -1,1 -1,1 -1,1 -1,1 -1,2 1,3 0,0 0,0 0,0 0,0 0,0 0,0 -1,0 -1,0 -1,0 -1,0 -1,1 -1,2 0,1 1,2 1,3 1,0 2,1 3,0 0,0 0,0 0,0 0,0 0,0 0,0 0,0 0,0 0,0 0,0 0,0 0,0 0,1 0,1 1,2 1,1 2,1 3,2 2,0 2,-1 3,-1 0,0 0,0 0,0 0,0 1,0 0,0 0,0 0,0 0,0 1,0 0,1 1,1 1,1 3,2 5,1 2,0 4,0 5,-2 0,-1 1,-1 1,-1 0,0 0,0 0,0l0 0c0,0 0,0 0,0 0,0 0,1 0,1 0,0 0,0 0,0 -1,1 0,1 0,1 1,1 2,1 2,1 1,0 1,0 1,0l0 0 0 0c0,0 0,0 -1,0 -2,0 -5,0 -8,1 -1,1 -2,1 -3,1 -1,-1 -2,-1 -3,-1 0,0 -1,1 -1,1 0,1 0,2 0,3 0,1 -1,1 -1,1 0,0 0,0 0,-1 0,-2 -2,-4 -4,-6 -1,0 -1,0 -1,0 0,0 -1,0 -2,0 -1,1 -1,2 -2,3 0,0 0,1 0,1zm-27 13c0,0 0,0 0,0 0,0 0,0 -1,-1 0,0 0,0 0,0l0 0c1,-1 1,-2 0,-3 -1,-1 -1,-2 -2,-3 0,-1 0,-1 0,-1 -1,-1 -2,-1 -2,-1 -2,2 -3,3 -3,6 0,1 0,1 0,2 -1,1 0,1 0,2 0,1 0,1 1,1 1,0 3,0 4,0 1,0 1,0 1,-1 1,0 1,-1 1,-2 0,0 0,0 0,0 0,1 0,1 0,1 0,0 1,0 1,0zm-19 -7c0,0 0,0 0,0 0,0 0,0 0,0 0,0 1,0 1,1 2,1 3,2 2,5 -1,0 0,1 0,1 1,1 2,1 2,1 2,-1 2,-2 3,-3 0,-2 0,-4 2,-5 0,0 0,-1 1,-1 0,-1 0,-2 -1,-3 0,0 0,-1 0,-2 0,0 0,0 0,0 0,-2 -1,-3 -3,-2 0,0 0,0 0,0 0,0 0,0 0,0 0,0 0,0 -1,0 0,0 1,0 1,0 0,-1 0,-2 0,-2 0,-2 -1,-3 -3,-3 0,0 -1,1 -2,0 0,0 -1,1 -1,1 -1,0 -1,1 -1,3 0,0 0,0 0,1 0,1 0,1 1,1 0,0 0,0 0,0 0,0 0,0 0,0 0,0 0,0 0,0 0,0 0,0 0,0 0,0 0,0 0,0 0,0 0,0 0,0 0,1 0,1 0,2 0,0 0,0 0,1 0,0 -1,1 -1,0 -1,0 -1,0 -2,0 0,-1 -1,0 -1,0 0,0 0,0 -1,1 0,1 1,2 2,2 0,0 1,0 2,1 0,0 0,0 0,0 0,0 0,0 -1,0 0,0 0,0 1,0zm-37 5c0,0 1,1 1,1 0,0 0,0 1,0 0,0 1,0 1,0 -1,-1 -1,-1 -1,-1 0,0 -1,0 -1,0 0,0 0,0 -1,0zm33 11c0,0 -1,0 -1,0 0,-1 -1,-1 -2,0 0,0 0,1 0,1 0,0 1,0 1,0 1,0 1,0 2,-1 0,0 0,0 0,0zm-18 13c1,0 1,0 2,-1 0,-1 0,-1 0,-2 0,0 -1,0 -1,0 -1,0 -2,1 -2,2 0,0 1,1 1,1zm10 14c0,0 1,0 1,-1 0,0 0,0 0,0 0,0 0,0 0,-1 -1,0 -2,0 -3,0 -1,0 -2,1 -2,2 0,0 0,0 0,0l0 0c0,0 0,-1 -1,-1 0,0 0,0 -1,0 -1,0 -1,0 -2,0 0,0 -1,1 -1,1 0,1 -1,1 -2,2 0,0 0,1 0,1 0,0 0,1 0,1 1,2 1,3 0,4 0,0 -1,1 -1,0 -1,0 -1,-1 -1,-2 0,-1 -1,-1 -2,-1 -1,0 -2,1 -2,2 0,2 0,3 -1,4 0,0 1,1 1,1 1,0 2,1 2,2 0,2 1,3 1,5 0,1 1,2 1,3 1,0 1,0 2,0 0,-1 1,-1 2,-2 0,0 1,0 2,-1 1,0 2,0 2,-1 1,0 1,0 1,-1 0,-1 1,-2 2,-3 1,-1 1,-2 1,-3 0,-1 -1,-1 -1,-2 0,-1 -1,-1 -2,-2 0,0 0,0 1,0 0,-1 1,-1 2,-1 0,0 1,-1 1,-1 0,-1 1,-1 1,-2 1,0 1,-1 1,-1 -1,-1 -1,-1 -2,-1 -1,0 -2,0 -2,-1 -1,0 -1,0 -2,0 0,0 0,0 0,0 1,0 2,0 4,0zm-16 -46c0,0 0,0 0,0l0 0c-1,1 -1,1 -1,2 0,0 0,1 0,2 1,0 1,1 2,1 0,1 0,1 1,1 1,0 1,0 2,0 1,0 1,0 2,-1 1,0 1,-1 1,-2 0,-1 1,-1 1,-1 1,0 2,-1 2,-1 0,0 0,-1 0,-1 0,0 0,0 0,-1 -2,0 -4,0 -6,-1 -1,0 -2,1 -4,1l0 0c0,0 0,0 0,0 0,1 0,1 0,1 0,0 0,0 0,-1 0,0 0,-1 0,-2 0,0 -1,-1 -1,-1 -1,0 -1,1 -1,1 0,1 0,2 0,2 0,1 1,1 2,1zm26 9c0,1 1,1 2,1 0,0 1,0 1,-1 0,-1 -1,-2 -2,-2 -1,0 -2,1 -1,2zm23 13c0,0 0,0 0,0 1,1 1,1 2,0 1,0 1,0 1,-1 0,-1 -1,-2 -2,-2 0,0 0,0 0,0 -1,1 -1,2 -1,3zm-2 -31c1,0 1,0 1,0 1,-1 2,-2 2,-3 0,0 0,0 0,0 -1,-1 -1,-1 -2,-1 -1,0 -2,1 -1,3 0,0 0,0 0,1zm-30 22c0,0 1,0 1,0 1,-2 1,-3 1,-5 0,0 0,-1 0,-1 0,0 0,0 -1,0 0,0 0,0 0,0 -1,1 -1,2 -2,3 0,1 0,1 0,2 0,0 1,1 1,1zm-38 0c0,0 0,0 0,0 0,0 -1,0 -1,0 -2,0 -4,1 -6,2 0,1 0,2 1,2 0,0 1,1 1,0 2,-1 3,-2 5,-3 0,0 0,-1 0,-1zm65 6c1,-1 2,-1 2,-1 0,-1 0,-1 0,-2 -2,-1 -3,-2 -6,-2 0,-1 -1,0 -2,1 0,0 0,1 1,1 1,2 3,2 5,3 0,0 0,0 0,0zm-38 -24c1,0 2,0 2,1 1,0 2,2 3,2 1,1 3,0 4,-2 0,0 0,-1 0,-1 0,-1 0,-1 0,-1 0,-1 -1,-2 -2,-2 -1,0 -2,1 -4,1 -1,0 -2,0 -2,0 -1,0 -1,0 -2,1 0,0 0,0 0,0 0,0 0,1 1,1zm22 38c0,0 0,0 0,0 0,0 0,0 0,0 0,0 0,0 0,0l0 0c-1,2 -2,3 -3,4 -1,0 -1,2 0,2 1,1 2,2 3,3 0,0 1,0 1,0 1,1 2,0 2,0 0,-1 1,-3 1,-4 0,0 0,-1 0,-1 0,-1 0,-2 -1,-3 0,-1 -1,-1 -2,-1 0,0 -1,0 -1,0zm-32 -9c-1,-1 -3,-1 -4,-1 0,0 0,-1 0,-1 1,-1 0,-2 0,-3 0,-1 0,-2 0,-3 0,-1 -1,-2 -2,-2 -1,0 -1,0 -1,-1 0,-1 0,-2 -1,-2 -1,0 -2,0 -3,0 -1,1 -2,2 -3,2 -1,1 -1,1 -1,2 0,1 -1,1 -2,1 0,1 -1,1 -1,2 0,0 0,0 0,0 0,1 1,1 1,1 1,0 1,1 0,1 0,0 0,0 0,0 -1,0 -2,0 -3,0 -1,0 -1,0 -2,1 0,1 0,2 1,2 0,1 1,1 2,1 1,1 2,2 4,2 0,-1 1,-1 1,0 1,0 2,0 3,0 0,0 0,0 0,0 0,1 0,1 0,1 -2,0 -4,0 -5,1 -1,0 -1,0 -1,1 0,1 0,2 1,2 0,1 1,1 2,1 0,0 1,0 2,0 2,0 3,0 4,-1 1,0 1,-1 2,-1 1,0 2,0 4,0 0,0 0,0 0,0 1,0 2,1 3,1 1,0 1,0 2,0 1,0 1,0 2,0 1,0 1,-1 2,-1 1,-1 2,-3 4,-4 0,0 0,-1 1,-1 0,-1 0,-3 -1,-4 -1,0 -1,0 -1,0 -1,0 -1,1 -1,1 -1,1 -1,1 -1,1 -1,-1 -2,-1 -1,-2 -1,-1 -1,-2 -1,-2 1,-1 1,-1 1,-2 0,-1 0,-2 1,-3 0,-1 0,-1 -1,-1 0,-1 -1,-1 -1,0 -1,0 -2,1 -3,2 -1,0 -1,1 -1,2 0,0 0,1 0,1 0,1 0,1 -1,2 0,0 0,0 0,0 -1,0 -1,1 -1,2 1,0 1,0 1,1 0,0 -1,1 -1,1zm-29 -14c2,0 2,1 3,1 1,0 1,1 2,1 0,1 1,1 1,1 1,-1 2,-1 2,-2 1,0 1,0 1,0 1,0 1,0 1,0 1,-1 1,-2 2,-3 1,-1 2,-1 2,-2 1,0 1,0 1,0 0,0 1,0 0,1 0,1 -1,2 -2,2 0,1 0,2 0,2 1,1 1,1 2,1 0,-1 1,-1 1,-1 0,-1 1,-2 2,-2 0,0 1,0 1,0 1,0 1,-1 1,-1 1,-1 3,-2 3,-4 0,0 0,-1 1,-1 0,0 0,0 1,0 0,0 0,-1 0,-1 0,-1 0,-1 0,-2 0,-1 0,-1 0,-1 -1,0 -1,0 -1,0 -1,1 -2,1 -2,1 -1,-1 -2,-1 -3,-1 -1,0 -2,0 -3,0 -3,2 -5,4 -9,5 -1,0 -1,1 -2,1 -2,0 -3,1 -4,2 -1,0 -1,1 -1,2 0,1 0,1 0,1zm99 32c-1,-1 -1,-1 -1,-2 0,0 -1,-1 -2,-1 -1,0 -3,0 -4,0 0,-1 -1,0 -1,0 -2,0 -4,0 -5,0 -1,0 -2,1 -3,-1 0,0 -1,0 -2,0 -1,-1 -3,-2 -3,-4 0,0 -1,-1 -1,-1 -1,0 -1,0 0,0 0,0 0,-1 1,-1 0,0 0,0 0,0l0 0 0 0c0,0 0,0 0,0 1,0 1,0 2,0 0,0 1,-1 1,-1 -1,0 -1,-1 -1,-1 -1,0 -1,-1 -1,-2 0,-1 -1,-2 -1,-2 -1,0 -2,0 -2,0 -1,0 -1,0 -2,-1 0,-1 0,-1 0,-2 0,0 0,-1 -1,-1 -1,-1 -2,-2 -3,-2 -1,-1 -2,-1 -3,0 -1,1 -1,1 -1,2 1,2 1,3 1,5 0,0 0,0 1,0 1,1 2,1 3,2 1,0 1,0 1,1 0,1 0,2 0,3 0,1 0,2 -1,2 -1,1 -1,1 -2,2 -1,2 -1,4 -1,6 0,1 2,1 3,2 0,0 0,0 0,0 1,1 2,1 3,0 0,0 0,0 1,0 0,0 0,0 0,0 0,1 0,1 0,2 0,0 1,1 1,1 1,0 3,0 4,0 3,0 5,2 8,2 0,0 1,0 1,0 1,1 2,1 4,1 0,0 1,0 2,0 0,0 1,0 1,0 1,-1 2,-2 3,-2 0,0 0,-1 0,-2 0,0 0,-1 1,-1 1,-2 0,-3 -1,-4zm-128 5c0,2 0,3 0,4 0,0 0,1 1,1 1,0 3,-1 4,-2 0,0 0,0 0,0l0 0 0 0c0,0 0,0 0,0 0,1 1,1 1,1 1,0 2,0 2,0 1,-1 1,-1 2,-2 0,0 0,-1 1,-2 1,0 2,-1 3,-1 1,0 1,-1 2,-1 0,-1 1,-2 2,-2 0,0 0,-1 1,-1 1,0 3,0 4,-1 1,0 1,0 2,0l0 0 0 0c0,0 0,0 -1,1 -1,1 -3,1 -5,2 -1,0 -2,1 -2,2 0,1 -1,1 -1,1 -1,0 -1,1 -2,1 0,1 -1,1 -1,2 0,1 0,2 0,2 0,0 0,0 0,1 1,0 1,1 2,1 1,0 2,0 3,0 0,0 0,0 1,0 0,1 -1,1 -1,1 -1,0 -3,0 -4,0 -1,0 -2,0 -2,1 -1,0 -1,1 -1,1 0,1 0,1 0,2 0,1 0,2 2,2 3,1 5,1 7,1 1,0 1,0 1,0 2,1 4,3 5,4 0,1 0,1 0,1 -1,0 -1,0 -1,0 -2,0 -4,-1 -6,-2 0,0 -1,0 -2,-1 -2,0 -4,0 -6,0 -1,0 -1,1 -2,2 0,1 0,2 0,3 0,2 1,3 3,4 1,0 2,1 3,1 0,0 0,1 0,1 0,1 0,1 -1,2 0,0 0,1 0,1 0,1 0,2 1,2 0,1 0,1 0,1 1,0 1,0 1,0 2,0 4,0 6,0 1,1 2,1 3,0 1,0 2,0 2,-1 1,0 2,-1 3,0 1,0 2,0 3,-1 1,0 1,-1 2,-1 0,0 0,0 0,0 0,0 1,1 1,1 0,0 0,1 1,1 1,0 0,2 1,2 0,0 0,0 0,0 2,1 3,1 4,2 2,0 3,0 5,0 0,-1 1,-1 1,-2 0,-1 1,-2 -1,-3 0,0 0,0 0,0 0,0 0,0 -1,0 0,0 0,0 0,0 0,0 0,0 0,0 1,0 1,0 1,0 0,-1 0,-1 0,-1 0,0 0,0 0,1 1,0 1,0 1,0 0,-1 0,-1 0,-1 1,-1 1,-1 1,-1 1,1 2,1 2,2 2,0 2,-1 3,-2 0,-1 0,-1 0,-2 -1,-1 -1,-1 -1,-2 -1,0 -1,-1 -1,-2 -1,-1 -1,-1 -2,-2 -1,-1 -1,-2 -1,-3 -1,-1 -1,-1 0,-2 1,-1 2,-3 2,-4 0,-1 0,-2 0,-2 1,-2 2,-4 2,-6 1,-1 1,-1 2,-2 1,-1 3,-2 4,-3 1,-1 1,-1 1,-2 0,-1 0,-2 -2,-3 -1,0 -1,0 -2,0 -1,0 -2,0 -3,1 0,0 0,1 0,2 0,1 0,2 0,2 0,0 0,1 0,1l0 0 0 0c0,0 0,0 0,-1 0,0 0,0 0,0 0,-1 -1,-1 -2,-2 0,0 0,0 -1,0 -1,-1 -2,0 -2,1 0,0 -1,1 -1,2 -1,1 -1,3 -2,5 -1,1 -1,3 -2,5 0,0 0,0 0,0 0,0 0,0 0,0 0,1 -1,1 -1,1 0,0 -1,-1 -1,-1 1,-1 1,-3 2,-4 1,-2 1,-4 0,-6 0,-1 0,-1 -1,-1 0,-1 -1,-1 -1,0 0,1 0,2 -1,3 0,0 0,0 0,0 -2,0 -3,0 -4,0 -1,0 -1,0 -1,0 0,0 1,0 1,0 0,-1 1,-1 2,-1 0,-1 0,-1 0,-2 -1,-1 -1,-2 -2,-3 -1,0 -2,0 -3,0 0,1 -1,1 -1,1 0,1 -1,1 -1,1 -1,0 -1,-1 0,-1 1,-1 1,-2 2,-3 0,-1 0,-2 -1,-2 0,0 0,0 0,-1l0 0c0,0 0,0 0,0 0,-2 0,-4 0,-6 -1,-1 -1,-2 -2,-3 -1,-1 -1,-1 -2,-1 -1,0 -2,0 -3,-1 -1,0 -1,-1 -2,-1 -1,-2 -2,-2 -3,-2 -2,0 -3,0 -4,0 -1,0 -2,0 -2,0 -1,1 -1,1 -1,2 -1,0 -1,1 -1,2 0,1 0,2 -1,2 -1,1 -2,2 -4,3 0,1 -1,1 -1,2 0,1 0,1 0,1 -3,1 -5,3 -7,5 0,0 -1,1 -1,1 0,1 1,1 1,2 1,1 1,1 1,2zm115 -34c1,0 1,0 2,0 1,0 2,0 3,1 0,0 1,0 1,0 1,-1 1,-1 1,-1l0 0c0,0 0,0 1,0 0,0 0,0 0,0 0,-1 1,-1 2,-2 1,-1 2,-1 2,-2 1,0 1,-1 1,-1 0,-1 1,-1 2,-1 0,0 0,0 0,0 0,0 0,0 0,0 0,0 0,0 0,0 0,0 0,0 0,0 0,1 0,1 1,1 0,0 0,0 1,0 0,0 0,-1 1,-2 1,-1 2,-1 2,-2 0,-2 0,-3 -1,-4 0,0 0,-1 0,-1 0,0 0,-1 0,-1 0,-1 1,-2 2,-2 0,-1 -1,-2 0,-3 0,0 0,-1 0,-2 0,-1 -1,-1 -2,-1 0,-1 -1,-1 -2,-2 0,0 0,0 0,-1 0,-1 0,-2 0,-3 0,-1 0,-2 0,-3 1,-2 0,-3 -1,-4 -1,0 -2,0 -3,0 0,0 -1,0 -1,1 0,0 0,1 1,1 0,0 1,0 1,0 0,1 0,1 0,1 0,0 0,0 0,0 -1,1 -1,1 -2,1 -1,0 -1,0 -2,0 -1,0 -1,1 -1,2 0,1 0,1 0,2 0,0 0,0 0,0 0,0 0,0 0,0 -1,0 -1,0 -2,0 -1,1 -2,1 -2,1 -1,0 -2,0 -1,1 0,1 0,1 1,2 0,1 1,1 1,2 0,0 0,0 0,0 0,0 0,0 0,0 0,0 0,0 1,0 -1,0 -1,0 -1,0 0,0 0,0 0,0 0,0 0,0 0,0 -1,0 -2,-1 -3,-1 0,0 0,0 -1,0 -1,3 -1,5 -2,7 -1,1 0,2 0,2 1,1 2,1 2,1 1,0 1,1 2,1 0,0 0,0 0,1 0,0 0,0 -1,0 0,0 0,0 0,0 -2,0 -3,1 -4,2 0,1 -1,3 -1,4 0,2 1,4 2,5zm-14 74c2,0 3,1 5,1 0,0 0,0 0,0 0,0 1,0 1,0 0,1 1,2 2,2 0,0 1,0 1,0 0,0 0,0 1,-1 -1,0 -1,0 -1,-1 0,0 0,0 0,0 -1,0 -1,0 -2,0 0,0 0,0 0,0l0 0 0 0c0,0 0,0 0,0 1,0 2,0 2,0 0,0 0,0 0,0 0,1 1,1 1,1 0,0 0,0 0,0 0,0 1,0 2,0 1,0 1,-1 1,-2 0,-1 0,-1 0,-2 0,0 0,0 0,0 0,0 0,0 0,0 -1,-1 -1,-1 0,-1 0,0 0,0 0,0 0,-1 0,-1 0,-1 0,0 0,1 0,1 0,0 0,0 0,0 0,0 0,1 0,1 0,0 0,0 0,0 0,0 0,0 0,0 1,1 2,1 3,1 0,1 0,1 0,1 0,0 0,0 0,1 0,0 -1,1 -1,1 0,1 1,2 1,2 1,2 1,3 2,4 0,0 0,1 0,1 -1,0 -1,0 -1,0 -1,1 -1,1 -1,1 0,0 0,1 0,1 2,0 3,-1 4,0 0,0 0,0 0,0 0,0 0,1 0,1 0,0 -1,0 -1,0 -1,1 -1,1 0,2 0,0 0,0 0,0 1,0 1,0 1,0 1,-1 2,0 2,1 0,0 1,0 1,0 1,1 1,2 1,3 0,2 0,3 0,4 0,1 -1,1 -1,2 -1,0 -2,0 -2,1 -1,1 -2,2 -3,3 -3,1 -3,1 -2,5 0,0 0,0 0,0 -2,0 -3,1 -4,1 -2,1 -3,1 -4,0 -1,-1 -2,-1 -2,-1 -1,0 -1,0 -1,0 -1,1 -2,2 -3,2 0,1 0,1 0,2 -1,0 -1,1 0,2 1,1 3,2 5,1 0,0 1,0 1,0 0,0 1,0 1,0 1,1 3,0 4,0 1,0 2,1 2,1 1,2 1,3 2,4 1,1 1,1 0,2 0,1 0,1 1,2 0,1 1,2 3,2 0,0 0,1 0,1 0,0 0,0 0,0l0 -1c1,1 1,1 2,2 1,1 2,3 4,3 1,0 1,1 2,1 1,0 2,1 2,1 0,0 1,0 1,0 0,-1 0,-2 0,-3 -1,-2 -2,-4 -4,-5 -1,-1 -1,-2 -1,-3 0,0 0,0 0,0 0,0 0,0 0,0 0,0 0,0 0,0 0,0 0,0 0,0 0,0 0,0 0,0 0,0 0,0 0,0 0,0 0,0 0,0 2,1 3,2 4,3 0,0 1,1 2,2 1,0 2,1 2,1 0,1 1,2 1,2 0,1 1,1 1,1 0,0 0,-1 0,-1 -1,-1 0,-2 0,-3 1,-1 1,-1 2,-2 0,0 1,-1 0,-2 0,0 0,0 0,-1 -1,-1 -1,-3 -1,-4 0,-1 0,-2 -1,-2 -1,-1 -1,-2 -2,-2 0,-1 -1,-1 -1,-2 1,-1 0,-2 -1,-3 0,0 0,-1 0,-1 0,0 0,0 0,0l0 0 0 0c0,0 0,0 0,0 1,0 1,0 1,0 1,0 1,0 2,-1 0,0 0,-1 0,-1 0,-1 1,-1 1,0 1,1 1,1 2,2 1,1 1,2 1,3 0,1 1,2 1,2 0,0 0,1 0,1 1,1 2,1 3,2 0,0 0,-1 0,-1 1,-1 1,-1 1,-2 0,-1 1,-1 1,-1 1,0 1,0 1,-1 2,0 3,-2 5,-3 0,-1 1,-1 1,-2 0,0 0,-1 0,-1 0,-1 -1,-2 -2,-2 0,0 -1,0 -1,-1l0 0c0,0 0,0 0,0 0,0 0,0 0,0 -1,0 -1,0 0,-1 0,1 0,1 0,1 0,0 0,-1 0,-1l0 0c0,0 -1,0 -1,0 0,0 0,0 -1,0 0,0 0,0 0,0 -1,0 -1,-1 -1,-1 0,-2 0,-2 0,-2 -1,-1 -2,-1 -2,-2 0,0 -1,-1 -2,-1 -1,0 -1,-1 -1,-1 -1,-2 -1,-3 -3,-3 0,0 0,0 0,-1 1,-1 2,-2 1,-3 0,0 1,-1 1,0 1,0 1,0 2,0 0,0 1,0 1,0 0,-1 0,-1 0,-1 0,-1 0,-1 0,-1 -1,0 -1,-1 -1,-2 1,-1 1,-1 1,-2 -1,-1 -1,-2 -1,-4 -1,-2 -2,-3 -4,-3 -1,0 -1,-1 -2,-2 0,0 0,0 0,-1 0,0 0,0 0,0l-1 1 0 -1c0,0 1,0 1,0 0,-1 0,-1 -1,-2 0,-1 0,-2 -1,-2 0,-1 -1,-1 -2,0 -1,0 -1,0 -1,-1 -1,-1 -2,-1 -2,0 0,0 -1,0 -1,-1 0,0 0,0 0,0 1,-1 1,-1 1,-2 0,0 0,0 0,0 0,-1 0,-1 -1,-1 0,-1 1,-1 1,-2 0,0 -1,-1 -1,-1 -2,-1 -3,-2 -4,-3 0,0 0,0 0,0 0,0 0,0 0,0l0 0c-1,0 -3,0 -4,1 -1,0 -2,0 -3,0 -1,-1 -2,0 -2,0 0,0 0,0 0,0 0,0 -1,1 -1,1 0,-1 0,-1 1,-1 0,0 0,0 0,0 0,-1 0,-1 0,-2 1,-2 1,-4 2,-5 0,-1 0,-1 0,-2 0,0 0,0 0,-1 0,-1 -1,-1 -2,-2 -1,0 -1,0 -2,0 -2,1 -3,1 -5,1 -1,0 -2,1 -3,2 -1,1 -1,1 -2,2 -1,1 -2,3 -1,4 0,1 0,1 0,1 -1,1 -2,1 -2,1 -1,1 -1,1 -1,2 0,1 1,2 1,3 0,0 0,0 0,0 0,0 0,1 0,1 0,0 -1,0 -1,0 -1,-1 -2,-4 -1,-5 0,0 0,0 0,0 0,-1 0,-2 1,-2 0,-1 1,-2 1,-3 -1,-1 0,-1 0,-2 1,0 1,-1 2,-1 1,-2 3,-3 5,-4 0,0 1,-1 1,-1 0,0 0,-1 0,-1 -1,0 -1,-1 -2,-1 -2,-1 -5,0 -7,1 -2,1 -3,2 -4,3 -1,1 -2,3 -4,4 0,0 0,1 -1,1 0,0 0,1 0,1 -1,1 -1,1 -1,2 -2,1 -2,3 -3,5 -1,1 0,2 1,2 1,1 2,1 3,2 0,0 1,0 1,1 0,0 0,0 0,0 0,0 -1,1 -1,0 -1,0 -1,0 -2,-1 -1,0 -2,0 -3,2 0,0 0,1 1,2 0,1 0,1 1,2 0,1 1,1 2,1 0,0 1,0 1,0 1,0 1,1 1,2 1,0 2,1 3,1 1,0 1,0 1,1 0,0 0,0 0,0l0 0c0,0 0,0 0,0 -2,0 -2,1 -3,2 0,1 -1,2 0,4 0,0 0,0 -1,0 0,1 0,1 -1,2 -1,0 -2,1 -2,2 0,1 -1,1 -1,2 0,0 -1,0 -2,0 0,0 0,0 1,0 -1,1 -1,1 -1,1 0,0 0,-1 0,-1 0,0 0,0 0,0 0,0 0,-1 0,-1 -1,0 -1,1 -2,2 0,0 0,1 0,1 1,1 0,1 0,2 0,0 -1,1 -1,0 -1,0 -1,0 -1,0 0,-1 -1,-2 -1,-3 0,-1 0,-3 2,-4 0,0 0,-1 0,-1 1,-2 0,-4 -1,-5 0,-1 -1,-1 -1,0 -1,1 -2,1 -2,3 0,0 -1,1 -1,1 0,0 -1,0 -1,0 0,0 0,0 0,0 0,-1 1,-3 1,-4 0,-1 0,-1 1,-1 0,-1 0,-1 0,-2 -1,0 -1,-1 -2,-1 -1,0 -2,0 -2,-1 0,0 -1,0 0,-1 0,0 1,-1 2,-2 0,0 0,0 1,0 1,-1 1,-1 1,-2 -1,-2 -1,-5 0,-7 0,-1 0,-1 0,-1 -1,-2 -1,-4 -1,-5 -1,-1 0,-1 0,-2 1,0 2,-1 3,-2 1,0 1,-1 1,-2 0,0 1,-1 1,-1 0,0 0,0 0,0 1,0 2,0 2,1 1,0 2,0 3,0 0,-1 0,-1 1,-1 2,-2 4,-4 6,-6 0,0 0,-1 1,-1 0,-1 0,-2 -1,-2 0,-1 0,-1 0,-1 -2,0 -4,-1 -5,-2 0,0 -1,0 -1,0 -2,-1 -3,-1 -4,0 -1,0 -1,0 -1,0 -1,1 -1,2 -2,2 -1,1 -1,2 -2,3 0,1 -1,2 -2,4 0,0 -1,1 -1,2 0,2 -1,4 -1,5 0,1 0,1 -1,1 -1,1 -1,1 -2,2 -1,0 -1,1 -1,2 0,0 0,0 0,0 0,0 0,0 0,0 0,0 0,0 1,0 -1,0 -1,0 -1,0 0,0 0,0 0,0 0,0 0,0 0,0 0,0 -1,0 -2,0 -1,1 -2,3 -3,5 0,1 0,2 -1,2 0,0 0,1 0,1 -1,1 -1,2 -1,3 0,1 0,1 1,2 0,1 0,1 0,2 1,0 1,0 2,0 0,0 1,1 2,2 0,0 0,0 0,0 0,0 0,0 0,0 -1,0 -1,0 -1,1 -1,0 -2,1 -2,2 -1,0 0,1 0,1 1,0 1,0 1,0 0,0 0,0 0,0l0 0 0 0c0,0 0,0 0,0 0,1 0,1 0,2 -1,0 -2,1 -2,2 -1,1 -2,1 -3,1 -2,0 -3,1 -3,2 0,1 0,2 0,3 0,0 -1,1 -1,1 0,0 0,0 0,0 0,-1 -1,-1 -1,-2 0,-1 0,-1 0,-2 1,-1 2,-2 2,-3 1,0 0,-1 0,-1 -1,0 -2,-1 -2,-2 0,0 0,0 0,0 0,0 0,0 0,0l0 0c0,0 0,0 0,0l0 0c1,0 1,0 2,1 0,0 1,0 1,0 1,-1 2,-1 3,-2 0,0 0,0 0,0 0,-1 0,-2 0,-3 0,-1 0,-1 1,-1 1,0 1,-1 1,-2 0,0 0,0 0,0 -2,0 -4,-1 -4,-3 0,0 0,0 -1,0 0,-1 0,-1 -1,-1 0,1 -1,1 -1,2 -1,1 -2,3 -4,3 -1,0 -1,0 -1,0 0,0 0,0 0,1 -1,0 -1,0 0,1 1,1 3,2 3,3l0 0c0,0 0,0 0,0 0,0 -1,1 -2,1 0,0 -1,0 -1,1 -1,0 -1,0 -1,1 -1,0 -1,0 -1,1 0,0 0,1 0,1 -1,0 -2,0 -2,0 -1,0 -1,-1 -2,-1 0,0 -1,0 -2,0 -1,0 -1,0 -2,0 0,0 -1,0 -1,0 -1,0 -2,-1 -2,-2 -1,-1 -2,-2 -3,-2 -1,0 -1,0 -1,-1 -1,-1 -1,-2 -1,-4 0,0 0,-1 0,-1 0,-1 -1,-2 -2,-2 -2,0 -4,1 -6,1 -1,0 -1,1 -2,1 0,1 0,2 1,2 0,0 1,1 1,0 0,0 0,0 1,0 0,0 1,0 2,0 1,-1 2,-1 2,-1 1,0 1,0 1,0 0,0 0,0 0,1 -1,0 -2,0 -2,0 -1,1 -2,2 -3,2 -1,0 -2,0 -2,0 -1,1 -1,1 -2,2 0,1 0,3 -1,4 0,0 0,1 0,1 0,0 -1,1 -1,1 -1,-1 0,-1 0,-2 0,0 0,-1 0,-2 -1,0 -1,-1 -1,-2 -1,-1 -1,-2 -2,-2 0,-1 -1,-1 -1,-1 -1,0 -1,0 -2,0 -4,1 -8,0 -11,-2 0,0 0,-1 0,-1 0,-1 1,-2 2,-2 0,0 1,0 1,0 2,0 3,-1 2,-2 0,-1 0,-2 0,-3 -1,-1 -2,-1 -3,-1 -2,0 -3,-1 -4,-1 -1,-2 -3,-3 -4,-4 -2,-1 -2,-2 -3,-3 0,-2 -1,-3 -3,-3 -1,-1 -2,-1 -3,0 0,1 -1,1 -1,2 0,0 -1,0 -1,0 -1,0 -1,-1 -1,-1 1,-1 1,-3 2,-5 0,0 0,0 -1,0 0,0 0,0 0,0 0,0 -1,0 -1,1 -1,0 -2,2 -3,2 -1,1 -1,1 -1,1 0,-1 -1,-1 -1,-1 0,-1 0,-2 0,-3 1,-2 1,-4 1,-6 0,0 0,-1 0,-1 0,0 -1,0 -1,0 -1,0 -1,1 -1,1 0,1 0,2 -1,2 -1,1 -2,1 -2,2 -1,0 -2,0 -2,-1 0,0 0,0 -1,0 0,0 0,0 0,0 0,0 0,0 0,0 0,0 0,0 -1,0 0,0 0,0 0,0 0,0 0,0 0,0 1,0 1,0 1,0 0,0 0,0 0,0 0,0 0,0 0,0 1,-1 1,-1 1,-1 0,-1 0,-1 -1,-1 -1,-1 -2,-1 -2,0 -3,0 -5,1 -7,1 0,0 -1,0 -2,1 -1,1 -2,1 -4,0 0,1 0,1 0,1l0 0 0 -1c0,0 0,0 0,0 0,0 1,0 1,0 0,0 0,-1 0,-1 -1,-1 -1,-1 -2,0 0,0 -1,0 -1,0 -1,0 -2,1 -3,1 -1,0 -2,1 -2,2 0,1 -1,1 -1,1 0,-1 -1,-1 -2,-1 0,-1 -1,-2 -1,-3 0,-1 -1,-1 -1,-2 0,-1 -1,-2 -1,-2 -1,-1 -2,-2 -3,-3 -2,-1 -4,-2 -4,-4 -1,0 -1,-1 -1,-1 0,0 -1,-1 -1,-1 -1,0 -1,0 -2,0 -1,0 -2,0 -3,-1 -1,-1 -2,-2 -4,-3 -1,0 -1,0 -2,-1 -1,-1 -1,-1 -2,-2 0,-1 -1,-2 -2,-2 -1,1 -1,1 -2,1 -1,0 -1,0 -1,-1 -1,-1 -1,-2 -1,-3 -1,0 0,-1 0,-1 0,0 0,0 0,-1 0,0 0,-1 -1,-1 0,0 -1,0 -2,0 0,-1 0,-1 -1,-1 0,0 -1,0 0,-1 0,-1 0,-1 -1,-2 0,0 0,0 0,1 0,-1 0,-1 0,-1 -1,1 -1,1 -2,1 0,0 0,0 0,0 0,0 0,0 0,0 0,0 0,1 0,1 -1,0 -1,1 -2,0 0,0 0,0 0,0 0,0 0,-1 0,-1 1,0 1,0 2,0 0,0 0,0 0,0 0,0 0,0 0,0 1,0 1,-1 2,-1 0,0 0,0 0,0 0,0 0,0 0,0 0,-1 -1,-2 -2,-2 0,-1 -1,-1 -1,-1 -1,1 -2,1 -3,2 -1,1 -2,1 -4,0 -1,0 -1,0 -2,-1 -2,0 -3,1 -4,2 0,0 0,0 0,1 0,0 -1,0 -1,0 -1,1 -2,1 -3,1 -2,-1 -4,0 -5,1 -2,1 -5,2 -7,5 0,0 -1,0 -1,0 -3,2 -5,3 -8,2 -1,-1 -1,-1 -1,-1 -1,0 -2,0 -3,1 0,1 -1,2 -2,2 -1,1 -1,2 0,4 0,1 0,2 0,2 1,3 2,6 0,8 0,1 0,2 1,2 0,0 1,1 2,1 0,0 0,1 0,1 0,0 0,0 0,0 -1,0 -1,0 -1,1 0,1 0,2 0,3 0,0 0,0 0,0 0,1 1,1 1,1 0,-1 0,-1 0,-1 0,0 0,0 0,0 0,0 0,0 0,0 0,0 0,0 0,0l0 0 0 0c0,0 0,0 0,0 2,-1 3,0 4,0 0,0 0,1 0,1 0,0 0,0 0,0 -2,0 -3,0 -4,-1 0,0 0,0 0,1 0,0 0,0 0,0 0,0 0,1 -1,1 0,0 -1,0 -2,1 -1,0 -1,0 -2,0 -1,-1 -2,-1 -3,-2 0,0 -1,-1 0,-1 0,-1 0,-1 1,-2 0,0 -1,-2 -1,-2 -2,0 -3,0 -4,1 0,0 -1,0 -2,0 0,1 -1,1 -2,1 0,0 -1,0 -2,0 -2,1 -3,2 -5,3 -1,0 -1,1 -1,1 1,1 2,2 2,3 1,0 0,1 0,1 0,0 -1,0 -1,0 0,2 -1,3 -1,4 0,1 0,1 0,2 1,1 2,2 4,2 2,0 3,0 4,1 1,0 2,1 3,0 1,0 2,-1 4,-2 0,0 1,0 1,0 0,1 0,1 0,1 0,0 0,0 0,0 0,0 0,0 0,1 -1,0 -2,0 -2,1 1,0 1,1 0,1 0,1 -1,2 -1,4 0,1 -2,2 -4,2 0,0 0,0 0,0 -1,0 -1,0 -2,-1 0,0 0,-1 -1,-1 0,0 0,1 0,1 -1,2 -2,3 -3,3 -1,0 -1,0 -1,0 0,-1 -1,-1 -1,-1 0,-1 -1,-1 -2,-1 -2,1 -3,2 -4,4 0,0 0,0 0,0 -3,2 -4,4 -7,6 -1,1 -2,2 -1,4 0,1 0,1 0,2 1,1 0,2 0,2 -1,1 -1,3 -1,4 0,1 1,2 1,3 0,1 0,1 1,1 0,0 1,1 2,0 1,0 2,0 3,0 0,0 0,0 0,0 0,0 0,0 0,0 0,-1 0,-1 0,-1 0,0 0,0 0,-1 0,0 0,0 0,1 0,0 0,0 0,1 0,0 0,0 0,0 0,0 0,0 0,0 0,1 -1,1 -1,2 0,1 0,2 -1,2 0,1 0,2 0,2 0,1 0,1 0,2 0,0 -1,1 -1,1 0,0 0,1 0,1 2,0 3,1 4,-1 0,0 0,0 0,0 1,1 2,2 3,3 0,1 0,1 1,0 0,0 0,0 0,0 1,-1 1,-1 2,0 0,0 1,0 1,0 0,0 1,0 1,0 0,0 1,0 1,0 0,0 0,0 0,0 -2,1 -2,2 -3,4 -1,3 -3,5 -6,7 -1,0 -2,1 -3,1 -2,1 -3,2 -5,3 -1,0 -2,1 -2,2 -1,0 -1,0 -2,0 -1,0 -2,0 -3,1 -1,0 -2,1 -3,2 -1,1 -3,2 -5,2 -1,0 -1,0 -2,0 -1,0 -2,1 -3,2 0,0 0,1 0,1 0,0 1,0 1,0 0,0 1,0 1,0 1,0 2,0 2,0 1,0 2,0 2,-1 1,-1 2,-1 3,-1 2,0 3,-1 4,-3 0,0 0,0 0,0l0 0 0 0c0,0 0,0 0,0 1,1 1,1 1,2 1,0 1,0 1,0 0,-1 0,-1 0,-1 2,0 3,-1 4,-1 1,0 1,1 1,0 1,0 2,-1 3,-1 1,-1 2,-1 3,-2 1,-1 2,-1 3,-2 0,0 1,0 1,0 0,0 0,-1 1,-1 1,0 1,0 2,-1 1,0 2,-1 2,-2 0,0 1,0 1,-1 2,-1 4,-2 6,-3 2,0 3,-1 4,-2 0,0 1,-1 1,-1 1,0 1,-1 2,-1 1,0 1,-1 0,-2 0,0 0,-1 0,-1 -1,-1 0,-1 0,-2 1,-1 2,-1 3,-1 1,0 1,0 2,0 1,-1 2,-1 2,-3 0,0 1,-1 2,-1 0,0 1,0 1,-1 1,-2 4,-3 6,-4 1,0 2,0 2,1 0,1 0,1 0,1 0,1 -1,1 -1,1 -1,-1 -3,-1 -4,0 -1,0 -1,1 -1,1 -1,2 -2,3 -4,5 0,0 0,1 0,2 0,0 0,0 0,0 -1,1 -1,1 -2,1 0,1 -1,1 0,2 0,0 0,0 1,0 0,0 1,0 2,0 1,-1 2,-1 3,-2 1,0 1,0 2,0 1,-1 2,-2 4,-1 0,0 1,-1 1,-1 1,0 1,-1 2,-1 0,-1 0,0 1,0 0,0 0,0 1,0 0,-1 0,-1 -1,-2 0,0 0,-1 -1,-1 0,-1 0,-2 1,-2 1,-1 1,-1 1,0 0,1 1,1 2,1 0,0 1,0 2,0 0,0 0,0 0,0l0 0 0 0c0,0 0,0 0,0 0,0 0,1 0,1 0,2 1,3 2,4 1,0 2,1 2,2 1,0 1,0 1,1 0,0 1,1 1,1 1,0 1,0 2,0 1,0 2,0 3,1 1,0 1,1 1,1 0,0 0,0 0,0l0 0 0 0c0,0 0,0 0,0 1,0 1,0 1,1 1,1 2,1 3,1 0,0 1,0 1,0 0,0 0,0 0,1 -1,0 -1,1 0,2 0,0 1,1 1,1 1,1 1,1 1,2 0,0 0,1 0,1 1,2 1,3 2,4 1,0 1,0 2,0 1,0 1,0 1,-1 0,0 0,-1 -1,-1 0,0 0,0 1,0 0,-1 0,-1 0,0 0,0 1,1 1,1 0,1 0,2 1,3 0,0 0,0 0,0 0,0 -1,0 -1,0 0,0 0,0 -1,0 0,-1 -1,0 -2,1 0,0 0,1 0,2 0,1 0,2 0,2l0 0c0,0 0,1 0,0 1,1 1,2 1,3 -1,1 -1,2 -1,4 0,0 1,0 1,0 0,0 0,0 0,0 1,-1 1,-2 2,-3 0,1 0,2 -1,4 0,0 0,1 1,1 0,0 0,0 1,0 0,0 0,0 0,0 0,0 0,0 0,0 0,-1 0,-1 0,-1 0,0 0,0 0,0 0,0 0,0 0,1 0,0 0,0 0,0 0,0 0,0 0,0 0,0 -1,1 0,1 0,1 0,1 0,2 0,0 0,1 0,1 -1,1 -1,1 0,2 0,1 0,2 1,3 0,0 0,0 0,0 0,0 1,0 1,0 0,-2 1,-3 1,-4 0,0 0,0 0,0 0,0 0,0 0,0 0,0 0,0 0,-1 0,0 0,0 0,1 0,0 0,0 0,0 0,0 0,0 0,0 0,0 0,0 0,0 0,0 1,0 1,0 0,0 0,0 0,0 0,0 0,0 0,0 0,0 0,0 0,0 0,0 0,0 0,0 0,0 0,1 1,1 0,0 0,0 0,0 0,0 0,0 0,1 0,0 0,0 0,0 0,0 0,0 0,0 0,0 0,0 0,0 0,0 0,0 0,0 0,-1 0,-1 0,-1 0,0 0,0 0,0 -1,1 -1,1 -1,2 0,1 1,1 1,1 0,0 1,0 1,1 1,0 1,0 1,0 -1,1 -2,2 -2,3 0,1 0,1 -1,1 0,0 0,0 0,1 1,1 1,1 0,2 -1,0 -1,0 -1,0 1,1 1,2 2,2 1,-1 2,-1 3,-1 0,0 0,0 0,0 0,0 0,1 0,1 0,0 -1,1 -1,1 -1,1 -1,2 -1,3 0,0 0,0 0,0 0,0 0,0 0,0 0,0 0,0 0,0 0,0 1,0 1,0 0,0 0,0 -1,0 0,0 0,0 0,0 1,1 2,2 2,2 1,1 1,1 1,2 0,0 -1,1 -1,1 0,0 0,0 0,0 0,0 0,0 0,0l0 0c0,1 0,1 0,1 0,1 0,2 0,2 0,0 0,0 0,1l1 2c1,0 1,1 2,2 0,0 1,1 2,1 0,0 1,1 2,1 0,0 0,0 0,1 0,1 0,2 0,2 0,1 0,1 0,1l1 0 -1 0c0,0 0,0 0,0l0 0c0,1 1,1 1,1 0,0 0,0 1,0 0,0 1,1 1,1 0,1 0,2 1,3 0,1 0,2 0,2 0,1 -1,1 -1,1 0,0 -1,0 -1,0 -1,0 -2,0 -3,-1l0 0c0,0 0,0 0,0 0,0 1,0 1,0 1,0 1,0 1,-1 0,-2 0,-3 0,-5 -1,0 -2,0 -2,-1 0,-1 0,-1 0,-2 -1,-2 -2,-3 -3,-3 -1,0 -2,-1 -3,-2 -1,0 -1,0 -2,-1 0,0 -1,0 -1,0 0,0 -1,0 -1,1 0,0 1,1 1,2 0,0 0,1 0,1 1,1 1,2 2,2 1,3 4,5 5,7 0,1 1,1 1,1l0 0c0,0 0,0 0,0 -1,1 -2,1 -2,3 0,1 0,3 0,5 0,2 0,4 -1,7 -1,2 -2,4 -2,6 -1,2 -2,4 -3,6 -1,2 -1,4 -1,6 0,0 0,1 0,1 0,2 0,4 -2,6 0,1 0,2 0,2 1,2 1,3 1,5 -1,0 -1,1 -1,2 1,0 1,1 1,1 0,1 1,2 1,3 0,1 1,1 1,1 1,1 1,1 1,1 0,1 -1,1 -1,1 0,1 0,1 0,2 1,1 1,2 1,3 0,1 0,1 0,1 1,2 1,3 2,5 0,1 1,1 0,2 0,1 1,2 1,2 3,0 5,2 7,3 1,1 2,3 2,4 0,2 1,3 1,5 1,2 2,5 3,7 0,1 0,2 1,3 1,1 2,2 3,4 0,0 0,1 0,2 -1,0 -1,1 -2,1 0,0 0,0 0,0 -1,0 -1,0 -1,1 1,1 2,2 3,3 2,0 3,2 4,3 1,0 1,1 1,2 0,0 0,1 0,2 0,1 0,1 1,2 2,2 4,4 6,6 0,1 1,1 1,0 1,0 1,-1 1,-1 0,-1 -1,-2 -2,-3 0,0 -2,-3 -2,-4 0,-1 -1,-1 -1,-2 0,-1 0,-2 0,-3 -1,-2 -2,-2 -2,-4 -1,-1 -2,-3 -3,-5 -1,-2 -2,-3 -3,-5 0,0 0,-1 0,-1 -1,-2 -1,-4 0,-6 0,-1 0,-1 0,-1 1,1 2,1 2,1 1,1 2,1 2,2 0,2 0,4 1,5 1,3 2,5 4,8 1,0 1,0 1,1 0,1 1,2 2,3 1,0 2,1 2,1 0,1 1,1 0,2 0,0 0,0 0,0 -1,1 0,2 0,2 1,1 2,1 3,2 1,0 1,1 1,2 0,0 1,1 1,1 4,5 5,7 7,12 0,0 0,1 0,1 0,1 -1,1 -1,2 -1,1 -1,2 0,4 1,1 2,2 3,2 1,0 2,1 3,2 1,1 2,2 3,2 0,0 1,0 2,1 0,0 1,0 1,0 2,2 4,3 6,4 1,0 2,1 3,1 2,1 3,1 4,2 5,1 5,1 10,-1 1,0 2,0 3,1 2,2 5,3 7,6 0,1 1,1 3,1 2,1 3,1 5,2 2,0 4,1 6,1 1,0 1,0 1,1 0,1 1,2 2,3 1,1 2,2 3,3 0,1 1,1 0,2 0,2 1,2 2,3 0,0 1,0 2,0 0,0 0,0 1,0 1,1 2,2 2,3 0,2 2,2 3,2 0,0 1,0 1,0 1,0 3,0 3,1 1,1 2,1 3,2 1,1 2,1 3,0 0,-1 0,-1 0,-2 0,0 0,-1 0,-1 1,-1 2,-2 3,-3 0,0 0,0 1,0 1,1 2,2 2,3 0,1 0,2 1,3 1,1 1,2 2,3 0,0 0,1 0,1 0,2 0,4 0,6 0,1 0,2 1,2 0,1 0,1 -1,2 0,1 -1,2 -3,3 -1,0 -2,2 -2,3 -1,1 -1,2 -2,2 -1,0 -1,1 -2,1 0,0 -1,1 -1,1 0,3 0,3 -2,6 0,0 0,0 0,0 0,2 0,3 0,4 0,2 1,2 2,3 0,0 0,0 0,-1 1,0 1,0 1,0 0,0 0,0 0,0 0,1 0,2 -1,2 -1,1 -1,1 -2,2 -1,1 -2,2 -1,4 0,0 0,1 0,2 0,0 0,0 0,1 0,1 0,1 1,2 0,0 1,1 2,1 1,1 2,1 2,2 1,1 1,2 2,3 0,0 1,0 1,1 0,2 2,3 2,5 1,2 2,4 4,6 1,2 2,4 3,6 1,1 1,1 1,2 -1,1 0,2 1,2 2,3 5,5 8,7 1,0 1,0 2,1 2,0 3,1 4,2 2,2 4,3 5,4 1,1 1,1 1,2 0,1 0,1 0,2 1,1 1,3 0,4 0,1 0,1 1,2 0,2 0,5 -1,8 0,0 0,1 0,1 1,4 1,8 1,12 0,2 0,3 0,4 -1,1 -1,3 -1,4 0,1 -1,1 0,2 0,2 0,3 0,4 -1,1 -1,2 0,4 0,1 0,3 1,4 0,1 0,2 0,3 0,1 0,1 0,2 0,1 0,1 0,2 -1,1 -1,2 -1,3 -1,3 -1,6 -2,9 0,1 0,1 -1,2 -1,0 -1,1 0,2 1,2 1,3 2,5 0,1 0,2 0,4 -1,1 -1,1 -1,2 0,1 0,2 0,3 0,1 1,2 1,2 1,1 1,1 1,2 -1,0 -1,0 -2,1 0,0 0,1 0,1 0,1 0,3 1,4 0,0 1,1 1,0 1,0 1,-1 1,-1 0,-1 0,-2 0,-3 0,-1 0,-2 -1,-2 1,0 2,0 2,-1 1,0 1,0 1,1 0,0 0,1 0,1 0,2 0,4 0,5 0,2 0,4 0,6 -1,0 -1,1 0,1 1,2 0,3 0,5 -1,0 -1,0 -1,0 0,0 0,0 0,0 -1,-1 -1,-1 -1,-2 -1,0 -2,1 -2,2 -1,2 -1,3 -2,4 0,0 0,0 0,1 0,0 1,0 1,0 0,0 1,-1 1,-1 1,0 2,0 2,1 1,0 1,0 1,1 0,1 0,2 0,3 0,0 0,0 0,0 0,0 0,0 0,0 0,0 0,0 0,0 0,0 0,0 0,0 0,0 0,0 0,0 0,0 0,0 0,0 -1,0 -2,0 -2,1 -1,0 -1,1 -1,1 0,1 0,1 1,2 0,0 0,1 0,1 0,0 0,1 0,1 1,1 1,1 1,1l0 0 0 0 0 0c0,0 0,0 0,0 0,0 0,1 0,1 0,1 0,1 1,2 0,0 1,1 2,1 0,0 0,0 0,0 0,0 0,0 0,0 0,1 0,1 0,2 0,0 0,0 0,0 0,0 0,0 0,0l0 0c0,1 0,2 0,4 0,0 0,1 1,1 0,0 1,-1 1,-1 0,-1 0,-2 0,-3 0,0 0,0 0,0l0 -1 0 0c0,1 0,1 0,1 1,0 1,0 1,1 0,1 0,1 0,2 1,0 1,0 1,1 -1,0 -1,1 -2,1 0,0 0,0 -1,0 0,0 0,0 0,0 0,1 0,1 0,1 1,0 1,0 1,0 2,0 2,1 3,2 -1,1 0,2 0,2 1,1 2,1 3,2 0,0 0,0 0,0 0,0 0,0 0,0 0,0 0,0 1,1 0,0 0,0 0,0l0 0 0 0c0,0 0,0 0,0 -1,0 -1,-1 -1,-1 0,0 0,0 0,0 0,0 0,0 0,0 -1,0 -3,0 -4,-1 0,0 0,0 0,0 0,0 -1,0 -1,0 0,0 0,1 1,1 1,1 3,2 4,4 1,0 2,1 3,1 0,0 1,0 1,0 0,0 0,-1 1,-1 0,0 0,0 0,0 0,0 0,0 0,0 0,0 0,1 0,1 0,0 0,0 1,0 1,0 1,1 1,2 0,0 0,0 0,0 1,1 2,1 2,2 1,1 1,1 2,1 0,-1 1,-1 1,-2 1,0 1,0 1,0 0,1 0,1 0,1 0,1 0,1 0,2 1,0 1,0 2,0 0,0 1,0 1,0 1,0 1,0 2,0 1,0 1,0 0,-1 0,0 0,0 0,0 0,0 0,0 0,0 0,0 0,0 0,0 0,0 0,0 0,0 0,0 0,0 0,0 0,0 0,0 0,0 1,0 2,0 3,-1 0,0 0,0 1,-1 0,0 0,0 0,0 1,0 1,0 2,0 1,0 2,-1 2,-2 0,0 0,0 0,0 0,-1 -1,0 -1,-1 -2,0 -4,-1 -5,-2 -1,0 -1,0 -1,0 -1,-1 -2,-2 -3,-3 0,-1 0,-1 -1,-2 0,-2 -1,-2 -3,-2 0,0 -1,0 -1,0 0,0 0,0 0,0 0,0 0,0 0,0 0,0 0,1 -1,1 -1,0 -1,2 -1,3 0,0 0,0 0,0 0,0 0,1 0,1 -1,-1 -1,-1 -1,-1 0,0 0,-1 0,-1 1,-2 1,-3 3,-3 0,0 0,0 0,0 0,0 0,0 0,0 0,-1 1,-2 2,-1 0,0 0,0 0,0 0,0 1,-1 1,-1 0,0 0,0 0,0 -1,-1 -2,-2 -2,-3 -1,-1 -1,-2 -1,-3 0,-1 0,-2 1,-3 0,-1 0,-1 1,-2 1,0 1,-1 1,-3 0,-1 0,-2 1,-3 1,-1 2,-2 3,-3 0,0 0,-1 0,-2 0,0 0,0 0,-1 0,-1 -1,-2 -2,-2 -1,0 -1,0 -2,-1 -1,0 -1,-1 -2,-1 -1,-1 -1,-3 0,-4 0,-1 1,-1 1,-2 1,0 2,0 3,-1 0,0 0,0 0,0 1,-2 2,-3 1,-4 0,0 0,-1 0,-1 0,-1 0,-2 1,-3 0,-1 1,-1 1,-2 0,0 0,0 0,0 0,0 0,0 0,0 0,0 -1,0 -1,0 0,0 0,-1 0,-1 0,0 0,0 0,0 1,0 1,1 1,1 0,0 0,0 0,0 0,0 0,0 0,0 0,0 1,0 1,0 1,0 2,-1 1,-1 0,-1 0,-2 0,-2 0,-1 -1,-1 -1,-1 0,0 -1,0 -1,1 -1,0 -2,0 -3,-2 0,-1 0,-1 0,-2 0,-1 0,-1 -1,-1 0,0 1,-1 2,-1 0,0 1,1 2,1 1,1 2,1 3,1 1,-1 3,-2 3,-3 0,-1 -1,-2 -1,-2 0,-1 0,-2 1,-3 0,0 0,0 -1,-1 0,0 0,0 0,0 0,-1 1,-2 1,-2 3,1 6,1 9,0 1,-1 2,-1 3,-1 1,-1 2,-2 2,-3 1,-1 1,-2 1,-3 1,0 1,-1 1,-1 0,-1 0,-2 -1,-2 0,0 -1,-1 -1,-1 0,0 0,0 0,-1 0,0 0,-1 0,-1 0,-1 0,-2 -1,-3 -1,0 -2,-1 -3,-2 0,0 0,0 0,0 0,0 0,0 0,0 0,0 0,0 0,0 0,0 0,0 0,0 0,0 0,0 0,0 0,0 0,0 0,0 0,0 0,0 0,0 2,1 4,0 6,2 0,0 1,0 1,0 1,0 2,0 3,0 2,0 3,-1 4,-3 1,-1 1,-2 2,-3 1,0 2,-1 2,-3 0,-1 1,-2 1,-4l0 0c0,0 0,0 0,0 0,0 0,0 0,0 0,-1 0,-1 1,-2 0,0 0,0 1,0 0,-1 0,-2 1,-3 0,0 0,-1 1,-1 0,0 0,1 0,1 0,0 0,1 0,1 1,0 1,-1 2,-1 1,-3 2,-5 4,-8 1,-1 2,-3 1,-5 -1,-1 -1,-1 -1,-1 0,-3 0,-5 2,-7 1,0 2,-1 3,-2 1,-1 3,-2 4,-3 1,0 2,0 3,-1 0,-1 1,-1 1,-2 0,0 1,0 1,0 1,0 2,0 2,0 1,0 2,0 3,0 2,0 3,-1 4,-2 0,-1 1,-1 2,-1 0,-1 1,-1 1,-2 -1,0 0,-1 0,-2 1,-1 1,-3 2,-4 1,-1 1,-2 1,-4 0,-1 0,-2 1,-2 1,-2 1,-4 1,-6 0,-2 0,-4 0,-6 0,-2 0,-3 0,-5 0,-1 0,-1 1,-2 2,0 3,-2 4,-4 0,0 0,-1 0,-1 1,-1 1,-2 2,-3 2,-1 3,-2 4,-3 1,-1 1,-3 2,-4 1,-1 1,-5 1,-6 -1,-2 -2,-3 -2,-5 0,-1 -1,-1 -1,-1 -1,0 -2,-1 -2,-1 -1,1 -2,0 -3,-1 -1,0 -3,-1 -4,-2 -1,-2 -3,-3 -5,-4 -1,0 -2,-1 -3,-1 -3,0 -6,0 -10,-1 0,0 0,0 -1,0 0,0 -1,1 -1,1 -1,0 -1,0 -1,-1 0,0 -1,-1 -1,-2 0,0 -1,-1 -1,-1 -2,0 -3,-1 -5,-2 -1,0 -3,0 -4,-1 -1,0 -2,1 -3,2 0,0 0,0 0,0 0,0 -1,0 0,-1 0,0 0,0 0,0 0,-1 -1,-2 -1,-2 -1,-1 -2,-1 -3,-1 -1,0 -1,0 -1,0 0,0 0,0 0,0l1 0 -1 0c0,0 0,0 0,0 -1,0 -2,0 -3,1 0,-1 -1,-1 -1,-1 0,-1 2,-1 3,-1 0,-1 0,-2 1,-3 0,-1 0,-2 -1,-2 0,-1 -1,-2 -1,-2 -1,-2 -2,-3 -2,-5 -1,-1 -1,-1 -2,-2 -2,-2 -4,-5 -7,-5 -1,0 -1,-1 -2,-1 -1,0 -2,-1 -4,-1 -1,1 -3,1 -5,0 0,0 0,0 -1,0 -1,-1 -2,-2 -4,-2 0,0 0,-1 0,-1 -1,-1 -1,-1 -1,-2 -1,-1 -2,-2 -3,-2 -1,-1 -2,-1 -2,-2 -1,0 -2,0 -2,0 -1,0 -1,0 -1,-1 0,-1 -1,-2 -2,-2 -1,-1 -2,-1 -3,-2 0,0 -1,0 -1,0 0,-1 1,-1 1,-1 0,0 0,0 0,0 1,0 1,0 1,-1 0,0 -1,0 -1,0 -1,0 -2,0 -3,0 -1,0 -2,0 -2,-1 0,0 -1,0 -1,0 0,1 0,1 0,1 -2,2 -4,2 -5,1 -1,0 -2,-1 -3,0 -2,0 -3,0 -4,0 -1,0 -1,0 -1,-1 0,0 0,0 0,0 -1,-1 -1,-2 -2,-2 -1,0 -1,0 -2,0 -1,-1 -1,-1 -2,-2 0,-1 0,-1 -1,-1 0,0 -1,0 -1,1 0,0 0,0 0,1 0,1 -1,1 -2,1 0,1 -1,1 -2,1 0,0 0,0 -1,0 0,-1 0,-1 0,-1 1,-1 1,-2 2,-2 0,0 0,-1 0,-2 -1,0 -1,0 -2,0 -1,0 -1,1 -2,2 -1,0 -2,1 -3,1 -2,1 -3,1 -4,2 0,0 -1,0 -1,0 -1,0 -2,0 -2,1 -1,1 -2,1 -2,3 0,1 0,1 -1,2 -1,0 -2,1 -2,2 -1,0 -1,1 -1,1 0,0 0,0 0,0l0 0 0 0c0,0 0,0 0,0 0,0 0,0 -1,0 0,-1 -1,-1 -2,-2 -1,-1 -2,-1 -3,-2 -2,0 -3,0 -5,1 0,0 -1,0 -1,1 -1,0 -3,1 -4,0 -2,0 -3,-2 -5,-3 0,-1 -1,-3 -2,-4 0,0 0,0 0,-1 0,-1 0,-3 1,-4 0,0 0,-1 0,-1 0,-2 1,-3 1,-4 1,-2 0,-3 1,-4 0,-1 -1,-1 -1,-1 0,0 -1,0 -1,-1l0 0c0,0 0,0 0,0l-1 1 1 -1c-1,0 -2,-1 -4,-1 -1,0 -2,0 -3,-1 -2,0 -3,1 -4,1 -2,0 -3,0 -4,0 0,0 -1,0 -2,0 0,0 0,-1 0,-1 1,-1 2,-3 2,-4 0,-1 0,-2 0,-3 0,0 0,-1 1,-1 1,0 1,0 1,-1 1,-1 1,-2 1,-3 0,-1 0,-3 1,-4 0,0 1,-1 1,-1 1,-1 1,-1 1,-2 0,0 -1,-1 -1,-1 -2,0 -4,-1 -5,0 -2,1 -3,1 -4,1 -2,0 -2,0 -3,1 0,1 0,2 -1,2 0,2 -1,4 -3,6 0,1 -1,1 -2,1 -1,0 -2,0 -2,0 -2,0 -3,1 -4,1 -1,0 -3,0 -3,-1 -1,0 -2,-1 -3,-1 -1,0 -2,-1 -2,-2 -1,-2 -2,-3 -3,-4 0,-1 0,-1 0,-2 -1,-1 -1,-3 -1,-4 0,-1 0,-1 0,-2 0,-3 0,-6 1,-9 0,0 0,-1 0,-1 1,-2 2,-3 2,-4 -1,-2 0,-4 0,-6 1,-2 2,-3 4,-3 2,-1 3,-1 5,-3 1,-1 2,-1 4,-1 1,-1 2,-1 3,0 1,0 1,0 2,0 1,-1 2,0 2,0 1,2 3,2 4,2 1,0 2,-1 3,-1 0,-1 0,-2 0,-2 0,-1 1,-2 2,-2 0,0 1,0 1,0 2,0 4,0 6,0 2,0 4,0 6,2 0,1 1,0 2,0 0,0 1,0 1,0 1,-1 1,0 2,0 1,1 1,2 2,3 1,1 1,1 0,2 0,1 0,1 0,1 0,1 0,2 0,3 1,2 2,4 3,6 0,1 1,2 2,3 1,1 2,0 3,0 1,-2 1,-4 1,-6 0,0 0,0 0,-1 0,-1 0,-2 -1,-3 0,-1 0,-2 0,-3 0,0 0,0 0,-1 -1,-3 -1,-6 -1,-9 0,-1 0,-2 1,-2 1,-2 2,-3 5,-4 0,0 0,0 0,0 1,-1 2,-1 2,-2 1,0 1,-1 2,-1 0,-1 1,-1 1,-1 1,-1 2,-1 2,-2 2,-1 3,-2 4,-2 1,0 2,-1 2,-2 0,0 0,0 0,0 1,-1 1,-1 2,-1 0,-1 0,-1 0,-2 0,0 -1,-1 0,-1 0,-1 0,-2 0,-4 -1,0 -1,0 -1,-1 0,-1 1,-2 1,-3 0,-1 0,-1 0,-1 0,0 0,0 0,1 1,0 1,1 1,1 0,1 0,1 0,1 0,0 1,0 1,0 0,-1 1,-2 2,-3 0,-1 0,-1 0,-2 0,0 0,-1 0,-1 0,0 0,-1 1,-1 1,1 1,0 2,0 1,-2 2,-3 2,-5 0,-1 1,-2 2,-2 1,0 2,0 3,0 0,0 0,0 1,-1 0,0 0,0 0,0 0,0 0,0 0,0 -1,0 -1,0 -1,0 0,0 -1,-1 -1,-1 1,0 1,0 1,0 0,0 0,0 0,0 3,0 5,-1 7,-1 1,0 1,0 1,0 1,-1 1,-1 0,-2 -1,-1 -1,-2 -1,-2 0,-1 1,-2 1,-3 1,-1 2,-3 3,-3 1,-1 2,-1 3,-2 1,0 1,0 2,0 2,0 3,-1 5,-1 1,-1 1,-1 1,-2 0,0 1,0 1,0 1,-1 3,-1 4,-1 0,0 0,0 0,0 0,0 0,0 0,0 0,1 -1,1 -1,1 -2,1 -2,2 -3,3 0,0 0,1 0,1 0,1 1,2 1,2 1,0 1,1 1,0 2,0 3,-1 4,-3 1,-1 2,-1 3,-1 2,0 4,-1 6,-2 1,0 1,0 2,0 0,-2 2,-2 3,-2 0,0 1,0 1,-1 0,0 0,0 1,0 0,0 0,-1 0,-1 -1,-1 -2,-2 -1,-3 0,0 0,0 0,0 0,-1 -1,-1 -1,-1 -2,1 -3,3 -4,4 0,1 -1,1 -1,1 -1,0 -1,0 -1,0 -1,0 -1,0 -1,0 0,0 -1,0 -1,0 0,0 -1,0 -1,-1 -1,0 -2,0 -2,-1 -1,0 -2,-1 -2,-3 0,-1 0,-2 0,-4 1,0 0,-1 0,-1 -1,0 -1,0 -1,0 0,0 -1,0 -1,0 1,0 1,0 1,0 1,-1 2,-1 3,-2 0,0 1,-1 0,-2 0,0 0,-1 -1,-1 -1,-1 -2,-1 -4,-1 -3,1 -7,2 -10,4 0,0 0,0 0,0 0,0 0,0 0,0 -1,1 -1,1 -2,2 0,0 0,0 0,0 0,0 -1,0 -2,0 0,1 0,1 -1,1l0 0 0 0c1,0 1,0 1,-1 1,0 1,0 2,0 0,0 0,0 0,0 0,-2 0,-2 2,-2 0,0 0,0 0,0 0,0 0,0 0,0 0,-1 0,-1 1,-2 1,-1 2,-2 4,-2 1,-1 2,-1 3,-2 0,-1 0,-1 0,-1 1,-1 2,-2 3,-2 1,-1 2,0 3,0 3,0 7,1 11,1 2,0 3,0 5,0 0,0 1,0 1,0 1,0 1,-1 1,-1 1,0 2,-1 3,-2 1,-1 2,-2 3,-2 0,0 1,0 2,0 2,0 3,-1 5,-2 1,-1 1,-2 1,-3 -1,0 -1,-1 0,-2 0,0 0,-1 0,-1 0,-1 0,-1 0,-2 -1,-1 -1,-1 -3,-1 0,0 0,0 0,0l0 0 0 0c0,0 0,0 0,0 0,-1 0,-1 0,-1 0,-1 -1,-2 -1,-2 -1,0 -1,0 -2,0 0,0 0,0 0,0 0,0 0,0 0,0 1,-1 1,-1 2,-1 0,0 0,-1 0,-1 -1,-1 -1,-1 -2,-1 0,0 -1,0 -1,0 -1,-2 -2,-2 -4,-3 0,0 0,0 0,0 0,-2 -1,-3 -3,-4 0,0 0,-1 -1,-1 0,-1 0,-1 0,-2 1,0 1,-1 2,-1 0,-1 0,-1 0,-2 -1,-1 -1,-2 -1,-3 0,0 0,-1 -1,-1 0,0 0,-1 0,-2 -1,0 -1,-1 -1,-1 0,-1 0,-1 0,-2 0,-1 0,-2 -1,-3 0,-1 -1,-3 -1,-5 0,-1 0,-1 0,-2 0,0 0,0 -1,0 0,0 0,0 0,0 -1,2 -2,3 -3,5 -1,2 -2,3 -4,4 -1,0 -1,1 -1,1 -1,0 -2,1 -2,1 -1,0 -2,0 -2,-1 -1,0 -1,0 -1,-1 0,-1 -1,-1 -1,-1 -1,-1 -1,-2 -1,-3 0,-1 1,-2 0,-4 0,0 0,0 0,-1 1,-1 1,-2 2,-4 0,0 0,0 0,-1 -2,0 -2,-1 -4,-1 0,0 -1,0 -1,-1 -1,0 -1,0 -1,-1 0,0 0,0 0,-1 -1,-1 -1,-2 -2,-3 0,0 0,-1 -1,-1 0,-1 -1,-2 -3,-1 0,0 -1,0 -1,0 -2,-1 -3,-1 -5,-2 0,0 -1,0 -2,0 -1,-1 -3,0 -4,2 0,1 0,2 0,3 1,0 1,1 0,1 0,1 -1,2 -2,3 0,1 1,3 1,4 0,0 0,1 0,1 0,1 0,2 -1,2 0,1 -1,1 -1,1 -1,2 -2,3 -4,4 0,1 0,2 0,3 1,0 1,1 2,1 0,1 0,1 0,2 1,1 1,3 1,4 0,2 -1,3 0,5 0,0 0,1 -1,1 0,0 -1,0 -1,1 -2,2 -4,3 -6,4 -1,0 -2,0 -3,1 -1,0 -1,1 -1,1 0,2 0,4 0,5 -1,2 -1,3 -1,4 0,1 0,2 0,3 0,0 0,1 0,1 0,1 -1,2 -1,2 0,1 0,1 -1,1 -1,0 -1,0 -2,1 0,0 -1,0 -1,-1 0,0 -1,0 -1,-1 0,0 0,-1 -1,-2 -1,-1 -1,-3 -2,-4 -1,-1 -1,-1 0,-2 1,-2 1,-3 1,-6 0,0 1,-1 1,-2 0,0 0,-1 1,-2 0,0 -1,-1 -1,-1 -2,0 -4,-1 -7,-1 0,0 -1,0 -1,0 -1,-2 -2,-3 -4,-3 -1,-1 -2,-2 -3,-4 -1,-1 -2,-2 -3,-3 -2,-1 -3,-2 -4,-2 -1,-1 -2,-1 -2,-1 -2,1 -3,1 -4,1 0,0 0,0 0,0l0 0 0 0c0,0 0,0 0,0 1,-1 1,-2 1,-3 0,-2 0,-3 0,-5 0,0 0,-1 0,-2 0,0 -1,0 -1,0 0,0 -1,0 -2,0 0,0 -1,-1 -1,-1 0,-1 0,-1 0,-1 0,-1 1,-2 1,-3 1,-3 2,-6 5,-8 0,-1 1,-2 1,-2 2,-2 3,-4 6,-5 1,-1 2,-2 3,-4 0,0 0,0 1,0 0,0 1,0 1,0 2,0 3,-1 3,-2 0,-1 0,-2 0,-2 0,0 -1,0 -1,0 0,0 0,0 0,0 0,0 0,0 1,0 0,0 0,0 0,0 1,0 3,0 4,-2 0,-1 0,-1 1,-1 0,0 1,1 2,1 0,0 1,0 2,0 2,-2 4,-4 6,-6 0,0 0,-1 0,-1 0,-1 0,-1 1,-1 1,-1 2,-2 3,-3 0,0 0,0 0,0 0,-1 0,-1 0,-1 1,0 1,0 1,0 1,-1 1,-1 0,-2 0,-1 0,-1 0,-1 0,0 0,0 0,-1 2,0 3,0 3,2 1,0 1,0 1,0 2,1 4,1 6,0 1,0 2,-1 4,-2 0,-1 0,-1 1,-1 1,0 1,-1 2,-2 0,-1 0,-1 0,-2 0,-1 0,-1 0,-2 -1,0 -1,-1 0,-2 0,-1 0,-2 0,-2 0,0 0,0 0,0l0 0 0 0c0,0 0,0 0,0 1,0 1,0 2,0 1,0 2,-1 2,-2 0,-1 0,-2 0,-2 1,-1 1,-1 0,-2 -1,-1 -2,-1 -2,-2 0,-1 0,-2 -1,-2 -1,0 -1,0 -1,-1 -1,0 -2,0 -3,-1 0,0 0,0 0,0 1,0 2,0 3,1 0,0 1,0 1,0z"/>
 </g>
</svg>
