<?xml version="1.0" encoding="UTF-8"?>
<!DOCTYPE svg PUBLIC "-//W3C//DTD SVG 1.1//EN" "http://www.w3.org/Graphics/SVG/1.1/DTD/svg11.dtd">
<!-- Creator: CorelDRAW X7 -->
<svg xmlns="http://www.w3.org/2000/svg" xml:space="preserve" width="519px" height="340px" version="1.1" style="shape-rendering:geometricPrecision; text-rendering:geometricPrecision; image-rendering:optimizeQuality; fill-rule:evenodd; clip-rule:evenodd"
viewBox="0 0 7662515 5024404"
 xmlns:xlink="http://www.w3.org/1999/xlink">
 <defs>
  <style type="text/css">
   <![CDATA[
    .fil0 {fill:#6AA7E8}
   ]]>
  </style>
 </defs>
 <g id="Capa_x0020_1">
  <metadata id="CorelCorpID_0Corel-Layer"/>
  <path class="fil0" d="M2187109 813377c6107,1204 12178,2478 18232,3769l-18232 -3769zm22611 4728c129276,28472 249672,80602 356443,151660l-356443 -151660zm4264185 1297423c-15196,-1150194 -950295,-2115528 -2103088,-2115528 -734346,0 -1423873,397233 -1804654,969765l-139 209c-106649,-71075 -227045,-123344 -356304,-151869l-4379 -959c-6054,-1291 -12125,-2565 -18232,-3769l-11776 -2250 -12038 -2164c-5216,-907 -10450,-1797 -15684,-2617l-9787 -1483c-6124,-907 -12282,-1779 -18441,-2599l-5775 -733c-7449,-924 -14899,-1797 -22383,-2547l-3943 -401c-7397,-733 -14812,-1378 -22261,-1972l-3001 -244c-8095,-628 -16190,-1134 -24337,-1553l-3193 -157c-8113,-401 -16277,-715 -24460,-924l-2460 -70c-8601,-209 -17219,-331 -25872,-331 -580087,0 -1050960,467785 -1056770,1046947 -35,3594 -139,7188 -139,10799 0,20237 1849,39934 3018,60032 -1309,24076 -3018,48414 -3018,72210 -526876,252796 -924789,853730 -924789,1474903 0,861424 704147,1566181 1564855,1566181l3237703 0c18231,0 35904,-2128 53909,-2826 18092,698 35765,2826 54013,2826l1295102 0c801287,0 1456933,-656239 1456933,-1458154 0,-710148 -514453,-1323662 -1188610,-1450722z"/>
 </g>
</svg>
