<?xml version="1.0" encoding="UTF-8"?>
<!DOCTYPE svg PUBLIC "-//W3C//DTD SVG 1.1//EN" "http://www.w3.org/Graphics/SVG/1.1/DTD/svg11.dtd">
<!-- Creator: CorelDRAW X7 -->
<svg xmlns="http://www.w3.org/2000/svg" xml:space="preserve" width="609px" height="413px" version="1.1" style="shape-rendering:geometricPrecision; text-rendering:geometricPrecision; image-rendering:optimizeQuality; fill-rule:evenodd; clip-rule:evenodd"
viewBox="0 0 18632383 12621825"
 xmlns:xlink="http://www.w3.org/1999/xlink">
 <defs>
  <style type="text/css">
   <![CDATA[
    .fil1 {fill:#828282}
    .fil0 {fill:#D2D3D5}
    .fil2 {fill:#FEFEFE}
   ]]>
  </style>
 </defs>
 <g id="Capa_x0020_1">
  <metadata id="CorelCorpID_0Corel-Layer"/>
  <g id="_2615383507056">
   <path class="fil0" d="M18632383 11938055l-18624619 0c4587,-605693 2110824,-1714841 3133807,-2572280l0 0c-162041,-217149 -258211,-485977 -258211,-776220l0 -7287019c0,-716381 585975,-1302536 1302211,-1302536l11523366 0c591283,0 1075130,483919 1075130,1075347l0 7741253c0,240695 -80172,463623 -215091,643322 745776,867731 1984969,2107394 2063407,2478133z"/>
   <path class="fil1" d="M18632202 11938055l-18632202 0 0 341885c0,188042 153843,341885 341849,341885l17948577 0c187933,0 341776,-153843 341776,-341885l0 -341885z"/>
   <polygon class="fil1" points="11511340,11028144 7498860,11028144 7498860,11546984 11511340,11546984 "/>
   <polygon class="fil1" points="16789989,10738154 2135995,10726670 4043068,9608926 15600416,9589822 "/>
   <polygon class="fil2" points="15575353,1208352 4094746,1208352 4094746,8878353 15575353,8878353 "/>
   <polygon class="fil1" points="15193924,1534528 10723636,1534528 10723636,2221222 15193924,2221222 "/>
   <polygon class="fil1" points="10502442,1534528 4497482,1534528 4497482,2221222 10502442,2221222 "/>
   <polygon class="fil1" points="7680005,2370009 4497121,2370009 4497121,8344237 7680005,8344237 "/>
   <polygon class="fil1" points="15170920,2370009 7824819,2370009 7824819,8344237 15170920,8344237 "/>
  </g>
 </g>
</svg>
