<?xml version="1.0" encoding="UTF-8"?>
<!DOCTYPE svg PUBLIC "-//W3C//DTD SVG 1.1//EN" "http://www.w3.org/Graphics/SVG/1.1/DTD/svg11.dtd">
<!-- Creator: CorelDRAW X7 -->
<svg xmlns="http://www.w3.org/2000/svg" xml:space="preserve" width="162.537mm" height="125.956mm" version="1.1" style="shape-rendering:geometricPrecision; text-rendering:geometricPrecision; image-rendering:optimizeQuality; fill-rule:evenodd; clip-rule:evenodd"
viewBox="0 0 22297 17279"
 xmlns:xlink="http://www.w3.org/1999/xlink">
 <defs>
  <style type="text/css">
   <![CDATA[
    .fil2 {fill:#FEFEFE}
    .fil9 {fill:#FEC12C}
    .fil10 {fill:#FCDB53}
    .fil0 {fill:#F7FBFE}
    .fil4 {fill:#DAEDFA}
    .fil3 {fill:#C5E4F7}
    .fil1 {fill:#B1D4F0}
    .fil7 {fill:#6A99D0}
    .fil6 {fill:#5FC3B2}
    .fil5 {fill:#34BA9E}
    .fil8 {fill:#496AB1}
   ]]>
  </style>
 </defs>
 <g id="Capa_x0020_1">
  <metadata id="CorelCorpID_0Corel-Layer"/>
  <g id="_2354564195648">
   <path class="fil0" d="M11459 17279c-2774,0 -5548,-553 -7665,-1659 -4232,-2211 -4232,-5796 0,-8007 2117,-1106 4890,-1659 7664,-1659 2774,0 5548,553 7664,1659 2116,1105 3174,2553 3175,4002l0 3c-1,1449 -1059,2897 -3175,4002 -2116,1106 -4890,1659 -7663,1659z"/>
   <path class="fil1" d="M20833 9072c23,-193 127,-366 393,-635 266,-269 453,-466 197,-572 -252,-104 -646,368 -703,778 -56,409 113,429 113,429z"/>
   <path class="fil2" d="M20735 8993l-4 0c-13,-3 -22,-15 -20,-28 115,-704 493,-945 651,-1017 12,-5 26,0 32,12 5,13 0,27 -13,32 -150,68 -511,300 -622,981 -2,11 -12,20 -24,20z"/>
   <path class="fil3" d="M1237 12555c-81,-129 -327,-271 -651,-341 -324,-69 -650,-156 -575,-344 80,-203 381,-213 676,-93 322,132 560,459 565,665l-15 113z"/>
   <path class="fil2" d="M1262 12496c-9,0 -18,-5 -22,-13 -257,-533 -853,-619 -1042,-590 -13,3 -25,-7 -27,-20 -2,-13 7,-25 20,-27 198,-31 824,59 1093,616 6,12 1,26 -11,32l-11 2z"/>
   <path class="fil4" d="M1237 12555c0,0 -155,-613 -547,-943 -117,-98 -241,-221 -328,-305 -187,-182 -109,-380 150,-376 383,5 664,328 786,751 121,423 -61,873 -61,873z"/>
   <path class="fil2" d="M1298 12317c-12,0 -23,-9 -24,-22 -72,-780 -668,-1172 -830,-1214 -13,-3 -20,-16 -17,-29 3,-13 17,-21 29,-18 197,51 792,458 866,1256 1,14 -9,26 -22,27l-2 0z"/>
   <polygon class="fil1" points="2613,13350 1237,12555 1237,9604 2613,10399 "/>
   <polygon class="fil3" points="2613,10399 4579,9264 4579,12215 2613,13350 "/>
   <polygon class="fil4" points="4579,9264 2613,10399 1237,9604 3202,8469 "/>
   <polygon class="fil1" points="2809,10512 4382,9604 4418,9625 4418,10718 2845,11626 2809,11605 "/>
   <polygon class="fil4" points="2846,10533 4418,9625 4418,10718 2845,11626 "/>
   <path class="fil1" d="M3462 10362l267 -154c35,-20 63,-11 63,20 0,32 -28,73 -63,93l-267 155c-35,20 -63,11 -63,-21 0,-31 28,-73 63,-93z"/>
   <polygon class="fil1" points="2773,11895 4346,10987 4346,12080 4382,12101 2809,13009 2773,12988 "/>
   <polygon class="fil4" points="2809,11916 4382,11008 4382,12101 2809,13009 "/>
   <path class="fil1" d="M3426 11745l267 -154c35,-20 63,-11 63,20 0,32 -28,73 -63,93l-267 155c-35,20 -63,11 -63,-21 0,-31 28,-73 63,-93z"/>
   <polygon class="fil1" points="2613,10228 1237,9434 1237,6483 2613,7278 "/>
   <polygon class="fil3" points="2613,7278 4579,6143 4579,9093 2613,10228 "/>
   <polygon class="fil4" points="4579,6143 2613,7278 1237,6483 3202,5348 "/>
   <polygon class="fil1" points="2809,7391 4382,6483 4418,6504 4418,7597 2845,8505 2809,8484 "/>
   <path class="fil1" d="M3462 7241l267 -154c35,-20 63,-11 63,20 0,32 -28,73 -63,93l-267 155c-35,20 -63,11 -63,-21 0,-31 28,-73 63,-93z"/>
   <polygon class="fil1" points="2773,8774 4346,7866 4346,8959 4382,8980 2809,9888 2773,9867 "/>
   <polygon class="fil4" points="2809,8795 4382,7887 4382,8980 2809,9888 "/>
   <path class="fil1" d="M3426 8624l267 -154c35,-20 63,-11 63,20 0,32 -28,73 -63,93l-267 155c-35,20 -63,11 -63,-21 0,-31 28,-73 63,-93z"/>
   <polygon class="fil1" points="2809,7391 4382,6483 4382,7576 2809,8484 "/>
   <polygon class="fil1" points="5168,7023 4307,6526 4307,7489 5168,7986 "/>
   <polygon class="fil3" points="3399,8639 3399,7277 3737,7082 3792,7164 4775,6597 4775,7845 "/>
   <polygon class="fil4" points="3399,8639 3497,7448 4873,6653 4775,7845 "/>
   <polygon class="fil3" points="3596,7931 2845,7498 2845,8461 3596,8894 "/>
   <polygon class="fil4" points="3596,7845 5168,6937 5168,8030 3596,8938 "/>
   <path class="fil1" d="M4212 7674l267 -154c35,-20 63,-11 63,20 0,32 -28,73 -63,93l-267 155c-35,20 -63,11 -63,-21 0,-31 28,-73 63,-93z"/>
   <polygon class="fil1" points="3596,7845 3543,7815 3543,8908 3596,8938 "/>
   <polygon class="fil3" points="3543,7815 5116,6907 5168,6937 3596,7845 "/>
   <polygon class="fil1" points="18867,10206 17491,9412 17491,6461 18867,7256 "/>
   <polygon class="fil3" points="18867,7256 20833,6121 20833,9072 18867,10206 "/>
   <polygon class="fil4" points="20833,6121 18867,7256 17491,6461 19457,5326 "/>
   <polygon class="fil1" points="19064,7369 20636,6461 20673,6482 20673,7575 19100,8483 19064,8462 "/>
   <polygon class="fil4" points="19100,7390 20673,6482 20673,7575 19100,8483 "/>
   <path class="fil1" d="M19716 7219l268 -154c35,-20 63,-11 63,20 0,32 -28,73 -63,93l-268 155c-34,20 -62,11 -62,-21 0,-31 28,-73 62,-93z"/>
   <polygon class="fil1" points="19028,8752 20600,7844 20600,8937 20636,8958 19064,9866 19028,9845 "/>
   <polygon class="fil4" points="19064,8773 20636,7865 20636,8958 19064,9866 "/>
   <path class="fil1" d="M19680 8602l268 -154c34,-20 63,-11 63,20 0,32 -29,73 -63,93l-268 155c-35,20 -63,11 -63,-21 0,-31 29,-73 63,-93z"/>
   <path class="fil5" d="M5775 13291c0,0 5,-768 -479,-1343 -428,-510 -656,-833 -521,-982 135,-149 425,-185 817,227 392,412 422,1555 368,1813l-185 285z"/>
   <path class="fil2" d="M5858 12466c-11,0 -21,-8 -24,-19 -169,-793 -604,-1231 -848,-1421 -11,-8 -12,-24 -4,-34 8,-11 23,-13 34,-4 249,194 693,641 866,1448 3,14 -6,26 -19,29l-5 1z"/>
   <path class="fil6" d="M5758 13577l-197 113c0,0 -50,-177 -265,-227 -215,-50 -439,-40 -590,-227 -150,-187 33,-390 0,-527 -32,-138 -54,-177 -324,-315 -270,-137 -377,-365 -173,-520 203,-155 533,-41 731,95 178,121 346,153 544,177 197,24 520,135 471,594 -50,460 -197,837 -197,837z"/>
   <path class="fil2" d="M5780 13539c-12,0 -22,-9 -24,-21 -108,-1020 -1335,-1503 -1348,-1508 -12,-5 -18,-19 -14,-31 5,-13 19,-19 32,-14 12,5 1267,499 1378,1547 2,14 -8,26 -21,27l-3 0z"/>
   <path class="fil2" d="M5001 12972c-10,0 -20,-7 -23,-17 -4,-13 3,-26 15,-30 18,-6 437,-138 614,4 10,8 12,23 4,34 -9,10 -24,12 -34,3 -157,-125 -565,3 -569,5l-7 1z"/>
   <path class="fil5" d="M17817 12906c6,-16 213,-1085 0,-1843 -195,-695 -446,-951 -806,-1008 -360,-56 -516,203 -325,554 191,351 651,818 764,1603 47,323 85,603 85,603l282 91z"/>
   <path class="fil2" d="M17696 12293l-1 0c-14,-1 -24,-13 -23,-26 49,-865 -235,-1638 -741,-2016 -11,-8 -13,-23 -5,-34 8,-11 23,-13 34,-5 519,388 811,1177 760,2058 -1,13 -11,23 -24,23z"/>
   <path class="fil6" d="M18374 13463c-27,-199 87,-497 358,-567 272,-71 393,-227 295,-398 -98,-170 -75,-326 171,-397 247,-71 463,-195 321,-454 -103,-188 -126,-310 126,-681 210,-308 39,-488 -224,-454 -262,34 -424,346 -588,399 -164,53 -202,-227 -418,-102 -217,125 -203,445 -210,668 -7,223 -22,273 -217,246 -196,-27 -387,5 -383,478 3,406 220,908 220,908l549 354z"/>
   <path class="fil2" d="M18031 13160l-3 0c-13,-1 -22,-13 -21,-26 136,-1220 1183,-2248 1456,-2456 10,-9 25,-7 33,4 9,11 7,26 -4,34 -269,206 -1302,1221 -1437,2423 -1,12 -12,21 -24,21z"/>
   <path class="fil2" d="M18508 11857c-10,0 -19,-6 -22,-15 -5,-13 1,-27 14,-32 390,-145 832,-76 851,-73 13,2 22,14 20,27 -2,14 -15,22 -28,20 -4,0 -448,-69 -826,72l-9 1z"/>
   <path class="fil2" d="M18161 12590c-7,0 -14,-3 -18,-8 -261,-295 -317,-647 -319,-662 -2,-13 7,-25 20,-27 14,-2 26,7 28,20 0,3 56,353 307,637 9,10 8,25 -2,34 -5,4 -10,6 -16,6z"/>
   <path class="fil4" d="M13425 16641c-1376,-795 -2653,-1658 -3236,-2672l1769 -1021 1467 3693z"/>
   <polygon class="fil7" points="5758,6086 5758,13577 13425,9150 13425,2341 7724,5632 7527,5064 "/>
   <polygon class="fil1" points="5758,13577 6151,6767 13818,2341 13425,9150 "/>
   <polygon class="fil7" points="5758,13577 6348,6880 14014,2454 13425,9150 "/>
   <polygon class="fil8" points="6938,6767 6938,14257 14604,9831 14604,3021 8903,6313 8707,5745 "/>
   <polygon class="fil3" points="6938,14257 7331,7448 14997,3021 14604,9831 "/>
   <polygon class="fil8" points="6938,14257 7527,7561 15194,3135 14604,9831 "/>
   <polygon class="fil9" points="8314,7561 8314,15052 15980,10626 15980,3816 10279,7107 10083,6540 "/>
   <path class="fil2" d="M10522 9776c-19,0 -22,-22 -22,-36l0 -6389c0,-45 33,-102 72,-124l5533 -3195c9,-5 18,-8 25,-8 20,0 23,23 23,36l0 6389c0,45 -33,102 -72,124l-5533 3195c-10,5 -18,8 -26,8z"/>
   <path class="fil3" d="M16130 0l0 0c-11,0 -24,4 -37,11l-5533 3195c-47,27 -84,92 -84,145l0 6389c0,38 19,60 46,60 12,0 24,-3 38,-11l5533 -3195c46,-27 84,-92 84,-145l0 -6389c0,-38 -19,-60 -47,-60zm-3 49c1,2 1,6 1,11l0 6389c0,36 -28,85 -59,103l-5533 3195c-5,2 -8,4 -11,4 0,-2 -1,-6 -1,-11l0 -6389c0,-36 29,-85 60,-103l5533 -3195c5,-2 8,-3 10,-4z"/>
   <polygon class="fil4" points="11066,3595 13031,2460 13031,4730 11066,5865 "/>
   <path class="fil2" d="M12737 3027l0 681 -62 35c0,0 0,-94 0,-209 0,-115 -94,-154 -210,-87l-833 481c-116,67 -210,214 -210,330l0 208 -62 37 0 -681 1377 -795z"/>
   <path class="fil2" d="M12357 4763c-100,58 -182,-3 -182,-137l0 -1092 -253 138 0 1100c0,134 -81,289 -182,348l-183 105 0 72 983 -567 0 -72c0,0 -82,47 -183,105z"/>
   <path class="fil1" d="M13425 2346c0,63 56,81 125,41l1911 -1103c70,-40 126,-123 126,-186 0,-63 -56,-81 -126,-41l-1911 1103c-69,40 -125,124 -125,186z"/>
   <path class="fil1" d="M13425 3027c0,63 56,81 125,41l1911 -1103c70,-40 126,-123 126,-186 0,-63 -56,-81 -126,-41l-1911 1103c-69,40 -125,124 -125,186z"/>
   <path class="fil1" d="M13425 3708c0,63 56,81 125,41l1911 -1103c70,-40 126,-123 126,-186 0,-63 -56,-81 -126,-41l-1911 1103c-69,40 -125,124 -125,186z"/>
   <path class="fil1" d="M13425 4389c0,63 56,81 125,41l1911 -1103c70,-40 126,-123 126,-186 0,-63 -56,-81 -126,-41l-1911 1103c-69,40 -125,124 -125,186z"/>
   <path class="fil1" d="M11066 6432c0,63 56,81 125,41l4270 -2465c70,-40 126,-123 126,-186 0,-63 -56,-81 -126,-41l-4270 2465c-69,40 -125,124 -125,186z"/>
   <path class="fil1" d="M11066 7113c0,63 56,81 125,41l4270 -2465c70,-40 126,-123 126,-186 0,-63 -56,-81 -126,-41l-4270 2465c-69,40 -125,124 -125,186z"/>
   <path class="fil1" d="M11066 7794c0,63 56,81 125,41l4270 -2465c70,-40 126,-123 126,-186 0,-63 -56,-81 -126,-41l-4270 2465c-69,40 -125,124 -125,186z"/>
   <polygon class="fil10" points="8314,15052 9690,9037 17356,4610 15980,10626 "/>
   <polygon class="fil9" points="10189,9508 10189,13969 11958,12948 11958,8486 "/>
   <path class="fil2" d="M13426 16612c-150,-112 -1601,-1221 -2338,-2805 -785,-1686 -785,-3653 -784,-4393l0 -23 5259 -3036c0,747 1,2716 788,4408 721,1547 2116,2644 2337,2811l-5262 3038z"/>
   <path class="fil3" d="M15587 6313l-5308 3064c0,696 -14,2720 787,4440 786,1689 2359,2824 2359,2824l5307 -3064c0,0 -1572,-1135 -2359,-2824 -801,-1720 -786,-3744 -786,-4440zm-48 84c0,778 15,2710 791,4376 696,1495 2020,2571 2315,2798l-5217 3012c-204,-154 -1600,-1244 -2318,-2786 -783,-1681 -783,-3644 -782,-4383l0 -9 5211 -3008z"/>
   <path class="fil1" d="M14987 7340l-1679 969c-69,41 -124,123 -122,184 3,61 61,79 131,39l1678 -970c70,-40 124,-122 121,-183 -2,-62 -60,-79 -129,-39z"/>
   <path class="fil1" d="M15023 8001l-1679 969c-70,40 -122,121 -117,181 5,59 66,75 136,35l1678 -969c70,-40 121,-121 116,-181 -5,-59 -65,-75 -134,-35z"/>
   <path class="fil1" d="M15090 8643l-1679 969c-69,40 -120,120 -111,178 8,58 71,72 141,32l1678 -969c70,-40 119,-120 111,-178 -9,-58 -71,-72 -140,-32z"/>
   <path class="fil1" d="M15190 9266l-1678 969c-70,40 -117,118 -106,174 11,56 77,69 147,29l1678 -969c70,-40 116,-118 105,-174 -11,-56 -76,-69 -146,-29z"/>
   <path class="fil1" d="M15327 9868l-1679 969c-69,40 -114,117 -99,171 15,54 83,65 153,25l1678 -969c70,-40 114,-116 99,-171 -15,-54 -83,-65 -152,-25z"/>
   <path class="fil1" d="M15501 10448l-4091 2362c-69,40 -111,115 -92,167 19,52 91,61 160,21l4091 -2362c70,-40 110,-115 91,-166 -18,-52 -89,-62 -159,-22z"/>
   <path class="fil1" d="M15719 11002l-4091 2362c-69,40 -107,113 -84,162 23,50 98,57 167,17l4092 -2362c69,-40 106,-112 83,-162 -23,-49 -97,-57 -167,-17z"/>
   <path class="fil1" d="M15986 11530l-4091 2362c-69,40 -104,111 -76,158 27,47 106,52 176,12l4091 -2362c69,-40 103,-110 75,-157 -27,-47 -105,-53 -175,-13z"/>
   <path class="fil1" d="M16301 12029l-4091 2362c-69,40 -101,109 -69,154 32,44 114,47 184,7l4091 -2362c69,-40 99,-108 68,-152 -32,-45 -113,-49 -183,-9z"/>
   <path class="fil1" d="M16658 12504l-4091 2362c-69,40 -98,107 -62,150 35,42 121,43 190,3l4091 -2362c70,-40 97,-106 61,-148 -35,-43 -119,-45 -189,-5z"/>
   <path class="fil1" d="M17054 12956l-4091 2363c-70,40 -95,105 -57,146 39,40 127,40 197,0l4091 -2362c69,-41 94,-105 55,-146 -39,-40 -126,-41 -195,-1z"/>
   <path class="fil1" d="M17486 13388l-4091 2362c-69,40 -92,105 -50,143 42,38 133,37 202,-4l4091 -2362c70,-40 92,-103 50,-141 -42,-39 -132,-38 -202,2z"/>
   <path class="fil4" d="M12700 8661l-1930 1114c21,699 101,1708 394,2723l1930 -1114c-293,-1015 -373,-2024 -394,-2723z"/>
   <path class="fil1" d="M11557 9620c0,-108 -35,-191 -94,-245l-693 400c6,185 16,391 32,614 76,12 166,-1 262,-46 272,-127 493,-451 493,-723z"/>
   <path class="fil1" d="M12930 10716l0 0c-129,-162 -391,-663 -502,-881 -20,-39 -77,-33 -90,8 -193,621 -209,1271 -209,1271 -155,-123 -267,-245 -410,-456 -21,-31 -67,-23 -77,13 -211,813 -105,1612 -105,1612l1557 -899c-65,-224 -119,-447 -164,-668z"/>
  </g>
 </g>
</svg>
