<svg width="190" height="63" viewBox="0 0 190 63" fill="none" xmlns="http://www.w3.org/2000/svg">
<path fill-rule="evenodd" clip-rule="evenodd" d="M48.5867 38.0797C52.5349 38.0797 55.7355 41.3615 55.7355 45.4099C55.7355 49.4581 52.5349 52.7399 48.5867 52.7399C44.6384 52.7399 41.4378 49.4581 41.4378 45.4099C41.4378 41.3615 44.6384 38.0797 48.5867 38.0797ZM13.1489 38.0797C17.097 38.0797 20.2977 41.3615 20.2977 45.4099C20.2977 49.4581 17.097 52.7399 13.1489 52.7399C9.20068 52.7399 6 49.4581 6 45.4099C6 41.3615 9.20068 38.0797 13.1489 38.0797ZM13.1489 21.1158C17.097 21.1158 20.2977 24.3976 20.2977 28.4459C20.2977 32.4942 17.097 35.776 13.1489 35.776C9.20068 35.776 6 32.4942 6 28.4459C6 24.3976 9.20068 21.1158 13.1489 21.1158ZM13.1489 3C17.097 3 20.2977 6.28183 20.2977 10.3301C20.2977 14.3784 17.097 17.6602 13.1489 17.6602C9.20068 17.6602 6 14.3784 6 10.3301C6 6.28183 9.20068 3 13.1489 3ZM48.5867 21.2208C52.5349 21.2208 55.7355 24.5026 55.7355 28.5509C55.7355 32.5992 52.5349 35.881 48.5867 35.881C44.6384 35.881 41.4378 32.5992 41.4378 28.5509C41.4378 24.5026 44.6384 21.2208 48.5867 21.2208Z" fill="#003764"/>
<path fill-rule="evenodd" clip-rule="evenodd" d="M37.8596 29.6048L37.8593 29.6044C37.2752 33.0504 34.3445 35.6707 30.8166 35.6707C26.8685 35.6707 23.6678 32.389 23.6678 28.3407C23.6678 24.3342 26.8028 21.0789 30.6945 21.0121L30.6942 21.0116C36.386 20.6493 41.4377 16.83 41.4377 10.539C41.4377 6.49081 44.6383 3.20898 48.5866 3.20898C52.5348 3.20898 55.7354 6.49081 55.7354 10.539C55.7354 14.5874 52.5348 17.8691 48.5866 17.8691V17.8692C41.4541 18.1474 38.8645 23.0255 37.8596 29.6048Z" fill="#FF9E19"/>
<path fill-rule="evenodd" clip-rule="evenodd" d="M65.6638 40.3138L65.7254 18.2034H68.3747L75.6119 30.2931L82.7915 18.2666H85.4407L85.5024 40.3138H82.8531V23.3204L75.8207 34.6242L75.4132 34.6246L68.4363 23.3835L68.3747 40.377L65.6638 40.3138Z" fill="#003764"/>
<path fill-rule="evenodd" clip-rule="evenodd" d="M117.118 16.0868H114.592V23.1362C109.672 23.3899 103.278 22.2083 103.309 31.8315C103.34 41.4547 111.099 40.4097 114.592 40.2819H117.118V16.0868ZM114.592 25.0194V38.261C107.046 38.4309 105.99 37.2576 105.835 31.7123C105.682 26.2003 107.462 24.9946 114.592 25.0194Z" fill="#003764"/>
<path fill-rule="evenodd" clip-rule="evenodd" d="M183.754 37.0515V40.377L179.14 40.3735C176.44 40.4795 174.201 37.9323 174.181 36.0482V18.8781H177.644V23.263H183.754V26.8183H177.644V34.5794C177.65 36.4773 178.395 37.0329 179.741 37.0515H183.754Z" fill="#003764"/>
<path fill-rule="evenodd" clip-rule="evenodd" d="M157.53 33.8601C156.685 25.9622 160.493 23.5235 164.532 23.3188C168.895 23.0978 173.043 25.2191 172.163 32.2689L162.056 35.6391C162.558 36.5465 163.669 36.9429 165.075 37.0921H170.681V40.3771H163.596C158.524 39.7524 157.765 35.8745 157.53 33.8601ZM165.115 26.6115C166.879 26.6115 168.185 27.0091 168.664 30.1762L161.19 32.5478C160.942 26.8374 162.987 26.6115 165.115 26.6115Z" fill="#003764"/>
<path fill-rule="evenodd" clip-rule="evenodd" d="M140.867 40.377V23.2099H147.967C151.577 23.0152 154.878 24.2259 155.068 28.0742V40.3296H151.695L151.679 30.3799C151.69 27.5372 150.029 26.7713 149.215 26.8107H144.409V40.3296C144.409 40.3296 140.867 40.3296 140.867 40.377Z" fill="#003764"/>
<path fill-rule="evenodd" clip-rule="evenodd" d="M87.3221 33.6035C86.7858 26.3688 89.8258 23.4591 93.8661 23.2794C97.7671 23.1057 101.614 24.4452 101.504 31.9688L90.4116 35.6233C90.852 36.6571 91.9477 37.8431 94.2776 38.3081L100.747 38.2923L100.762 40.3613L93.6307 40.3771C88.5591 39.7525 87.5574 35.6178 87.3221 33.6035ZM94.332 25.5711C97.5163 25.4559 99.0377 27.2605 99.0843 30.5079L89.8043 33.4915C89.3039 26.7978 91.1477 25.6863 94.332 25.5711Z" fill="#003764"/>
<path fill-rule="evenodd" clip-rule="evenodd" d="M120.435 23.3204H122.961V40.377H120.435V23.3204ZM121.698 15.7341C122.647 15.7341 123.416 16.5225 123.416 17.495C123.416 18.4675 122.647 19.256 121.698 19.256C120.75 19.256 119.981 18.4675 119.981 17.495C119.981 16.5225 120.75 15.7341 121.698 15.7341Z" fill="#003764"/>
<path fill-rule="evenodd" clip-rule="evenodd" d="M134.954 30.3917C135.197 30.3917 135.437 30.3965 135.674 30.4053V28.6523H135.675C135.644 25.0719 130.447 25.3502 126.937 26.3405L126.42 23.9143C136.39 21.4033 138.396 25.5728 138.123 28.6523V40.3632H135.674C135.437 40.372 135.197 40.3769 134.954 40.3769C129.578 40.3769 125.343 40.4158 125.22 35.3843C125.097 30.3527 129.578 30.3917 134.954 30.3917ZM135.674 32.2528C131.22 32.1943 127.797 31.834 127.729 35.2915C127.661 38.7493 131.204 38.3883 135.674 38.33V32.2528Z" fill="#003764"/>
</svg>
