
<svg xmlns="http://www.w3.org/2000/svg" version="1.1" xmlns:xlink="http://www.w3.org/1999/xlink" preserveAspectRatio="none" x="0px" y="0px" width="232px" height="232px" viewBox="0 0 232 232">
<defs/>

<g id="Capa_1">
<g transform="matrix( 1, 0, 0, 1, 0,0) ">
<g>
<g>
<path fill="#000000" stroke="none" d="
M 224.9 82.9
Q 218.45 67.85 206.7 56.3 194.9 44.6 179.75 38.4 164.7 32.2 148.1 32.2 141.05 32.2 133.05 33.55 150.5 44.1 162.1 60.8 179.35 85.65 179.35 115.6 179.35 145.8 162.1 170.4 145.35 194.5 118 205.1 101.2 211.55 83.4 211.55 57.1 211.55 34.7 198.15
L 34.7 198.3 35.85 199.35 35.85 199.45 36.9 200.4 37.05 200.4 37.05 200.5 37.75 201.1 37.75 201.2 39.15 202.25 39.15 202.4 39.95 203.1 40.1 203.1 40.2 203.35 40.3 203.35 41.05 204.05 41.25 204.15 41.95 204.8 42.1 204.8 42.1 204.9 42.8 205.45 42.8 205.55 42.9 205.55 43.45 205.95 43.55 206.05 46.4 208.25 46.6 208.5 46.8 208.6 47.55 209.1 47.75 209.3 48.2 209.65 48.3 209.65 48.9 210.05 49.1 210.25 50.5 211.2 50.6 211.3 51.95 212.15 52.5 212.6 53.45 213.1 54.3 213.75 55 213.75 56.4 215 57 215.3 58.15 216.05 58.25 216.05 59.2 216.7 70.05 222.05 70.15 222.05 75.1 224.05 75.2 224.05 76.15 224.45 76.25 224.45 80.55 225.95 80.7 225.95 81.5 226.25 81.6 226.25 95.3 229.6 95.4 229.6 96.65 229.85 96.75 229.85 98.15 230.05 98.25 230.05 99.6 230.25
Q 108 231.4 115.8 231.4 123.6 231.4 132 230.25
L 132.1 230.25 133.35 230.05 133.5 230.05 230.25 133.3 230.25 132.95 230.35 132.45 230.35 132.35 230.45 131.7 230.45 131.4 230.55 131.15 230.55 130.45 230.65 130 231.1 126.35 231.1 125.9 231.2 125.3 231.5 114.35
Q 231.3 97.85 224.9 82.9 Z"/>

<path fill="#008994" stroke="none" d="
M 183.35 21.6
L 182.7 21.15 182.6 21.05 182.5 21.05 180.4 19.6 180.15 19.5 180.15 19.35 179.25 18.75 179.1 18.75 178.9 18.55 178.2 18.1 178.05 18.1 177 17.35 176.9 17.35 175.25 16.3 175 16.1 173.55 15.35 173.45 15.15 173.15 15.05 172.4 14.65 172.3 14.65 167.35 11.9 167.15 11.9 165.05 10.85 164.9 10.75 164.8 10.75 161.55 9.25 161.45 9.25 160.7 8.95 160.6 8.85 160.5 8.85 156 7.05 155.9 6.95 155.35 6.85 151.05 5.4 150.95 5.3 149.15 4.75 148.6 4.65 146.85 4.1 146.75 4.1 146.75 4 146.5 4 146.1 3.9 145.9 3.8 133.5 1.15 132.85 1.15 132 0.95 128 0.55
Q 123.6 0 120.1 0
L 107.7 0.1 98.15 1.15 1.35 97.95 1.35 98.25 1.25 98.8 1.25 99 1.15 99.3 1.15 99.85 1.05 99.95 1.05 100.15 0.85 102.35 0.75 102.8 0.55 105 0.55 105.3 0.45 105.7 0.45 106.55 0.3 107 0.2 110.35 0.1 110.35 0 116.85
Q 0.3 133.4 6.75 148.4 13.15 163.45 24.95 175.05 36.7 186.6 51.85 192.8 66.9 199 83.4 199 88.8 199 93.8 198.4
L 98.55 197.65
Q 81.2 187.35 69.4 170.4 65 164 62.05 157.9
L 60.7 154.85 60.5 154.5
Q 52.3 136 52.3 115.6 52.3 85.75 69.4 60.8 73.4 55.35 77.95 50.4 93.1 34.1 113.5 26.2 120.55 23.6 126.2 22.3 136.95 19.8 148.1 19.8 174.4 19.8 196.9 33.05
L 195.95 32.1 195.75 32 195.75 31.9 195.65 31.9 193.85 30.1 193.75 30.1 189.85 26.65 189.65 26.5 189.55 26.4 188.8 25.8 188.7 25.8 188.7 25.7 188.05 25.25 188.05 25.15 185.2 22.95 185.1 22.95 185 22.85 184.6 22.55 184.5 22.4 183.95 22.1 183.85 22 183.55 21.8 183.35 21.7 183.35 21.6 Z"/>
</g>
</g>
</g>
</g>
</svg>
