<?xml version="1.0" encoding="UTF-8"?>
<!DOCTYPE svg PUBLIC "-//W3C//DTD SVG 1.1//EN" "http://www.w3.org/Graphics/SVG/1.1/DTD/svg11.dtd">
<!-- Creator: CorelDRAW X7 -->
<svg xmlns="http://www.w3.org/2000/svg" xml:space="preserve" width="223.765mm" height="50.396mm" version="1.1" style="shape-rendering:geometricPrecision; text-rendering:geometricPrecision; image-rendering:optimizeQuality; fill-rule:evenodd; clip-rule:evenodd"
viewBox="0 0 21504 4843"
 xmlns:xlink="http://www.w3.org/1999/xlink">
 <defs>
  <style type="text/css">
   <![CDATA[
    .fil1 {fill:#FEFEFE}
    .fil2 {fill:#109AA5}
    .fil0 {fill:#828484}
   ]]>
  </style>
 </defs>
 <g id="Capa_x0020_1">
  <metadata id="CorelCorpID_0Corel-Layer"/>
  <g id="_2638475217232">
   <path class="fil0" d="M20607 2984c6,25 12,48 17,70 8,21 15,40 21,58l168 395 185 0 0 -634 -133 0 0 358c0,22 1,47 3,73 2,27 5,56 10,86 -9,-33 -17,-61 -25,-84 -7,-23 -14,-40 -19,-52l-162 -381 -185 0 0 634 133 0 0 -335c0,-24 -1,-52 -3,-83 -3,-32 -6,-67 -10,-105z"/>
   <path class="fil0" d="M20167 2857c-86,0 -153,29 -202,89 -50,58 -75,139 -75,244 0,104 25,186 75,245 48,58 115,87 202,87 87,0 156,-29 205,-87 48,-59 72,-141 72,-245 0,-105 -24,-186 -72,-244 -49,-60 -118,-89 -205,-89zm0 123c39,0 70,19 93,56 24,39 35,90 35,153 0,63 -11,113 -35,152 -23,37 -54,55 -93,55 -37,0 -68,-18 -92,-55 -24,-39 -35,-89 -35,-152 0,-64 11,-115 35,-153 24,-37 55,-56 92,-56z"/>
   <path class="fil0" d="M21460 3011l15 -131c-29,-8 -57,-14 -85,-18 -29,-4 -59,-5 -90,-5 -85,0 -150,16 -196,51 -45,34 -67,84 -67,148 0,44 13,80 39,109 25,29 69,54 130,77 8,3 19,7 34,12 61,20 91,44 91,71 0,21 -9,39 -29,53 -19,11 -45,17 -78,17 -25,0 -51,-4 -79,-12 -28,-6 -58,-16 -88,-30l-12 142c31,10 62,16 94,20 32,4 64,7 96,7 62,0 114,-9 155,-27 17,-9 31,-18 44,-29 47,-36 70,-90 70,-160 0,-29 -5,-55 -15,-78 -9,-22 -26,-41 -50,-58 -10,-9 -26,-18 -49,-27 -25,-11 -57,-23 -95,-36 -11,-4 -20,-6 -27,-9 -19,-6 -34,-14 -44,-24 -11,-11 -16,-23 -16,-36 0,-18 10,-32 30,-43 19,-11 46,-17 80,-17 22,0 45,3 69,8 0,0 2,0 3,1 23,5 47,13 70,24z"/>
   <path class="fil0" d="M16581 3038c0,-18 10,-32 29,-43 18,-11 45,-17 79,-17 22,0 45,3 69,8 23,6 47,14 71,25l14 -131c-27,-8 -55,-14 -84,-18 -28,-4 -57,-5 -88,-5 -84,0 -148,16 -192,51 -44,34 -67,84 -67,148 0,44 13,80 39,109 25,29 68,54 127,77 8,3 19,7 33,12 60,20 90,44 90,71 0,21 -9,39 -28,53 -19,11 -44,17 -77,17 -23,0 -50,-4 -78,-12 -27,-6 -56,-16 -86,-30l-13 142c31,10 61,16 94,20 32,4 62,7 93,7 86,0 151,-19 197,-56 47,-36 70,-90 70,-160 0,-29 -5,-55 -14,-78 -11,-22 -28,-41 -50,-58 -24,-18 -71,-39 -143,-63 -10,-4 -20,-6 -26,-9 -19,-6 -34,-14 -44,-24 -10,-11 -15,-23 -15,-36z"/>
   <path class="fil0" d="M16324 2946c-48,-60 -116,-89 -204,-89 -84,0 -151,29 -201,89 -49,58 -74,139 -74,244 0,104 25,186 73,245 49,58 116,87 202,87 88,0 156,-29 204,-87 48,-59 72,-141 72,-245 0,-105 -24,-186 -72,-244zm-293 90c22,-37 52,-56 89,-56 40,0 71,19 95,56 22,39 33,90 33,153 0,63 -11,113 -33,152 -24,37 -55,55 -95,55 -37,0 -68,-18 -91,-55 -23,-39 -35,-89 -35,-152 0,-64 12,-115 37,-153z"/>
   <path class="fil0" d="M17502 3011l14 -131c-26,-8 -54,-14 -83,-18 -28,-4 -57,-5 -88,-5 -83,0 -148,16 -192,51 -44,34 -66,84 -66,148 0,44 13,80 38,109 25,29 68,54 127,77 8,3 19,7 33,12 60,20 91,44 91,71 0,21 -10,39 -29,53 -18,11 -44,17 -75,17 -25,0 -52,-4 -80,-12 -26,-6 -54,-16 -85,-30l-14 142c32,10 63,16 94,20 32,4 63,7 93,7 86,0 152,-19 198,-56 45,-36 68,-90 68,-160 0,-29 -6,-55 -16,-78 -9,-22 -24,-41 -47,-58 -23,-18 -71,-39 -143,-63 -11,-4 -19,-6 -27,-9 -18,-6 -33,-14 -41,-24 -11,-11 -16,-23 -16,-36 0,-18 9,-32 28,-43 18,-11 45,-17 79,-17 22,0 44,3 66,8 24,6 49,14 73,25z"/>
   <path class="fil0" d="M17834 2857c-85,0 -152,29 -200,89 -49,58 -74,139 -74,244 0,104 25,186 73,245 48,58 115,87 201,87 85,0 151,-29 200,-87 46,-59 70,-141 70,-245 0,-105 -24,-186 -70,-244 -49,-60 -115,-89 -200,-89zm-89 179c21,-37 52,-56 89,-56 38,0 67,19 90,56 23,39 35,90 35,153 0,63 -12,113 -35,152 -23,37 -52,55 -90,55 -37,0 -68,-18 -92,-55 -22,-39 -33,-89 -33,-152 0,-64 12,-115 36,-153z"/>
   <path class="fil0" d="M18711 2873l-151 0 0 370c0,91 21,161 63,209 40,47 99,70 179,70 82,0 143,-23 183,-69 41,-47 62,-117 62,-210l0 -370 -145 0 0 370c0,49 -8,87 -25,114 -16,25 -41,38 -75,38 -31,0 -54,-12 -68,-36 -16,-25 -23,-63 -23,-116l0 -370z"/>
   <polygon class="fil0" points="18316,2873 18159,2873 18159,3507 18551,3507 18551,3382 18316,3382 "/>
   <polygon class="fil0" points="19572,2873 19572,3000 19632,3000 19632,3380 19572,3380 19572,3507 19858,3507 19858,3380 19801,3380 19801,3000 19858,3000 19858,2873 "/>
   <polygon class="fil0" points="19553,3000 19553,2873 19070,2873 19070,3000 19228,3000 19228,3507 19396,3507 19396,3000 "/>
   <path class="fil0" d="M12666 3054c0,-6 0,-17 1,-34 1,-18 3,-42 4,-71 2,26 4,49 5,67 2,19 3,31 3,38l73 453 191 0 118 -634 -137 0 -66 440c-1,7 -3,17 -3,29 0,13 -2,35 -6,67 -2,-20 -3,-38 -6,-56 0,-17 -2,-31 -4,-44l-69 -436 -187 0 -66 439c-2,14 -4,30 -4,47 -2,16 -3,32 -3,50 -2,-20 -5,-37 -8,-54 0,-17 -1,-32 -3,-46l-62 -436 -148 0 121 634 189 0 67 -453z"/>
   <path class="fil0" d="M13888 2873l-236 0 0 634 155 0 0 -248 21 0c32,0 55,6 70,16 14,11 25,31 33,58l53 174 165 0 -70 -210c-19,-58 -45,-93 -78,-105 39,-8 68,-26 88,-53 20,-26 31,-60 31,-101 0,-56 -19,-97 -57,-125 -39,-27 -97,-40 -175,-40zm-81 111l37 0c42,0 73,6 92,20 19,13 28,34 28,62 0,28 -8,48 -25,61 -17,14 -42,20 -77,20l-55 0 0 -163z"/>
   <path class="fil0" d="M13337 2857c-86,0 -154,29 -204,89 -49,58 -74,139 -74,244 0,104 25,186 73,245 49,58 117,87 205,87 88,0 156,-29 205,-87 49,-59 73,-141 73,-245 0,-105 -24,-186 -73,-244 -49,-60 -117,-89 -205,-89zm0 123c40,0 70,19 93,56 23,39 35,90 35,153 0,63 -12,113 -35,152 -23,37 -53,55 -93,55 -38,0 -69,-18 -93,-55 -23,-39 -35,-89 -35,-152 0,-64 12,-115 35,-153 24,-37 55,-56 93,-56z"/>
   <path class="fil0" d="M14803 2873l-198 0 0 634 178 0c59,0 105,-3 141,-9 34,-8 62,-18 85,-33 44,-28 78,-66 100,-112 21,-45 32,-101 32,-167 0,-60 -11,-113 -32,-157 -20,-45 -51,-82 -93,-113 -21,-14 -49,-24 -82,-32 -36,-8 -80,-11 -131,-11zm-48 122l59 0c54,0 97,17 128,50 31,33 45,80 45,141 0,62 -14,110 -44,143 -27,34 -68,51 -123,51l-65 0 0 -385z"/>
   <polygon class="fil0" points="14345,2873 14192,2873 14192,3507 14577,3507 14577,3382 14345,3382 "/>
   <path class="fil0" d="M15771 2922c-40,-33 -101,-49 -181,-49l-210 0 0 634 154 0 0 -220 68 0c74,0 131,-19 169,-56 39,-36 59,-88 59,-157 0,-69 -20,-119 -59,-152zm-237 65l43 0c31,0 55,8 71,24 15,17 22,41 22,72 0,29 -7,51 -22,65 -16,16 -41,24 -72,24l-42 0 0 -185z"/>
   <path class="fil0" d="M6034 1852c0,-4 -1,-9 -5,-14 -2,-3 -7,-6 -13,-8 -7,-5 -17,-7 -28,-8 -12,-2 -28,-3 -47,-3 -17,0 -32,1 -44,3 -11,1 -21,3 -28,8 -7,2 -12,5 -16,8 -3,5 -4,10 -4,14 0,0 0,991 0,995 0,5 1,9 4,14 2,4 6,7 12,9 6,2 14,5 25,6 9,1 22,2 37,2 15,0 28,-1 39,-2 10,-1 18,-4 24,-6 7,-2 11,-5 14,-9 1,-5 2,-9 2,-14l0 -74c18,20 36,38 54,54 16,14 33,26 51,37 17,9 36,15 54,18 19,6 40,8 62,8 45,0 85,-9 120,-26 35,-19 64,-45 88,-79 24,-34 43,-75 57,-123 13,-48 19,-102 19,-161 0,-51 -5,-99 -15,-143 -10,-44 -25,-84 -46,-118 -21,-34 -49,-61 -83,-81 -34,-19 -76,-29 -124,-29 -20,0 -39,1 -56,4 -18,3 -35,9 -51,17 -18,8 -35,18 -51,30 -17,12 -33,26 -51,45l0 -374zm0 770l0 -222c15,-20 30,-38 43,-51 14,-14 26,-26 39,-35 12,-9 23,-14 35,-18 12,-3 25,-5 38,-5 25,0 45,7 61,20 17,12 30,28 41,48 9,21 16,45 20,72 5,26 8,54 8,83 0,25 -3,51 -9,78 -5,25 -12,47 -23,68 -12,19 -25,35 -42,49 -16,12 -36,19 -60,19 -27,0 -52,-9 -76,-26 -24,-18 -48,-45 -75,-80z"/>
   <path class="fil0" d="M3874 2168c-2,-5 -3,-10 -3,-13 -1,-3 -3,-5 -6,-7 -2,-3 -7,-5 -12,-8 -7,-2 -14,-5 -22,-6 -8,-2 -15,-3 -22,-4 -8,0 -15,0 -22,0 -13,0 -26,2 -41,5 -13,3 -27,10 -40,20 -14,9 -29,22 -44,38 -16,17 -32,38 -50,63l0 -84c0,-5 -1,-9 -3,-13 -2,-4 -6,-8 -11,-10 -6,-2 -14,-4 -24,-5 -11,-1 -24,-1 -39,-1 -15,0 -28,0 -39,1 -9,1 -18,3 -24,5 -6,2 -10,6 -13,10 -2,4 -3,8 -3,13l0 675c0,5 1,9 3,13 4,3 9,6 16,9 7,2 16,4 29,7 11,1 25,2 44,2 19,0 34,-1 45,-2 11,-3 21,-5 28,-7 7,-3 13,-6 15,-9 3,-4 5,-8 5,-13l0 -420c14,-23 27,-42 39,-56 11,-17 23,-29 34,-37 11,-9 21,-16 32,-20 10,-4 20,-6 31,-6 9,0 17,1 24,3 8,1 15,3 21,6 6,0 11,2 16,4 5,2 9,3 12,3 6,0 10,-2 13,-4 4,-2 7,-6 8,-12 2,-8 3,-17 4,-28 2,-12 2,-27 2,-45 0,-18 0,-33 -2,-43 0,-11 -1,-19 -1,-24z"/>
   <path class="fil0" d="M2990 2130c-53,0 -99,8 -140,25 -42,18 -78,44 -108,78 -28,33 -49,73 -65,121 -15,48 -23,103 -23,164 0,63 7,117 22,164 15,47 37,86 66,116 30,31 66,54 110,70 44,14 95,22 154,22 33,0 63,-2 92,-8 28,-3 52,-7 75,-13 22,-6 41,-12 55,-18 14,-7 22,-12 27,-15 2,-4 4,-7 6,-11 3,-4 4,-8 4,-14 1,-5 2,-12 3,-20 0,-8 0,-17 0,-29 0,-12 0,-22 0,-31 -1,-9 -2,-16 -4,-20 -2,-4 -5,-7 -8,-9 -3,-1 -6,-2 -11,-2 -8,0 -18,2 -30,8 -11,4 -26,10 -44,16 -18,5 -39,10 -64,16 -24,4 -52,5 -84,5 -32,0 -60,-4 -83,-12 -23,-9 -40,-21 -54,-36 -16,-18 -26,-37 -32,-60 -8,-24 -11,-51 -11,-80l400 0c19,0 32,-6 41,-17 11,-11 16,-28 16,-50l0 -31c0,-47 -6,-91 -17,-131 -13,-41 -31,-76 -57,-105 -25,-30 -57,-53 -95,-71 -39,-14 -87,-22 -141,-22zm-110 184c12,-15 27,-28 44,-38 17,-8 37,-12 60,-12 47,0 82,14 104,45 23,30 34,72 32,127l-277 0c1,-25 5,-47 11,-67 6,-22 14,-40 26,-55z"/>
   <path class="fil0" d="M2584 2192c3,-9 4,-16 4,-20 0,-6 -2,-11 -6,-15 -3,-4 -7,-7 -12,-9 -7,-3 -16,-4 -29,-4 -11,-1 -26,-1 -44,-1 -17,0 -32,0 -44,1 -12,0 -21,1 -28,4 -8,3 -13,7 -16,11 -2,4 -4,10 -5,16l-127 504 -133 -507c-2,-5 -5,-9 -7,-13 -2,-4 -6,-8 -14,-10 -7,-2 -16,-4 -27,-5 -11,-1 -26,-1 -44,-1 -19,0 -33,0 -44,1 -12,0 -21,1 -28,4 -6,3 -10,7 -14,11 -3,4 -6,10 -7,16l-124 504 -1 -9 -131 -495c-1,-6 -3,-12 -5,-16 -4,-4 -8,-8 -14,-11 -7,-3 -17,-4 -30,-4 -12,-1 -28,-1 -48,-1 -17,0 -32,0 -44,1 -13,0 -23,1 -29,4 -8,2 -13,5 -15,9 -3,4 -4,9 -4,15 0,4 1,11 2,20 1,8 4,19 8,34l174 610c2,8 5,15 8,20 4,5 11,9 20,13 8,2 20,4 35,7 15,1 34,2 58,2 25,0 45,-1 60,-2 16,-1 28,-4 36,-7 9,-3 16,-7 20,-11 3,-6 5,-14 8,-22l103 -416 113 416c1,8 3,15 8,20 3,5 9,9 18,13 8,2 20,4 35,7 16,1 36,2 60,2 24,0 44,-1 59,-2 14,-1 26,-4 34,-7 8,-3 15,-7 19,-11 3,-6 6,-14 8,-22l176 -610c4,-16 7,-28 8,-34z"/>
   <path class="fil0" d="M7109 2144c-11,3 -19,6 -23,11 -4,3 -8,12 -12,26l-141 460 -2 0 -155 -451c-3,-12 -7,-21 -11,-27 -3,-7 -9,-12 -16,-15 -6,-3 -16,-4 -28,-4 -12,-1 -28,-1 -49,-1 -24,0 -43,0 -56,1 -15,3 -24,7 -30,13 -6,4 -10,12 -10,21 0,9 4,23 11,40l226 619c2,8 6,15 11,21 6,6 11,11 17,14l-88 227c-3,9 -5,16 -4,22 0,5 3,10 10,14 5,4 14,7 25,9 13,3 29,4 48,4 38,0 67,-3 87,-10 20,-6 31,-15 35,-26l299 -901c4,-12 6,-23 6,-33 0,-9 -3,-17 -10,-21 -5,-6 -16,-10 -30,-13 -14,-1 -32,-1 -53,-1 -27,0 -46,0 -57,1z"/>
   <path class="fil0" d="M355 1896c-20,-2 -42,-2 -66,-2l-224 0c-20,0 -35,6 -47,19 -12,10 -18,28 -18,52l0 880c0,5 1,9 3,13 4,4 9,8 16,11 8,2 18,4 31,4 12,3 28,5 47,5 19,0 34,-2 47,-5 13,0 23,-2 29,-4 7,-3 12,-7 16,-11 4,-4 6,-8 6,-13l0 -311 78 0c63,0 118,-8 165,-24 45,-16 84,-38 116,-65 32,-31 57,-67 75,-108 16,-43 24,-92 24,-145 0,-41 -5,-76 -16,-107 -12,-33 -28,-61 -47,-86 -21,-24 -46,-44 -74,-60 -29,-15 -59,-25 -88,-31 -29,-5 -53,-10 -73,-12zm78 224c12,22 17,50 17,85 0,26 -3,49 -10,71 -7,21 -17,39 -30,54 -14,16 -31,28 -52,37 -20,8 -46,13 -77,13l-86 0 0 -334 81 0c21,0 41,2 60,6 19,3 36,9 52,20 19,11 34,27 45,48z"/>
   <path class="fil0" d="M932 2157c-46,18 -84,45 -113,80 -30,34 -52,74 -67,121 -15,49 -23,101 -23,157 0,60 7,114 22,160 12,46 34,85 63,117 27,32 64,56 108,73 41,17 92,25 151,25 60,0 113,-9 159,-29 45,-17 83,-44 113,-79 29,-34 52,-74 67,-122 14,-48 21,-100 21,-158 0,-60 -6,-113 -19,-160 -14,-46 -36,-85 -65,-116 -27,-32 -62,-56 -106,-74 -44,-14 -95,-22 -154,-22 -60,0 -113,9 -157,27zm-13 351c0,-37 4,-68 11,-96 6,-28 16,-52 30,-72 13,-19 30,-34 51,-45 21,-10 44,-15 71,-15 32,0 58,5 78,16 20,12 36,28 49,49 12,20 21,44 27,73 5,28 7,59 7,92 0,36 -3,68 -10,96 -7,28 -16,51 -29,70 -13,21 -31,36 -52,45 -19,11 -43,17 -72,17 -30,0 -56,-6 -77,-18 -21,-11 -37,-26 -48,-48 -13,-20 -22,-44 -27,-71 -6,-30 -9,-61 -9,-93z"/>
   <path class="fil0" d="M4285 2130c-52,0 -98,8 -139,25 -43,18 -79,44 -109,78 -27,33 -49,73 -64,121 -16,48 -24,103 -24,164 0,63 8,117 23,164 15,47 36,86 65,116 30,31 67,54 110,70 44,14 95,22 154,22 33,0 64,-2 92,-8 28,-3 53,-7 75,-13 23,-6 41,-12 55,-18 14,-7 23,-12 27,-15 3,-4 5,-7 6,-11 3,-4 4,-8 4,-14 1,-5 3,-12 4,-20 0,-8 0,-17 0,-29 0,-12 0,-22 0,-31 -1,-9 -3,-16 -5,-20 -2,-4 -4,-7 -8,-9 -2,-1 -6,-2 -11,-2 -8,0 -17,2 -29,8 -11,4 -26,10 -44,16 -18,5 -39,10 -64,16 -25,4 -53,5 -85,5 -31,0 -59,-4 -83,-12 -22,-9 -40,-21 -54,-36 -15,-18 -26,-37 -32,-60 -7,-24 -11,-51 -11,-80l401 0c18,0 32,-6 41,-17 10,-11 16,-28 16,-50l0 -31c0,-47 -6,-91 -17,-131 -13,-41 -32,-76 -57,-105 -25,-30 -57,-53 -96,-71 -39,-14 -86,-22 -141,-22zm-110 184c12,-15 27,-28 44,-38 18,-8 38,-12 60,-12 48,0 82,14 105,45 22,30 33,72 32,127l-278 0c2,-25 5,-47 11,-67 6,-22 15,-40 26,-55z"/>
   <path class="fil0" d="M5167 1852c0,-4 1,-9 5,-14 2,-3 7,-6 13,-8 7,-5 17,-7 28,-8 13,-2 28,-3 47,-3 17,0 32,1 44,3 11,1 21,3 28,8 7,2 12,5 16,8 2,5 4,10 4,14 0,0 0,991 0,995 0,5 -2,9 -4,14 -2,4 -6,7 -12,9 -6,2 -14,5 -25,6 -9,1 -22,2 -38,2 -14,0 -27,-1 -38,-2 -9,-1 -17,-4 -24,-6 -7,-2 -11,-5 -13,-9 -2,-5 -3,-9 -3,-14l0 -74c-18,20 -36,38 -54,54 -17,14 -33,26 -50,37 -18,9 -36,15 -55,18 -19,6 -40,8 -62,8 -45,0 -85,-9 -120,-26 -35,-19 -64,-45 -88,-79 -25,-34 -43,-75 -56,-123 -14,-48 -20,-102 -20,-161 0,-51 5,-99 16,-143 9,-44 24,-84 45,-118 22,-34 49,-61 83,-81 35,-19 76,-29 124,-29 20,0 39,1 56,4 18,3 35,9 51,17 18,8 35,18 51,30 17,12 33,26 51,45l0 -374zm0 770l0 -222c-15,-20 -30,-38 -43,-51 -13,-14 -27,-26 -40,-35 -11,-9 -23,-14 -34,-18 -12,-3 -25,-5 -38,-5 -24,0 -45,7 -61,20 -17,12 -30,28 -41,48 -9,21 -16,45 -20,72 -5,26 -8,54 -8,83 0,25 3,51 9,78 5,25 13,47 23,68 12,19 26,35 42,49 16,12 36,19 60,19 27,0 52,-9 76,-26 24,-18 48,-45 75,-80z"/>
   <rect class="fil1" x="8607" y="2884" width="3452" height="768" rx="221" ry="174"/>
   <path class="fil2" d="M12095 1349c-102,-208 -236,-403 -402,-584 -1905,-306 -3265,293 -4079,1797 16,337 94,649 233,934 973,-1763 2388,-2479 4248,-2147zm-2124 -1349c-652,0 -1209,236 -1670,708 -399,410 -625,894 -678,1450 902,-1319 2102,-1917 3598,-1797 -368,-240 -785,-361 -1250,-361zm2358 2421c0,-251 -32,-488 -96,-712 -1964,-349 -3349,371 -4156,2161 67,92 141,179 224,262 461,474 1018,711 1670,711 651,0 1207,-237 1667,-711 461,-471 691,-1041 691,-1711zm-283 1002c0,40 -11,78 -32,114 -23,35 -53,62 -92,78 -40,17 -90,25 -151,25 -85,0 -151,-20 -197,-61 -47,-41 -74,-102 -82,-180l134 -13c7,46 23,80 49,102 23,22 56,33 99,33 45,0 78,-10 100,-29 22,-19 34,-43 34,-69 0,-16 -5,-30 -14,-42 -10,-12 -26,-22 -51,-30 -15,-5 -52,-16 -110,-32 -73,-17 -125,-40 -156,-69 -40,-38 -61,-85 -61,-141 0,-35 10,-68 28,-99 20,-31 49,-55 87,-71 36,-16 81,-25 134,-25 86,0 151,20 194,58 42,39 65,90 68,154l-139 7c-6,-36 -18,-62 -37,-78 -20,-16 -49,-24 -88,-24 -40,0 -71,9 -93,25 -16,12 -24,26 -24,45 0,17 7,30 21,41 18,16 61,31 128,47 67,17 116,34 148,51 33,18 58,42 76,72 18,29 27,66 27,111zm-3224 205l-163 -701 141 0 103 482 125 -482 164 0 120 488 104 -488 139 0 -166 701 -145 0 -137 -526 -136 526 -149 0zm820 -701l222 0c83,0 138,3 164,10 39,10 73,33 99,69 26,35 39,80 39,136 0,44 -8,80 -23,108 -15,30 -34,53 -58,69 -24,17 -47,28 -70,33 -34,8 -82,11 -144,11l-89 0 0 265 -140 0 0 -701zm1301 182c0,-35 9,-68 28,-99 20,-31 48,-55 86,-71 37,-16 81,-25 134,-25 86,0 151,20 194,58 43,39 65,90 68,154l-138 7c-6,-36 -19,-62 -38,-78 -19,-16 -48,-24 -88,-24 -40,0 -71,9 -93,25 -16,12 -24,26 -24,45 0,17 8,30 23,41 17,16 59,31 126,47 67,17 116,34 148,51 33,18 58,42 76,72 18,29 27,66 27,111 0,40 -11,78 -32,114 -23,35 -53,62 -91,78 -40,17 -91,25 -150,25 -87,0 -153,-20 -199,-61 -47,-41 -73,-102 -82,-180l134 -13c7,46 23,80 49,102 23,22 57,33 99,33 45,0 78,-10 101,-29 22,-19 33,-43 33,-69 0,-16 -5,-30 -14,-42 -10,-12 -26,-22 -49,-30 -17,-5 -54,-16 -111,-32 -73,-17 -125,-40 -156,-69 -41,-38 -61,-85 -61,-141zm-403 -195c101,0 181,32 242,96 60,63 90,153 90,268 0,113 -30,202 -90,267 -60,64 -140,95 -240,95 -102,0 -184,-31 -244,-95 -59,-65 -88,-153 -88,-263 0,-71 10,-132 30,-181 16,-36 37,-68 64,-96 27,-28 56,-49 88,-64 44,-18 93,-27 148,-27zm138 181c-35,-40 -80,-60 -136,-60 -58,0 -103,20 -138,60 -35,40 -52,100 -52,182 0,79 17,140 52,181 36,40 82,60 138,60 54,0 99,-20 133,-60 36,-41 54,-102 54,-184 0,-81 -17,-140 -51,-179zm-831 -51l-65 0 0 200 73 0c56,0 92,-4 109,-11 19,-8 34,-19 44,-34 10,-16 15,-35 15,-56 0,-25 -7,-46 -21,-62 -14,-18 -33,-28 -55,-31 -16,-4 -50,-6 -100,-6z"/>
  </g>
 </g>
</svg>
